<?xml version='1.0' encoding='iso-8859-1'?>
<!DOCTYPE svg PUBLIC '-//W3C//DTD SVG 1.1//EN' 'http://www.w3.org/Graphics/SVG/1.1/DTD/svg11.dtd'>
<svg version="1.1" xmlns="http://www.w3.org/2000/svg" viewBox="0 0 463 463" xmlns:xlink="http://www.w3.org/1999/xlink" enable-background="new 0 0 463 463">
  <g>
    <path d="m455.5,59.297h-448c-4.143,0-7.5,3.358-7.5,7.5v329.407c0,4.142 3.357,7.5 7.5,7.5h448c4.143,0 7.5-3.358 7.5-7.5v-329.407c0-4.142-3.357-7.5-7.5-7.5zm-7.5,15v55.159h-433v-55.159h433zm-433,314.406v-244.247h433v244.248h-433z"/>
    <path d="m147.406,169.902h-87.995c-4.143,0-7.5,3.358-7.5,7.5s3.357,7.5 7.5,7.5h87.995c4.143,0 7.5-3.358 7.5-7.5s-3.357-7.5-7.5-7.5z"/>
    <path d="m147.406,205.573h-87.995c-4.143,0-7.5,3.358-7.5,7.5s3.357,7.5 7.5,7.5h87.995c4.143,0 7.5-3.358 7.5-7.5s-3.357-7.5-7.5-7.5z"/>
    <path d="m147.406,241.244h-87.995c-4.143,0-7.5,3.358-7.5,7.5s3.357,7.5 7.5,7.5h87.995c4.143,0 7.5-3.358 7.5-7.5s-3.357-7.5-7.5-7.5z"/>
    <path d="m147.406,276.915h-87.995c-4.143,0-7.5,3.358-7.5,7.5s3.357,7.5 7.5,7.5h87.995c4.143,0 7.5-3.358 7.5-7.5s-3.357-7.5-7.5-7.5z"/>
    <path d="m147.406,312.586h-87.995c-4.143,0-7.5,3.358-7.5,7.5s3.357,7.5 7.5,7.5h87.995c4.143,0 7.5-3.358 7.5-7.5s-3.357-7.5-7.5-7.5z"/>
    <path d="m147.406,348.258h-87.995c-4.143,0-7.5,3.358-7.5,7.5s3.357,7.5 7.5,7.5h87.995c4.143,0 7.5-3.358 7.5-7.5s-3.357-7.5-7.5-7.5z"/>
    <path d="m275.497,276.915h-87.995c-4.143,0-7.5,3.358-7.5,7.5s3.357,7.5 7.5,7.5h87.995c4.143,0 7.5-3.358 7.5-7.5s-3.357-7.5-7.5-7.5z"/>
    <path d="m275.497,312.586h-87.995c-4.143,0-7.5,3.358-7.5,7.5s3.357,7.5 7.5,7.5h87.995c4.143,0 7.5-3.358 7.5-7.5s-3.357-7.5-7.5-7.5z"/>
    <path d="m275.497,348.258h-87.995c-4.143,0-7.5,3.358-7.5,7.5s3.357,7.5 7.5,7.5h87.995c4.143,0 7.5-3.358 7.5-7.5s-3.357-7.5-7.5-7.5z"/>
    <path d="m275.497,169.902h-87.995c-4.143,0-7.5,3.358-7.5,7.5v71.342c0,4.142 3.357,7.5 7.5,7.5h87.995c4.143,0 7.5-3.358 7.5-7.5v-71.342c0-4.142-3.357-7.5-7.5-7.5zm-7.5,71.342h-72.995v-56.342h72.995v56.342z"/>
    <path d="m403.589,241.244h-87.995c-4.143,0-7.5,3.358-7.5,7.5s3.357,7.5 7.5,7.5h87.995c4.143,0 7.5-3.358 7.5-7.5s-3.358-7.5-7.5-7.5z"/>
    <path d="m403.589,205.573h-87.995c-4.143,0-7.5,3.358-7.5,7.5s3.357,7.5 7.5,7.5h87.995c4.143,0 7.5-3.358 7.5-7.5s-3.358-7.5-7.5-7.5z"/>
    <path d="m403.589,169.902h-87.995c-4.143,0-7.5,3.358-7.5,7.5s3.357,7.5 7.5,7.5h87.995c4.143,0 7.5-3.358 7.5-7.5s-3.358-7.5-7.5-7.5z"/>
    <path d="m403.589,276.915h-87.995c-4.143,0-7.5,3.358-7.5,7.5v71.342c0,4.142 3.357,7.5 7.5,7.5h87.995c4.143,0 7.5-3.358 7.5-7.5v-71.342c0-4.142-3.358-7.5-7.5-7.5zm-7.5,71.343h-72.995v-56.342h72.995v56.342z"/>
    <path d="m106.166,123.376h318.974c4.143,0 7.5-3.358 7.5-7.5v-28c0-4.142-3.357-7.5-7.5-7.5h-318.974c-4.143,0-7.5,3.358-7.5,7.5v28c0,4.142 3.357,7.5 7.5,7.5zm7.5-28h303.974v13h-303.974v-13z"/>
    <path d="m32.353,109.379c1.98,0 3.91-0.8 5.311-2.2 1.39-1.4 2.189-3.33 2.189-5.3 0-1.97-0.8-3.91-2.189-5.31-1.4-1.39-3.33-2.19-5.311-2.19-1.97,0-3.91,0.8-5.3,2.19-1.4,1.4-2.2,3.33-2.2,5.31 0,1.97 0.8,3.91 2.2,5.3 1.4,1.4 3.33,2.2 5.3,2.2z"/>
    <path d="m56.593,109.379c1.97,0 3.91-0.8 5.3-2.2 1.4-1.4 2.2-3.33 2.2-5.3 0-1.98-0.8-3.91-2.2-5.31-1.39-1.39-3.33-2.19-5.3-2.19s-3.9,0.8-5.3,2.19c-1.4,1.4-2.2,3.33-2.2,5.31 0,1.97 0.8,3.91 2.2,5.3 1.399,1.4 3.33,2.2 5.3,2.2z"/>
    <path d="m80.833,109.379c1.979,0 3.91-0.8 5.3-2.2 1.4-1.4 2.2-3.33 2.2-5.3 0-1.98-0.8-3.91-2.2-5.31-1.39-1.39-3.32-2.19-5.3-2.19-1.971,0-3.91,0.8-5.311,2.19-1.39,1.4-2.189,3.33-2.189,5.31 0,1.97 0.8,3.9 2.189,5.3 1.401,1.4 3.34,2.2 5.311,2.2z"/>
  </g>
</svg>
