<?xml version='1.0' encoding='iso-8859-1'?>
<!DOCTYPE svg PUBLIC '-//W3C//DTD SVG 1.1//EN' 'http://www.w3.org/Graphics/SVG/1.1/DTD/svg11.dtd'>
<svg version="1.1" xmlns="http://www.w3.org/2000/svg" viewBox="0 0 472.138 472.138" xmlns:xlink="http://www.w3.org/1999/xlink" enable-background="new 0 0 472.138 472.138">
  <path d="m403.936,277.628c0-0.006 0-0.012 0-0.018 0-29.435-14.334-55.582-36.384-71.838 0.284-2.864 0.443-5.761 0.443-8.663 0-47.757-38.858-86.611-86.622-86.611-13.462,0-26.585,3.092-38.487,9.011-5.963-19.935-18.878-37.44-36.464-49.037-2.302-1.518-5.254-1.651-7.684-0.343-2.43,1.308-3.945,3.844-3.945,6.604v86.201c0,4.142 3.358,7.5 7.5,7.5h8.478l-26.778,46.374-26.771-46.374h8.48c4.142,0 7.5-3.358 7.5-7.5v-99.21c0-3.854-2.921-7.081-6.756-7.463-3.145-0.313-6.101-0.466-9.037-0.466-49.188,0-89.205,40.017-89.205,89.205 0,0.006 0,0.012 0,0.018-37.716,0.621-68.204,31.491-68.204,69.347 0,38.249 31.118,69.367 69.367,69.367h48.036c-8.391,13.337-13.253,29.107-13.253,45.994 0,47.761 38.857,86.618 86.618,86.618h79.082c4.142,0 7.5-3.358 7.5-7.5v-90.246c0-4.142-3.358-7.5-7.5-7.5h-8.482l26.777-46.379 26.777,46.379h-8.482c-4.142,0-7.5,3.358-7.5,7.5v90.246c0,4.142 3.358,7.5 7.5,7.5h96.337c38.247,0 69.362-31.116 69.362-69.362-0.001-37.86-30.49-68.732-68.203-69.354zm-334.569-8.897c-29.978,0-54.367-24.388-54.367-54.366 0-29.972 24.389-54.356 54.367-54.356 1.955,0 3.944,0.108 5.915,0.322 2.243,0.244 4.477-0.535 6.082-2.122 1.604-1.586 2.41-3.811 2.193-6.057-0.234-2.412-0.352-4.818-0.352-7.152 0-40.917 33.288-74.205 74.205-74.205 0.264,0 0.528,0.001 0.793,0.005v84.635h-13.97c-2.679,0-5.155,1.429-6.495,3.75-1.34,2.32-1.34,5.179 0,7.5l39.76,68.874c1.34,2.321 3.816,3.75 6.495,3.75 2.679,0 5.155-1.429 6.495-3.75l39.77-68.874c1.34-2.321 1.34-5.18 0-7.5-1.339-2.32-3.815-3.75-6.495-3.75h-13.969v-62.953c10.771,10.771 18.109,24.699 20.717,39.811 0.43,2.494 2.089,4.603 4.412,5.607 2.325,1.005 4.997,0.771 7.108-0.623 11.682-7.707 25.286-11.78 39.342-11.78 39.469,0 71.581,32.087 71.62,71.541-11.602-5.531-24.576-8.633-38.261-8.633-39.979,0-74.415,26.231-85.493,63.708-11.906-5.917-25.023-9.008-38.47-9.008-23.994,0-45.738,9.809-61.44,25.625h-59.962zm333.409,132.613h-88.837v-75.246h13.973c2.68,0 5.155-1.43 6.495-3.75s1.34-5.18 0-7.5l-39.767-68.879c-1.34-2.32-3.815-3.75-6.495-3.75s-5.155,1.43-6.495,3.75l-39.768,68.879c-1.34,2.32-1.34,5.18 0,7.5s3.815,3.75 6.495,3.75h13.973v75.246h-71.582c-39.49,0-71.618-32.128-71.618-71.618s32.128-71.618 71.618-71.618c14.042,0 27.648,4.076 39.347,11.786 2.113,1.392 4.784,1.625 7.107,0.621 2.322-1.005 3.98-3.114 4.411-5.608 6.148-35.635 36.89-61.5 73.098-61.5 40.917,0 74.205,33.288 74.205,74.205 0,2.314-0.118,4.724-0.352,7.165-0.215,2.244 0.592,4.466 2.196,6.05 1.604,1.584 3.84,2.364 6.077,2.12 2.004-0.217 3.996-0.327 5.919-0.327 29.976,0 54.362,24.387 54.362,54.362s-24.387,54.362-54.362,54.362z"/>
</svg>
