<?xml version='1.0' encoding='iso-8859-1'?>
<!DOCTYPE svg PUBLIC '-//W3C//DTD SVG 1.1//EN' 'http://www.w3.org/Graphics/SVG/1.1/DTD/svg11.dtd'>
<svg version="1.1" xmlns="http://www.w3.org/2000/svg" viewBox="0 0 443 443" xmlns:xlink="http://www.w3.org/1999/xlink" enable-background="new 0 0 443 443">
  <g>
    <path d="M326.637,0H116.363C95.761,0,79,16.761,79,37.363v368.273C79,426.239,95.761,443,116.363,443h210.273   C347.239,443,364,426.239,364,405.637V37.363C364,16.761,347.239,0,326.637,0z M116.363,15h210.273   C338.968,15,349,25.032,349,37.363V68H94V37.363C94,25.032,104.032,15,116.363,15z M349,83v277H94V83H349z M326.637,428H116.363   C104.032,428,94,417.968,94,405.637V375h255v30.637C349,417.968,338.968,428,326.637,428z"/>
    <path d="m189.5,49h64c4.143,0 7.5-3.358 7.5-7.5s-3.357-7.5-7.5-7.5h-64c-4.143,0-7.5,3.358-7.5,7.5s3.357,7.5 7.5,7.5z"/>
    <path d="m221.5,378.6c-12.406,0-22.5,10.093-22.5,22.5s10.094,22.5 22.5,22.5 22.5-10.093 22.5-22.5-10.094-22.5-22.5-22.5zm0,30c-4.136,0-7.5-3.364-7.5-7.5s3.364-7.5 7.5-7.5 7.5,3.364 7.5,7.5-3.364,7.5-7.5,7.5z"/>
    <path d="m118.755,345.001h31.498c4.143,0 7.5-3.358 7.5-7.5v-67.497c0-4.142-3.357-7.5-7.5-7.5h-31.498c-4.143,0-7.5,3.358-7.5,7.5v67.497c1.42109e-14,4.143 3.357,7.5 7.5,7.5zm7.5-67.496h16.498v52.497h-16.498v-52.497z"/>
    <path d="m176.752,345.001h31.498c4.143,0 7.5-3.358 7.5-7.5v-118.994c0-4.142-3.357-7.5-7.5-7.5h-31.498c-4.143,0-7.5,3.358-7.5,7.5v118.994c0,4.143 3.357,7.5 7.5,7.5zm7.5-118.994h16.498v103.994h-16.498v-103.994z"/>
    <path d="m234.749,345.001h31.498c4.143,0 7.5-3.358 7.5-7.5v-170.491c0-4.142-3.357-7.5-7.5-7.5h-31.498c-4.143,0-7.5,3.358-7.5,7.5v170.491c-2.84217e-14,4.143 3.357,7.5 7.5,7.5zm7.5-170.491h16.498v155.491h-16.498v-155.491z"/>
    <path d="m292.746,345.001h31.498c4.143,0 7.5-3.358 7.5-7.5v-221.988c0-4.142-3.357-7.5-7.5-7.5h-31.498c-4.143,0-7.5,3.358-7.5,7.5v221.989c0,4.142 3.358,7.499 7.5,7.499zm7.5-221.988h16.498v206.989h-16.498v-206.989z"/>
  </g>
</svg>
