<?xml version='1.0' encoding='iso-8859-1'?>
<!DOCTYPE svg PUBLIC '-//W3C//DTD SVG 1.1//EN' 'http://www.w3.org/Graphics/SVG/1.1/DTD/svg11.dtd'>
<svg version="1.1" xmlns="http://www.w3.org/2000/svg" viewBox="0 0 459 459" xmlns:xlink="http://www.w3.org/1999/xlink" enable-background="new 0 0 459 459">
  <path d="m451.5,308.234h-61.834c-2.784-11.352-11.734-20.304-23.086-23.089v-25.347h69.579c12.193,0 22.113-9.92 22.113-22.114v-81.95c0-12.193-9.92-22.113-22.113-22.113h-71.857c-2.561,0-4.933-1.384-6.192-3.613l-3.962-7.01c-3.916-6.929-11.293-11.232-19.252-11.232h-52.904c-12.193,0-22.113,9.92-22.113,22.114v103.805c0,12.193 9.92,22.114 22.113,22.114h69.589v25.344c-11.356,2.783-20.311,11.736-23.095,23.092h-197.97c-2.785-11.355-11.739-20.308-23.094-23.092v-25.344h69.588c12.193,0 22.113-9.92 22.113-22.114v-81.95c0-12.193-9.92-22.113-22.113-22.113h-71.86c-2.561,0-4.933-1.384-6.192-3.613l-3.962-7.01c-3.916-6.929-11.293-11.232-19.252-11.232h-52.904c-12.193,0-22.113,9.92-22.113,22.114v103.805c0,12.193 9.92,22.114 22.113,22.114h69.58v25.346c-11.352,2.785-20.302,11.737-23.087,23.09h-61.833c-4.143,0-7.5,3.358-7.5,7.5s3.357,7.5 7.5,7.5h61.833c3.374,13.759 15.806,24 30.591,24s27.216-10.241 30.591-24h197.97c3.374,13.759 15.806,24 30.591,24s27.216-10.241 30.591-24h61.833c4.143,0 7.5-3.358 7.5-7.5s-3.357-7.502-7.5-7.502zm-176.622-70.549v-103.806c0-3.922 3.191-7.114 7.113-7.114h52.904c2.561,0 4.934,1.385 6.193,3.613l3.962,7.009c3.915,6.929 11.292,11.233 19.251,11.233h71.857c3.922,0 7.113,3.191 7.113,7.113v81.95c0,3.922-3.191,7.114-7.113,7.114h-154.167c-3.922,0.001-7.113-3.19-7.113-7.112zm-259.151,0v-103.806c2.4869e-14-3.922 3.191-7.114 7.113-7.114h52.904c2.561,0 4.934,1.385 6.193,3.613l3.962,7.009c3.915,6.929 11.292,11.233 19.251,11.233h71.857c3.922,0 7.113,3.191 7.113,7.113v81.95c0,3.922-3.191,7.114-7.113,7.114h-154.167c-3.922,0.001-7.113-3.19-7.113-7.112zm84.197,94.549c-9.098,0-16.5-7.402-16.5-16.5s7.402-16.5 16.5-16.5 16.5,7.402 16.5,16.5-7.403,16.5-16.5,16.5zm259.151,0c-9.098,0-16.5-7.402-16.5-16.5s7.402-16.5 16.5-16.5 16.5,7.402 16.5,16.5-7.402,16.5-16.5,16.5z"/>
</svg>
