<?xml version='1.0' encoding='iso-8859-1'?>
<!DOCTYPE svg PUBLIC '-//W3C//DTD SVG 1.1//EN' 'http://www.w3.org/Graphics/SVG/1.1/DTD/svg11.dtd'>
<svg version="1.1" xmlns="http://www.w3.org/2000/svg" viewBox="0 0 459 459" xmlns:xlink="http://www.w3.org/1999/xlink" enable-background="new 0 0 459 459">
  <g>
    <path d="M273.18,184.48c50.861,0,92.24-41.379,92.24-92.24S324.042,0,273.18,0H185.82c-50.861,0-92.24,41.379-92.24,92.24   s41.379,92.24,92.24,92.24h18.79V451.5c0,4.142,3.358,7.5,7.5,7.5h34.781c4.142,0,7.5-3.358,7.5-7.5V447h65.995   c4.142,0,7.5-3.358,7.5-7.5v-46c0-4.142-3.358-7.5-7.5-7.5h-27.8v-30.5c0-4.142-3.358-7.5-7.5-7.5H254.39V184.48H273.18z    M108.579,92.24c0-42.59,34.65-77.24,77.24-77.24h87.361c42.59,0,77.24,34.65,77.24,77.24s-34.65,77.24-77.24,77.24H185.82   C143.229,169.48,108.579,134.831,108.579,92.24z M277.585,363v30.5c0,4.142,3.358,7.5,7.5,7.5h27.8v31H254.39v-69H277.585z    M239.39,444h-19.781V184.48h19.781V444z"/>
    <path d="m321.74,92.24c0-26.776-21.784-48.56-48.56-48.56h-87.36c-26.776,0-48.56,21.784-48.56,48.56s21.784,48.56 48.56,48.56h87.361c26.775,0 48.559-21.784 48.559-48.56zm-169.48,0c0-18.505 15.055-33.56 33.56-33.56h87.361c18.505,0 33.56,15.055 33.56,33.56s-15.055,33.56-33.56,33.56h-87.361c-18.505,0-33.56-15.055-33.56-33.56z"/>
  </g>
</svg>
