<?xml version='1.0' encoding='iso-8859-1'?>
<!DOCTYPE svg PUBLIC '-//W3C//DTD SVG 1.1//EN' 'http://www.w3.org/Graphics/SVG/1.1/DTD/svg11.dtd'>
<svg version="1.1" xmlns="http://www.w3.org/2000/svg" viewBox="0 0 425 425" xmlns:xlink="http://www.w3.org/1999/xlink" enable-background="new 0 0 425 425">
  <g>
    <path d="m7.5,25.932h410c4.142,0 7.5-3.358 7.5-7.5s-3.358-7.5-7.5-7.5h-410c-4.142,0-7.5,3.358-7.5,7.5s3.358,7.5 7.5,7.5z"/>
    <path d="m417.5,57.723h-410c-4.142,0-7.5,3.358-7.5,7.5s3.358,7.5 7.5,7.5h410c4.142,0 7.5-3.358 7.5-7.5s-3.358-7.5-7.5-7.5z"/>
    <path d="m417.5,104.514h-410c-4.142,0-7.5,3.358-7.5,7.5s3.358,7.5 7.5,7.5h410c4.142,0 7.5-3.358 7.5-7.5s-3.358-7.5-7.5-7.5z"/>
    <path d="m425,158.809c0-4.142-3.358-7.5-7.5-7.5h-107.504c-28.088-26.088-71.002-32.22-105.985-12.203-6.109,3.495-11.651,7.604-16.597,12.203h-179.914c-4.142,0-7.5,3.358-7.5,7.5s3.358,7.5 7.5,7.5h167.004c-6.603,9.657-11.228,20.478-13.695,31.79h-153.309c-4.142,0-7.5,3.358-7.5,7.5s3.358,7.5 7.5,7.5h151.331c-0.503,10.602 0.862,21.369 4.231,31.79h-155.562c-4.142,0-7.5,3.358-7.5,7.5s3.358,7.5 7.5,7.5h161.968c0.365,0.678 0.74,1.353 1.125,2.025 11.938,20.865 31.287,35.832 54.483,42.144 7.86,2.139 15.841,3.197 23.773,3.197 8.229,0 16.401-1.151 24.326-3.405l56.792,99.257c4.019,7.022 11.381,10.961 18.945,10.961 3.666,0 7.379-0.925 10.783-2.873 10.426-5.965 14.055-19.301 8.089-29.728l-56.789-99.25c6.807-6.5 12.506-14.026 16.956-22.329h89.549c4.142,0 7.5-3.358 7.5-7.5s-3.358-7.5-7.5-7.5h-83.162c0.429-1.333 0.835-2.678 1.205-4.039 2.497-9.176 3.497-18.517 3.084-27.751h78.873c4.142,0 7.5-3.358 7.5-7.5s-3.358-7.5-7.5-7.5h-80.826c-1.937-8.862-5.221-17.476-9.855-25.574-1.226-2.143-2.531-4.213-3.902-6.216h94.583c4.142,0.001 7.5-3.357 7.5-7.499zm-70.236,230.108c0.9,1.573 1.134,3.403 0.658,5.151-0.476,1.749-1.604,3.208-3.178,4.107-3.246,1.859-7.4,0.729-9.258-2.519l-55.604-97.18c2.033-0.971 4.043-2.013 6.018-3.144 1.977-1.131 3.883-2.35 5.751-3.611l55.613,97.196zm-33.694-152.006c-5.26,19.33-17.732,35.453-35.119,45.402-17.388,9.949-37.609,12.532-56.937,7.271-19.33-5.26-35.454-17.732-45.402-35.119-20.537-35.893-8.044-81.802 27.848-102.339 11.497-6.578 24.229-9.935 37.126-9.935 6.609,0 13.262,0.882 19.811,2.664 19.33,5.26 35.454,17.732 45.402,35.119 9.949,17.388 12.531,37.608 7.271,56.937z"/>
    <path d="m266.298,152.571c-17.268-4.7-35.333-2.393-50.866,6.496-15.533,8.888-26.676,23.292-31.375,40.561-4.699,17.268-2.392,35.333 6.496,50.866 12.359,21.599 35.001,33.713 58.266,33.713 11.274,0 22.694-2.845 33.161-8.834 32.066-18.348 43.226-59.362 24.879-91.427-8.888-15.534-23.293-26.676-40.561-31.375zm-43.417,19.515c7.971-4.561 16.8-6.889 25.742-6.889 4.582,0 9.195,0.611 13.736,1.847 13.402,3.647 24.582,12.295 31.479,24.35 4.231,7.394 6.425,15.401 6.787,23.378h-103.865c0.184-3.747 0.761-7.5 1.77-11.207 3.648-13.401 12.295-24.581 24.351-31.479zm51.649,90.267c-12.056,6.898-26.075,8.689-39.479,5.042-13.402-3.647-24.582-12.295-31.48-24.351-2.414-4.219-4.188-8.682-5.337-13.271h100.891c-3.309,13.286-11.801,25.26-24.595,32.58z"/>
  </g>
</svg>
