<?xml version='1.0' encoding='iso-8859-1'?>
<!DOCTYPE svg PUBLIC '-//W3C//DTD SVG 1.1//EN' 'http://www.w3.org/Graphics/SVG/1.1/DTD/svg11.dtd'>
<svg version="1.1" xmlns="http://www.w3.org/2000/svg" viewBox="0 0 437.055 437.055" xmlns:xlink="http://www.w3.org/1999/xlink" enable-background="new 0 0 437.055 437.055">
  <g>
    <path d="m197.229,116.46c-4.143,0-7.5,3.358-7.5,7.5v66.231h-24.497c-4.143,0-7.5,3.358-7.5,7.5s3.357,7.5 7.5,7.5h31.997c4.143,0 7.5-3.358 7.5-7.5v-73.731c-2.84217e-14-4.142-3.357-7.5-7.5-7.5z"/>
    <path d="m92.284,197.691c0-4.142-3.357-7.5-7.5-7.5h-21.101c-4.143,0-7.5,3.358-7.5,7.5s3.357,7.5 7.5,7.5h21.102c4.142,0 7.499-3.358 7.499-7.5z"/>
    <path d="m302.175,197.691c0,4.142 3.357,7.5 7.5,7.5h21.102c4.143,0 7.5-3.358 7.5-7.5s-3.357-7.5-7.5-7.5h-21.102c-4.143,0-7.5,3.358-7.5,7.5z"/>
    <path d="m197.229,56.644c-4.143,0-7.5,3.358-7.5,7.5v21.102c0,4.142 3.357,7.5 7.5,7.5s7.5-3.358 7.5-7.5v-21.102c0-4.142-3.357-7.5-7.5-7.5z"/>
    <path d="m197.229,302.636c-4.143,0-7.5,3.358-7.5,7.5v21.102c0,4.142 3.357,7.5 7.5,7.5s7.5-3.358 7.5-7.5v-21.102c0-4.142-3.357-7.5-7.5-7.5z"/>
    <path d="m84.763,253.964l-6.938,4.006c-3.587,2.071-4.816,6.658-2.745,10.245 1.389,2.406 3.91,3.751 6.502,3.751 1.272,0 2.562-0.324 3.743-1.006l6.938-4.006c3.587-2.071 4.816-6.658 2.745-10.245-2.07-3.587-6.657-4.816-10.245-2.745z"/>
    <path d="m305.953,142.425c1.272,0 2.563-0.324 3.743-1.006l6.938-4.006c3.587-2.071 4.816-6.658 2.745-10.245-2.07-3.587-6.659-4.816-10.245-2.745l-6.938,4.006c-3.587,2.071-4.816,6.658-2.745,10.245 1.389,2.406 3.91,3.751 6.502,3.751z"/>
    <path d="m136.951,78.286c-2.071-3.588-6.66-4.816-10.245-2.745-3.587,2.071-4.816,6.658-2.745,10.245l4.006,6.938c1.39,2.406 3.91,3.751 6.502,3.751 1.272,0 2.563-0.324 3.743-1.006 3.587-2.071 4.816-6.658 2.745-10.245l-4.006-6.938z"/>
    <path d="m138.212,299.913c-3.589-2.072-8.175-0.842-10.245,2.745l-4.006,6.938c-2.071,3.587-0.842,8.174 2.745,10.245 1.182,0.682 2.471,1.006 3.743,1.006 2.592,0 5.113-1.345 6.502-3.751l4.006-6.938c2.071-3.587 0.842-8.174-2.745-10.245z"/>
    <path d="m256.247,95.469c1.182,0.682 2.471,1.006 3.743,1.006 2.592,0 5.113-1.345 6.502-3.751l4.006-6.938c2.071-3.587 0.842-8.174-2.745-10.245-3.59-2.072-8.175-0.842-10.245,2.745l-4.006,6.938c-2.071,3.587-0.842,8.174 2.745,10.245z"/>
    <path d="m92.263,128.428l-6.938-4.006c-3.589-2.072-8.176-0.842-10.245,2.745-2.071,3.587-0.842,8.174 2.745,10.245l6.938,4.006c1.182,0.682 2.471,1.006 3.743,1.006 2.592,0 5.113-1.345 6.502-3.751 2.071-3.587 0.842-8.174-2.745-10.245z"/>
    <path d="m390.217,238.534c2.813-13.357 4.243-27.068 4.243-40.839 0-108.759-88.478-197.24-197.23-197.24s-197.23,88.482-197.23,197.241c0,108.753 88.477,197.23 197.229,197.23 14.257,0 28.424-1.531 42.196-4.537 19.698,27.93 52.205,46.211 88.905,46.211 59.951,0 108.725-48.774 108.725-108.725-5.68434e-14-36.973-18.555-69.689-46.838-89.341zm-192.988,141.392c-100.481,0-182.229-81.749-182.229-182.23 0-100.488 81.748-182.24 182.229-182.24 100.482,0 182.23,81.752 182.23,182.24 0,11.016-0.994,21.986-2.942,32.736-3.749-1.861-7.619-3.513-11.596-4.939 1.504-9.161 2.278-18.48 2.278-27.797 0-93.727-76.248-169.98-169.971-169.98-93.722,0-169.97,76.253-169.97,169.98 0,93.722 76.248,169.97 169.97,169.97 9.732,0 19.447-0.842 28.973-2.478 1.454,3.967 3.137,7.823 5.026,11.559-11.142,2.103-22.536,3.179-33.998,3.179zm22.376-52.051c0,7.824 0.838,15.454 2.416,22.814-8.161,1.311-16.469,1.977-24.792,1.977-85.45,0-154.97-69.519-154.97-154.97 0-85.456 69.52-154.98 154.97-154.98 85.451,0 154.971,69.524 154.971,154.98 0,7.941-0.606,15.884-1.804,23.707-7.128-1.475-14.508-2.253-22.066-2.253-59.951,2.84217e-14-108.725,48.774-108.725,108.725zm108.725,93.724c-51.68,0-93.725-42.045-93.725-93.725s42.045-93.725 93.725-93.725 93.725,42.045 93.725,93.725-42.045,93.725-93.725,93.725z"/>
    <path d="m328.33,245.772c-45.271,0-82.103,36.831-82.103,82.103s36.831,82.103 82.103,82.103 82.103-36.831 82.103-82.103-36.831-82.103-82.103-82.103zm0,149.205c-37,0-67.103-30.102-67.103-67.103s30.103-67.103 67.103-67.103 67.103,30.102 67.103,67.103-30.103,67.103-67.103,67.103z"/>
    <path d="m341.218,307.486c0,4.142 3.357,7.5 7.5,7.5s7.5-3.358 7.5-7.5c0-12.779-8.643-23.571-20.388-26.855v-2.979c0-4.142-3.357-7.5-7.5-7.5s-7.5,3.358-7.5,7.5v2.979c-11.745,3.285-20.389,14.076-20.389,26.855s8.643,23.571 20.389,26.855v24.381c-3.256-2.341-5.389-6.153-5.389-10.46 0-4.142-3.357-7.5-7.5-7.5s-7.5,3.358-7.5,7.5c0,12.779 8.643,23.571 20.389,26.855v2.979c0,4.142 3.357,7.5 7.5,7.5s7.5-3.358 7.5-7.5v-2.979c11.745-3.285 20.388-14.076 20.388-26.855s-8.643-23.571-20.388-26.855v-24.381c3.256,2.342 5.388,6.153 5.388,10.46zm-25.777,0c0-4.308 2.132-8.119 5.389-10.46v20.921c-3.256-2.342-5.389-6.153-5.389-10.461zm25.777,40.777c0,4.308-2.132,8.119-5.388,10.46v-20.92c3.256,2.341 5.388,6.152 5.388,10.46z"/>
  </g>
</svg>
