<?xml version='1.0' encoding='iso-8859-1'?>
<!DOCTYPE svg PUBLIC '-//W3C//DTD SVG 1.1//EN' 'http://www.w3.org/Graphics/SVG/1.1/DTD/svg11.dtd'>
<svg version="1.1" xmlns="http://www.w3.org/2000/svg" viewBox="0 0 426.885 426.885" xmlns:xlink="http://www.w3.org/1999/xlink" enable-background="new 0 0 426.885 426.885">
  <g>
    <path d="m109.534,95.943h208c4.142,0 7.5-3.358 7.5-7.5s-3.358-7.5-7.5-7.5h-208c-4.142,0-7.5,3.358-7.5,7.5s3.358,7.5 7.5,7.5z"/>
    <path d="m109.534,142.734h208c4.142,0 7.5-3.358 7.5-7.5s-3.358-7.5-7.5-7.5h-208c-4.142,0-7.5,3.358-7.5,7.5s3.358,7.5 7.5,7.5z"/>
    <path d="m371.034,262.217v-197.774c0,1.42109e-14-0.763-3.869-2.197-5.303l-48-48c-1.434-1.435-3.352-2.178-5.303-2.179l-252-.018c-4.142,0-7.5,3.358-7.5,7.5v211.993c-33.152,16.25-56.034,50.345-56.034,89.687 0,55.041 44.779,99.819 99.819,99.819h247.382c43.938,0 79.684-35.746 79.684-79.684 0-35.638-23.52-65.885-55.851-76.041zm-48-227.668l22.394,22.394h-22.394v-22.394zm-252-10.606h237v40.5c0,4.142 3.358,7.5 7.5,7.5h40.5v187.132c-2.872-0.318-5.785-0.496-8.739-0.5 0.005-0.422 0.008-0.842 0.008-1.26 0-26.352-9.967-50.417-26.325-68.634 2.408-1.248 4.056-3.758 4.056-6.658 0-4.142-3.358-7.5-7.5-7.5h-12.141c-17.065-12.592-38.14-20.046-60.927-20.046-22.752,0-43.936,7.385-61.103,20.046h-73.829c-4.142,0-7.5,3.358-7.5,7.5s3.358,7.5 7.5,7.5h57.5c-9.864,11.275-17.33,24.792-21.542,39.841-14.073-7.262-29.67-11.06-45.673-11.06-10.004,0-19.667,1.486-28.786,4.237v-198.598zm276.168,379h-247.382c-46.77,0-84.819-38.05-84.819-84.819s38.05-84.819 84.819-84.819c16.631,0 32.745,4.827 46.6,13.959 2.113,1.392 4.785,1.625 7.107,0.62 2.322-1.005 3.98-3.114 4.411-5.607 7.277-42.183 43.668-72.799 86.528-72.799 48.434,0 87.837,39.404 87.837,87.837 0,2.745-0.14,5.597-0.416,8.477-0.215,2.245 0.591,4.467 2.195,6.051 1.603,1.584 3.831,2.364 6.077,2.121 2.386-0.258 4.755-0.389 7.042-0.389 35.667,0 64.684,29.017 64.684,64.684s-29.016,64.684-64.683,64.684z"/>
  </g>
</svg>
