<?xml version='1.0' encoding='iso-8859-1'?>
<!DOCTYPE svg PUBLIC '-//W3C//DTD SVG 1.1//EN' 'http://www.w3.org/Graphics/SVG/1.1/DTD/svg11.dtd'>
<svg version="1.1" xmlns="http://www.w3.org/2000/svg" viewBox="0 0 453.484 453.484" xmlns:xlink="http://www.w3.org/1999/xlink" enable-background="new 0 0 453.484 453.484">
  <g>
    <path d="m445.984,317.199h-11.218v-210.801c0-19.751-16.069-35.82-35.82-35.82h-344.408c-19.751,0-35.82,16.069-35.82,35.82v210.801h-11.218c-4.142,0-7.5,3.358-7.5,7.5v27.141c0,17.13 13.937,31.066 31.066,31.066h391.352c17.13,0 31.066-13.937 31.066-31.066v-27.141c5.68434e-14-4.142-3.358-7.5-7.5-7.5zm-412.266-210.801c-1.42109e-14-11.48 9.34-20.82 20.82-20.82h344.408c11.48,0 20.82,9.34 20.82,20.82v210.801h-386.048v-210.801zm404.766,245.442c0,8.859-7.208,16.066-16.066,16.066h-391.352c-8.859,0-16.066-7.208-16.066-16.066v-19.641h423.484v19.641z"/>
    <path d="m396.15,98.236h-338.817c-4.142,0-7.5,3.358-7.5,7.5v191.305c0,4.142 3.358,7.5 7.5,7.5h338.817c4.142,0 7.5-3.358 7.5-7.5v-191.305c0-4.142-3.358-7.5-7.5-7.5zm-7.5,191.305h-323.817v-176.305h323.817v176.305z"/>
    <path d="m221.439,282.617c1.464,1.464 3.384,2.197 5.303,2.197s3.839-0.732 5.303-2.197l44.433-44.433c27.424-27.425 27.424-72.047 0-99.472-13.285-13.285-30.948-20.602-49.736-20.602-18.788,0-36.451,7.316-49.736,20.602-27.424,27.424-27.424,72.047 0,99.472l44.433,44.433zm-33.826-133.298c10.452-10.452 24.348-16.208 39.129-16.208 14.781,0 28.677,5.756 39.129,16.208 21.576,21.576 21.576,56.683 0,78.259l-39.129,39.129-39.13-39.129c-21.575-21.577-21.575-56.683 0.001-78.259z"/>
    <path d="m226.742,224.026c19.738,0 35.795-16.058 35.795-35.796s-16.058-35.796-35.795-35.796-35.796,16.058-35.796,35.796 16.058,35.796 35.796,35.796zm0-56.592c11.467,0 20.795,9.329 20.795,20.796s-9.329,20.796-20.795,20.796-20.796-9.329-20.796-20.796 9.329-20.796 20.796-20.796z"/>
  </g>
</svg>
