<?xml version='1.0' encoding='iso-8859-1'?>
<!DOCTYPE svg PUBLIC '-//W3C//DTD SVG 1.1//EN' 'http://www.w3.org/Graphics/SVG/1.1/DTD/svg11.dtd'>
<svg version="1.1" xmlns="http://www.w3.org/2000/svg" viewBox="0 0 443 443" xmlns:xlink="http://www.w3.org/1999/xlink" enable-background="new 0 0 443 443">
  <g>
    <path d="M326.637,0H116.363C95.761,0,79,16.761,79,37.363v368.273C79,426.239,95.761,443,116.363,443h210.273   C347.239,443,364,426.239,364,405.637V37.363C364,16.761,347.239,0,326.637,0z M116.363,15h210.273   C338.968,15,349,25.032,349,37.363V68H94V37.363C94,25.032,104.032,15,116.363,15z M349,83v277H94V83H349z M326.637,428H116.363   C104.032,428,94,417.968,94,405.637V375h255v30.637C349,417.968,338.968,428,326.637,428z"/>
    <path d="m221.5,278.506c31.434,0 57.006-25.573 57.006-57.006s-25.572-57.006-57.006-57.006-57.007,25.573-57.007,57.006 25.573,57.006 57.007,57.006zm0-99.012c23.162,0 42.006,18.844 42.006,42.006s-18.844,42.006-42.006,42.006c-23.163,0-42.007-18.844-42.007-42.006s18.844-42.006 42.007-42.006z"/>
    <path d="m221.5,247.793c14.498,0 26.293-11.795 26.293-26.293s-11.795-26.293-26.293-26.293-26.294,11.795-26.294,26.293 11.796,26.293 26.294,26.293zm0-37.586c6.227,0 11.293,5.066 11.293,11.293s-5.066,11.293-11.293,11.293c-6.228,0-11.294-5.066-11.294-11.293s5.066-11.293 11.294-11.293z"/>
    <path d="m120.57,244.491c0.778,3.412 3.813,5.833 7.313,5.833h9.405c1.208,3.528 2.642,6.983 4.29,10.34l-6.644,6.643c-2.475,2.475-2.908,6.333-1.045,9.296 8.207,13.049 19.446,24.292 32.504,32.513 2.963,1.866 6.822,1.432 9.3-1.043l6.648-6.649c3.354,1.647 6.808,3.08 10.334,4.288v9.404c0,3.5 2.421,6.534 5.833,7.313 7.479,1.705 15.215,2.57 22.991,2.57s15.512-0.865 22.991-2.57c3.412-0.778 5.833-3.813 5.833-7.313v-9.405c3.528-1.209 6.982-2.642 10.34-4.291l6.651,6.652c2.479,2.477 6.339,2.911 9.304,1.041 13.048-8.226 24.285-19.467 32.497-32.508 1.866-2.963 1.433-6.823-1.043-9.3l-6.649-6.649c1.647-3.355 3.08-6.808 4.288-10.334h9.404c3.5,0 6.534-2.421 7.313-5.833 1.705-7.481 2.57-15.217 2.57-22.991 0-7.774-0.865-15.51-2.57-22.991-0.778-3.412-3.813-5.833-7.313-5.833h-9.404c-1.208-3.526-2.641-6.979-4.288-10.334l6.649-6.649c2.476-2.476 2.909-6.336 1.043-9.3-8.212-13.041-19.449-24.282-32.497-32.508-2.965-1.869-6.825-1.435-9.304,1.041l-6.651,6.652c-3.357-1.649-6.812-3.082-10.34-4.291v-9.404c0-3.5-2.421-6.534-5.833-7.313-14.961-3.41-31.021-3.41-45.982,0-3.412,0.778-5.833,3.813-5.833,7.313v9.404c-3.526,1.208-6.979,2.641-10.334,4.288l-6.648-6.649c-2.477-2.475-6.336-2.91-9.3-1.043-13.058,8.221-24.297,19.464-32.504,32.513-1.863,2.963-1.43,6.821 1.045,9.296l6.644,6.643c-1.648,3.357-3.082,6.812-4.291,10.34h-9.404c-3.5,0-6.534,2.421-7.313,5.833-1.705,7.478-2.569,15.214-2.569,22.991 5.68434e-14,7.781 0.864,15.516 2.569,22.994zm13.504-36.815h8.757c3.389,0 6.355-2.272 7.24-5.543 1.643-6.077 4.077-11.944 7.235-17.44 1.689-2.938 1.198-6.644-1.198-9.041l-6.188-6.188c5.439-7.468 12.074-14.104 19.547-19.551l6.19,6.191c2.396,2.397 6.104,2.887 9.041,1.199 5.492-3.156 11.358-5.59 17.436-7.234 3.271-0.885 5.542-3.852 5.542-7.24v-8.756c9.092-1.427 18.557-1.427 27.648,0v8.756c0,3.388 2.271,6.355 5.542,7.24 6.078,1.644 11.945,4.078 17.44,7.237 2.937,1.688 6.643,1.198 9.04-1.199l6.193-6.193c7.469,5.449 14.104,12.086 19.546,19.551l-6.191,6.191c-2.396,2.396-2.888,6.102-1.199,9.04 3.157,5.494 5.591,11.361 7.233,17.436 0.885,3.271 3.853,5.542 7.24,5.542h8.756c0.714,4.546 1.074,9.175 1.074,13.824 0,4.649-0.36,9.278-1.074,13.824h-8.756c-3.388,0-6.355,2.272-7.24,5.542-1.643,6.075-4.076,11.942-7.233,17.436-1.688,2.938-1.196,6.644 1.199,9.04l6.191,6.191c-5.442,7.466-12.077,14.102-19.546,19.551l-6.192-6.193c-2.397-2.396-6.103-2.889-9.041-1.199-5.495,3.158-11.362,5.593-17.44,7.237-3.271,0.885-5.542,3.852-5.542,7.24v8.756c-9.092,1.427-18.557,1.427-27.648,0v-8.756c0-3.388-2.271-6.355-5.542-7.24-6.077-1.644-11.943-4.077-17.436-7.233-2.938-1.688-6.644-1.198-9.041,1.199l-6.19,6.191c-7.473-5.447-14.107-12.083-19.547-19.551l6.188-6.188c2.396-2.397 2.888-6.103 1.198-9.041-3.158-5.495-5.593-11.363-7.235-17.44-0.885-3.271-3.852-5.543-7.24-5.543h-8.757c-0.713-4.545-1.073-9.174-1.073-13.824s0.36-9.276 1.073-13.821z"/>
    <path d="m189.5,49h64c4.143,0 7.5-3.358 7.5-7.5s-3.357-7.5-7.5-7.5h-64c-4.143,0-7.5,3.358-7.5,7.5s3.357,7.5 7.5,7.5z"/>
    <path d="m221.5,378.6c-12.406,0-22.5,10.094-22.5,22.5s10.094,22.5 22.5,22.5 22.5-10.094 22.5-22.5-10.094-22.5-22.5-22.5zm0,30c-4.136,0-7.5-3.365-7.5-7.5s3.364-7.5 7.5-7.5 7.5,3.365 7.5,7.5-3.364,7.5-7.5,7.5z"/>
  </g>
</svg>
