<?xml version='1.0' encoding='iso-8859-1'?>
<!DOCTYPE svg PUBLIC '-//W3C//DTD SVG 1.1//EN' 'http://www.w3.org/Graphics/SVG/1.1/DTD/svg11.dtd'>
<svg version="1.1" xmlns="http://www.w3.org/2000/svg" viewBox="0 0 452.336 452.336" xmlns:xlink="http://www.w3.org/1999/xlink" enable-background="new 0 0 452.336 452.336">
  <g>
    <path d="m406.3,328.668h-360.265c-4.143,0-7.5,3.358-7.5,7.5s3.357,7.5 7.5,7.5h360.265c4.143,0 7.5-3.358 7.5-7.5s-3.358-7.5-7.5-7.5z"/>
    <path d="m346.171,353.668h-240.006c-4.143,0-7.5,3.358-7.5,7.5s3.357,7.5 7.5,7.5h240.006c4.143,0 7.5-3.358 7.5-7.5s-3.358-7.5-7.5-7.5z"/>
    <path d="m386.093,149.911c-42.718-42.718-99.514-66.243-159.925-66.243-60.412,0-117.208,23.526-159.925,66.243-42.718,42.718-66.243,99.514-66.243,159.925 0,4.142 3.357,7.5 7.5,7.5h21.936 393.464 21.936c4.143,0 7.5-3.358 7.5-7.5 5.68434e-14-60.411-23.525-117.207-66.243-159.925zm-91.74,102.35c11.64,13.764 19.197,31.083 20.784,50.076h-70.859l50.075-50.076zm-71.289,50.075h-85.866c3.822-45.737 42.263-81.788 88.97-81.788 21.923,0 42.021,7.947 57.578,21.104l-60.682,60.684zm107.119,0c-1.651-23.123-10.869-44.186-25.192-60.714l19.686-19.686c2.929-2.929 2.929-7.678 0-10.606-2.93-2.929-7.678-2.929-10.607,0l-19.685,19.686c-18.3-15.859-42.157-25.467-68.216-25.467-54.983,0-100.158,42.771-104.016,96.788h-85.07c0.458-11.702 1.997-23.13 4.495-34.198l23.337,6.257c0.65,0.174 1.304,0.258 1.947,0.258 3.311,0 6.341-2.209 7.239-5.56 1.072-4.001-1.301-8.114-5.302-9.187l-23.339-6.257c3.453-11.083 7.9-21.729 13.235-31.84l20.902,12.064c1.181,0.682 2.47,1.006 3.742,1.006 2.592,0 5.113-1.346 6.503-3.752 2.07-3.587 0.841-8.174-2.747-10.245l-20.881-12.052c6.175-9.745 13.217-18.886 21.015-27.322l17.038,17.03c1.464,1.463 3.383,2.195 5.302,2.195 1.92,0 3.84-0.733 5.305-2.198 2.928-2.93 2.927-7.678-0.003-10.607l-17.041-17.033c8.437-7.798 17.585-14.834 27.332-21.01l12.058,20.877c1.389,2.406 3.909,3.75 6.501,3.75 1.272,0 2.563-0.325 3.744-1.007 3.587-2.072 4.815-6.659 2.743-10.246l-12.073-20.904c10.112-5.336 20.766-9.775 31.851-13.228l6.257,23.336c0.898,3.35 3.929,5.56 7.239,5.56 0.644,0 1.297-0.083 1.947-0.258 4.001-1.073 6.374-5.186 5.302-9.187l-6.26-23.347c11.067-2.498 22.501-4.01 34.201-4.468v24.175c0,4.142 3.357,7.5 7.5,7.5s7.5-3.358 7.5-7.5v-24.174c11.7,0.458 23.134,1.97 34.2,4.469l-6.26,23.346c-1.072,4.001 1.301,8.114 5.302,9.187 0.65,0.174 1.304,0.258 1.947,0.258 3.311,0 6.341-2.209 7.239-5.56l6.257-23.334c11.085,3.454 21.74,7.893 31.853,13.23l-12.075,20.899c-2.072,3.586-0.845,8.174 2.742,10.246 1.182,0.683 2.472,1.007 3.745,1.007 2.591,0 5.111-1.345 6.501-3.75l12.06-20.873c9.743,6.175 18.889,13.208 27.323,21.004l-17.036,17.036c-2.929,2.929-2.929,7.678 0,10.606 1.465,1.464 3.385,2.197 5.304,2.197s3.839-0.732 5.304-2.197l17.03-17.03c7.796,8.434 14.836,17.573 21.011,27.316l-20.872,12.052c-3.588,2.071-4.816,6.658-2.745,10.246 1.39,2.406 3.91,3.751 6.502,3.751 1.272,0 2.563-0.324 3.743-1.006l20.891-12.063c5.338,10.113 9.786,20.763 13.24,31.849l-23.334,6.256c-4.001,1.073-6.374,5.186-5.302,9.187 0.898,3.351 3.928,5.56 7.239,5.56 0.643,0 1.297-0.083 1.947-0.258l23.332-6.255c2.498,11.068 4.037,22.495 4.495,34.197h-85.072zm100.065-.002c-3.962-109.152-93.978-196.733-204.08-196.733s-200.118,87.582-204.08,196.733h-6.957c3.961-112.981 97.107-203.668 211.037-203.668s207.076,90.687 211.037,203.668h-6.957z"/>
  </g>
</svg>
