<?xml version='1.0' encoding='iso-8859-1'?>
<!DOCTYPE svg PUBLIC '-//W3C//DTD SVG 1.1//EN' 'http://www.w3.org/Graphics/SVG/1.1/DTD/svg11.dtd'>
<svg version="1.1" xmlns="http://www.w3.org/2000/svg" viewBox="0 0 436.479 436.479" xmlns:xlink="http://www.w3.org/1999/xlink" enable-background="new 0 0 436.479 436.479">
  <g>
    <path d="m101.706,240.74c12.407,0 22.5-10.093 22.5-22.5s-10.093-22.5-22.5-22.5-22.5,10.093-22.5,22.5 10.093,22.5 22.5,22.5zm0-30c4.136,0 7.5,3.364 7.5,7.5s-3.364,7.5-7.5,7.5-7.5-3.364-7.5-7.5 3.364-7.5 7.5-7.5z"/>
    <path d="m428.979,96.783h-354.351c-4.142,0-7.5,3.358-7.5,7.5 0,32.879-26.749,59.628-59.628,59.628-4.142,0-7.5,3.358-7.5,7.5v93.656c0,4.142 3.358,7.5 7.5,7.5 32.879,0 59.628,26.749 59.628,59.628 0,4.142 3.358,7.5 7.5,7.5h354.351c4.143,0 7.5-3.358 7.5-7.5v-227.912c0-4.142-3.357-7.5-7.5-7.5zm-7.5,227.913h-339.725c-3.527-35.173-31.581-63.227-66.754-66.754v-79.404c35.173-3.527 63.227-31.581 66.754-66.754h339.725v212.912z"/>
    <path d="m33.383,188.116c-3.141,0.972-5.283,3.876-5.283,7.165v45.917c0,3.288 2.142,6.193 5.283,7.165 27.71,8.576 49.374,30.24 57.95,57.95 0.972,3.141 3.876,5.283 7.165,5.283h302.382c4.143,0 7.5-3.358 7.5-7.5v-171.712c0-4.142-3.357-7.5-7.5-7.5h-302.382c-3.288,0-6.193,2.142-7.165,5.283-8.576,27.71-30.239,49.373-57.95,57.949zm70.487-48.232h289.51v156.711h-289.51c-10.413-28.164-32.606-50.356-60.77-60.77v-35.173c28.164-10.412 50.357-32.605 60.77-60.768z"/>
    <path d="m164.711,184.406h192.077c4.143,0 7.5-3.358 7.5-7.5s-3.357-7.5-7.5-7.5h-192.077c-4.142,0-7.5,3.358-7.5,7.5s3.358,7.5 7.5,7.5z"/>
    <path d="m164.711,225.74h192.077c4.143,0 7.5-3.358 7.5-7.5s-3.357-7.5-7.5-7.5h-192.077c-4.142,0-7.5,3.358-7.5,7.5s3.358,7.5 7.5,7.5z"/>
    <path d="m164.711,267.073h192.077c4.143,0 7.5-3.358 7.5-7.5s-3.357-7.5-7.5-7.5h-192.077c-4.142,0-7.5,3.358-7.5,7.5s3.358,7.5 7.5,7.5z"/>
  </g>
</svg>
