<?xml version="1.0" encoding="iso-8859-1"?>
<!-- Generator: Adobe Illustrator 19.0.0, SVG Export Plug-In . SVG Version: 6.00 Build 0)  -->
<svg version="1.1" id="Capa_1" xmlns="http://www.w3.org/2000/svg" xmlns:xlink="http://www.w3.org/1999/xlink" x="0px" y="0px"
	 viewBox="0 0 512 512" style="enable-background:new 0 0 512 512;" xml:space="preserve">
<g>
	<g>
		<path d="M256,439.011c-14.748,0-26.747,11.999-26.747,26.747s11.998,26.747,26.747,26.747c14.748,0,26.747-11.999,26.747-26.747
			C282.747,451.01,270.748,439.011,256,439.011z M256,477.916c-6.704,0-12.158-5.454-12.158-12.158
			c0-6.704,5.454-12.158,12.158-12.158s12.158,5.454,12.158,12.158C268.159,472.462,262.704,477.916,256,477.916z"/>
	</g>
</g>
<g>
	<g>
		<path d="M409.471,84.822c4.029,0,7.294-3.265,7.294-7.295V29.901c0-16.488-13.413-29.901-29.9-29.901H125.135
			c-16.487,0-29.9,13.413-29.9,29.901v452.198c0,16.488,13.413,29.901,29.9,29.901h261.729c16.487,0,29.9-13.413,29.9-29.901
			V123.631c0-4.029-3.266-7.295-7.294-7.295c-4.029,0-7.295,3.265-7.295,7.295v358.468c0,8.443-6.868,15.312-15.311,15.312H125.135
			c-8.443,0-15.311-6.869-15.311-15.312V29.901c0-8.443,6.869-15.312,15.311-15.312h261.729c8.443,0,15.311,6.869,15.311,15.312
			v47.627C402.177,81.557,405.443,84.822,409.471,84.822z"/>
	</g>
</g>
<g>
	<g>
		<path d="M369.925,28.627h-227.85c-9.175,0-16.64,7.465-16.64,16.64V416.86c0,9.175,7.465,16.64,16.64,16.64h227.851
			c9.174,0,16.639-7.465,16.639-16.64V45.267C386.565,36.092,379.101,28.627,369.925,28.627z M371.977,416.86
			c0,1.13-0.92,2.051-2.051,2.051h-227.85c-1.131,0-2.051-0.921-2.051-2.051V76.555h231.952V416.86z M371.977,61.966H140.024V45.267
			c0-1.13,0.92-2.051,2.051-2.051h227.851c1.131,0,2.051,0.92,2.051,2.051V61.966z"/>
	</g>
</g>
<g>
	<g>
		<path d="M316.455,192.87c-9.793-9.793-21.551-16.898-34.377-20.989v-16.559h14.249c3.115,0,5.998-1.816,7.342-4.627
			c1.345-2.81,0.951-6.195-1.007-8.623l-40.323-49.978c-1.552-1.928-3.863-3.035-6.338-3.035c-2.475,0-4.786,1.107-6.334,3.03
			l-40.33,49.985c-1.955,2.426-2.349,5.81-1.004,8.62c1.344,2.81,4.227,4.627,7.342,4.627h14.249v16.559
			c-12.826,4.091-24.584,11.196-34.377,20.989c-33.334,33.334-33.334,87.574,0,120.908c16.668,16.668,38.561,25.001,60.454,25.001
			s43.786-8.334,60.454-25C349.789,280.444,349.789,226.204,316.455,192.87z M229.165,140.733L256,107.472l26.836,33.261h-7.209
			c-4.488,0-8.139,3.651-8.139,8.14v19.735c-0.159-0.021-0.319-0.036-0.478-0.056c-1.419-0.181-2.845-0.327-4.279-0.438
			c-0.468-0.037-0.936-0.074-1.404-0.103c-0.674-0.041-1.349-0.076-2.026-0.101c-0.607-0.023-1.215-0.034-1.822-0.044
			c-0.493-0.008-0.984-0.036-1.479-0.036s-0.985,0.028-1.479,0.036c-0.607,0.01-1.215,0.021-1.822,0.044
			c-0.677,0.026-1.352,0.06-2.026,0.101c-0.469,0.029-0.936,0.066-1.404,0.103c-1.434,0.111-2.86,0.257-4.279,0.438
			c-0.159,0.02-0.319,0.035-0.478,0.056v-19.735c0-4.489-3.652-8.14-8.139-8.14H229.165z M306.138,303.461
			c-27.647,27.645-72.63,27.646-100.276,0c-27.644-27.645-27.644-72.628,0.001-100.274c9.197-9.197,20.476-15.556,32.774-18.638
			c0.109-0.022,0.218-0.034,0.326-0.061c1.375-0.339,2.76-0.635,4.152-0.89c0.096-0.018,0.193-0.033,0.289-0.05
			c1.157-0.207,2.319-0.383,3.484-0.532c0.313-0.04,0.626-0.08,0.94-0.115c0.622-0.071,1.245-0.138,1.869-0.193
			c0.709-0.062,1.419-0.115,2.132-0.156c0.501-0.029,1.003-0.049,1.505-0.068c0.55-0.02,1.102-0.033,1.654-0.04
			c0.675-0.009,1.35-0.009,2.025,0c0.552,0.008,1.104,0.02,1.654,0.04c0.502,0.019,1.003,0.038,1.505,0.068
			c0.713,0.041,1.423,0.094,2.132,0.156c0.624,0.055,1.247,0.121,1.869,0.193c0.314,0.036,0.627,0.075,0.94,0.115
			c1.165,0.149,2.327,0.325,3.484,0.532c0.096,0.017,0.193,0.032,0.289,0.05c1.392,0.255,2.777,0.552,4.152,0.89
			c0.104,0.026,0.21,0.037,0.314,0.057c12.303,3.081,23.586,9.441,32.786,18.641C333.783,230.832,333.783,275.815,306.138,303.461z"
			/>
	</g>
</g>
<g>
	<g>
		<path d="M341.265,383.897H233.753c-4.029,0-7.295,3.265-7.295,7.294s3.266,7.295,7.295,7.295h107.512
			c4.029,0,7.294-3.265,7.294-7.295C348.56,387.162,345.294,383.897,341.265,383.897z"/>
	</g>
</g>
<g>
	<g>
		<path d="M187.675,383.897h-12.401c-4.029,0-7.294,3.265-7.294,7.294s3.266,7.295,7.294,7.295h12.401
			c4.029,0,7.295-3.265,7.295-7.295C194.971,387.162,191.704,383.897,187.675,383.897z"/>
	</g>
</g>
<g>
	<g>
		<path d="M341.265,355.368h-165.99c-4.029,0-7.294,3.265-7.294,7.294s3.266,7.295,7.294,7.295h165.99
			c4.029,0,7.294-3.265,7.294-7.295C348.56,358.633,345.294,355.368,341.265,355.368z"/>
	</g>
</g>
<g>
	<g>
		<path d="M261.313,247.875v-25.373c8.75,0.625,11.999,4.625,14.999,4.625c3.75,0,5.5-4.749,5.5-7.124
			c0-6.124-11.999-8.749-20.498-8.999v-3.375c0-1.5-1.875-2.875-3.75-2.875c-2.125,0-3.625,1.375-3.625,2.875v3.625
			c-11.874,1.25-23.748,7.499-23.748,23.248c0,15.999,12.499,20.498,23.748,24.498v29.372c-12.749-0.999-16.123-9.749-20.248-9.749
			c-3.125,0-5.75,4.125-5.75,7.125c0,6.124,10.499,14.499,25.998,14.749h-0.001v3.874c0,1.5,1.5,2.875,3.625,2.875
			c1.875,0,3.75-1.375,3.75-2.875v-4.25c13.499-1.875,22.748-10.374,22.748-25.748C284.06,257.374,272.186,251.875,261.313,247.875z
			 M254.688,245.501c-6.625-2.5-11.999-5.125-11.999-12.249c0-6.5,4.999-9.624,11.999-10.499V245.501z M260.563,288.123V261.75
			c6.125,2.624,10.999,6.124,10.999,13.999C271.562,282.873,267.313,286.873,260.563,288.123z"/>
	</g>
</g>
<g>
</g>
<g>
</g>
<g>
</g>
<g>
</g>
<g>
</g>
<g>
</g>
<g>
</g>
<g>
</g>
<g>
</g>
<g>
</g>
<g>
</g>
<g>
</g>
<g>
</g>
<g>
</g>
<g>
</g>
</svg>
