<?xml version="1.0" encoding="iso-8859-1"?>
<!-- Generator: Adobe Illustrator 19.0.0, SVG Export Plug-In . SVG Version: 6.00 Build 0)  -->
<svg version="1.1" id="Capa_1" xmlns="http://www.w3.org/2000/svg" xmlns:xlink="http://www.w3.org/1999/xlink" x="0px" y="0px"
	 viewBox="0 0 512 512" style="enable-background:new 0 0 512 512;" xml:space="preserve">
<g>
	<g>
		<path d="M398.506,113.495c-78.578-78.576-206.433-78.576-285.011,0c-78.577,78.578-78.577,206.433,0,285.011
			c39.289,39.288,90.898,58.932,142.506,58.932c51.608,0,103.216-19.644,142.505-58.932
			C477.083,319.928,477.083,192.073,398.506,113.495z M388.188,388.188C352.88,423.497,305.934,442.943,256,442.943
			c-49.934,0-96.88-19.446-132.188-54.755C88.503,352.88,69.057,305.934,69.057,256c0-49.934,19.446-96.88,54.755-132.188
			C159.12,88.503,206.066,69.057,256,69.057s96.88,19.446,132.188,54.755c35.309,35.308,54.755,82.254,54.755,132.188
			S423.497,352.88,388.188,388.188z"/>
	</g>
</g>
<g>
	<g>
		<path d="M416.675,56.692c-3.138-2.532-7.73-2.04-10.259,1.094c-2.53,3.136-2.04,7.728,1.094,10.259
			c57.133,46.114,89.9,114.621,89.9,187.955c0,64.483-25.111,125.106-70.707,170.703C381.106,472.299,320.483,497.41,256,497.41
			c-40.426,0-80.421-10.186-115.658-29.456c-3.538-1.936-7.969-0.635-9.901,2.9c-1.933,3.535-0.635,7.968,2.9,9.901
			C170.72,501.196,213.135,512,256,512c68.38,0,132.667-26.629,181.019-74.981C485.371,388.667,512,324.38,512,256
			C512,178.235,477.255,105.59,416.675,56.692z"/>
	</g>
</g>
<g>
	<g>
		<path d="M376.928,30.307C339.999,10.48,298.182,0,256,0C187.62,0,123.333,26.629,74.981,74.981S0,187.62,0,256
			c0,76.947,34.149,149.107,93.691,197.978c1.356,1.114,2.995,1.657,4.624,1.657c2.108,0,4.2-0.91,5.642-2.667
			c2.557-3.115,2.105-7.711-1.009-10.267C46.795,396.612,14.59,328.562,14.59,256c0-64.483,25.111-125.106,70.707-170.703
			C130.894,39.701,191.517,14.59,256,14.59c39.782,0,79.212,9.88,114.026,28.571c3.552,1.908,7.974,0.574,9.878-2.976
			C381.81,36.635,380.478,32.213,376.928,30.307z"/>
	</g>
</g>
<g>
	<g>
		<path d="M256,21.585c-4.029,0-7.295,3.266-7.295,7.295v11.709c0,4.029,3.266,7.295,7.295,7.295s7.295-3.266,7.295-7.295V28.88
			C263.295,24.851,260.029,21.585,256,21.585z"/>
	</g>
</g>
<g>
	<g>
		<path d="M256,464.116c-4.029,0-7.295,3.265-7.295,7.295v11.709c0,4.029,3.266,7.295,7.295,7.295s7.295-3.266,7.295-7.295v-11.709
			C263.295,467.382,260.029,464.116,256,464.116z"/>
	</g>
</g>
<g>
	<g>
		<path d="M483.12,248.705h-11.709c-4.029,0-7.295,3.266-7.295,7.295s3.266,7.295,7.295,7.295h11.709
			c4.029,0,7.295-3.266,7.295-7.295C490.415,251.971,487.149,248.705,483.12,248.705z"/>
	</g>
</g>
<g>
	<g>
		<path d="M40.589,248.705H28.88c-4.029,0-7.295,3.266-7.295,7.295s3.266,7.295,7.295,7.295h11.709c4.03,0,7.295-3.266,7.295-7.295
			S44.618,248.705,40.589,248.705z"/>
	</g>
</g>
<g>
	<g>
		<path d="M421.757,90.243c-2.85-2.848-7.468-2.848-10.318,0l-8.279,8.279c-2.849,2.85-2.849,7.468,0,10.318
			c1.425,1.424,3.292,2.136,5.159,2.136c1.866,0,3.734-0.712,5.159-2.136l8.279-8.279C424.606,97.711,424.606,93.093,421.757,90.243
			z"/>
	</g>
</g>
<g>
	<g>
		<path d="M108.84,403.16c-2.85-2.848-7.468-2.848-10.318,0l-8.279,8.279c-2.849,2.85-2.849,7.468,0,10.318
			c1.425,1.424,3.292,2.136,5.159,2.136c1.867,0,3.734-0.712,5.159-2.136l8.279-8.279C111.689,410.628,111.689,406.01,108.84,403.16
			z"/>
	</g>
</g>
<g>
	<g>
		<path d="M421.757,411.439l-8.279-8.279c-2.85-2.848-7.468-2.848-10.318,0c-2.849,2.85-2.849,7.468,0,10.318l8.279,8.279
			c1.425,1.424,3.292,2.136,5.159,2.136c1.866,0,3.734-0.712,5.159-2.136C424.606,418.907,424.606,414.289,421.757,411.439z"/>
	</g>
</g>
<g>
	<g>
		<path d="M108.84,98.522l-8.279-8.279c-2.85-2.847-7.468-2.847-10.318,0c-2.849,2.85-2.849,7.468,0,10.318l8.279,8.279
			c1.425,1.424,3.292,2.136,5.159,2.136c1.867,0,3.734-0.712,5.159-2.136C111.689,105.99,111.689,101.372,108.84,98.522z"/>
	</g>
</g>
<g>
	<g>
		<path d="M350.176,41.333c-3.687-1.615-7.993,0.061-9.612,3.75l-4.705,10.722c-1.619,3.689,0.06,7.992,3.749,9.612
			c0.954,0.418,1.948,0.616,2.928,0.616c2.807,0,5.484-1.63,6.684-4.366l4.705-10.722C355.544,47.256,353.865,42.953,350.176,41.333
			z"/>
	</g>
</g>
<g>
	<g>
		<path d="M172.392,446.582c-3.688-1.615-7.993,0.06-9.612,3.75l-4.705,10.722c-1.619,3.689,0.06,7.992,3.749,9.612
			c0.954,0.418,1.948,0.616,2.928,0.616c2.807,0,5.484-1.63,6.684-4.366l4.705-10.722
			C177.76,452.505,176.081,448.202,172.392,446.582z"/>
	</g>
</g>
<g>
	<g>
		<path d="M466.917,340.563l-10.722-4.704c-3.69-1.618-7.993,0.059-9.612,3.749c-1.619,3.689,0.06,7.992,3.749,9.612l10.722,4.705
			c0.954,0.418,1.948,0.616,2.928,0.616c2.807,0,5.484-1.63,6.684-4.366C472.285,346.486,470.606,342.183,466.917,340.563z"/>
	</g>
</g>
<g>
	<g>
		<path d="M61.668,162.779l-10.722-4.705c-3.686-1.616-7.992,0.06-9.612,3.749c-1.619,3.689,0.06,7.992,3.749,9.612l10.722,4.705
			c0.954,0.419,1.949,0.617,2.928,0.617c2.808,0,5.484-1.63,6.684-4.366C67.036,168.702,65.357,164.399,61.668,162.779z"/>
	</g>
</g>
<g>
	<g>
		<path d="M474.383,170.8c-1.463-3.752-5.693-5.606-9.447-4.145l-10.908,4.255c-3.754,1.465-5.609,5.695-4.145,9.447
			c1.125,2.883,3.88,4.646,6.798,4.646c0.882,0,1.778-0.161,2.649-0.501l10.908-4.255
			C473.992,178.782,475.847,174.552,474.383,170.8z"/>
	</g>
</g>
<g>
	<g>
		<path d="M62.116,331.642c-1.465-3.754-5.694-5.606-9.447-4.145l-10.908,4.255c-3.754,1.465-5.609,5.695-4.145,9.448
			c1.125,2.882,3.88,4.645,6.798,4.645c0.881,0,1.778-0.161,2.649-0.501l10.908-4.255C61.725,339.624,63.58,335.394,62.116,331.642z
			"/>
	</g>
</g>
<g>
	<g>
		<path d="M345.344,464.936l-4.255-10.908c-1.464-3.754-5.693-5.608-9.447-4.145c-3.754,1.465-5.609,5.695-4.145,9.448l4.255,10.908
			c1.125,2.883,3.88,4.646,6.798,4.646c0.881,0,1.778-0.161,2.649-0.501C344.953,472.919,346.808,468.689,345.344,464.936z"/>
	</g>
</g>
<g>
	<g>
		<path d="M184.503,52.669l-4.255-10.908c-1.465-3.753-5.693-5.607-9.447-4.145c-3.754,1.465-5.609,5.695-4.145,9.447l4.255,10.908
			c1.125,2.883,3.88,4.646,6.798,4.646c0.881,0,1.778-0.161,2.649-0.501C184.112,60.651,185.967,56.421,184.503,52.669z"/>
	</g>
</g>
<g>
	<g>
		<path d="M327.007,337.568h-74.365c-0.805,0-1.438-0.371-1.834-1.074c-0.144-0.257-0.219-0.431-0.257-0.534
			c0.043-0.107,0.128-0.289,0.291-0.559c9.532-15.659,9.945-40.335,8.832-51.195c-0.06-0.58,0.131-1.163,0.526-1.6
			c0.4-0.443,0.972-0.698,1.57-0.698h35.069c14.135,0,25.635-11.5,25.635-25.635s-11.5-25.635-25.635-25.635h-45.607
			c-0.902,0-1.702-0.571-1.99-1.421c-8.59-25.353-8.798-43.991-0.621-55.395c6.607-9.214,18.804-13.886,36.249-13.886
			c6.208,0,17.242,1.578,25.499,3.055c1.533,0.274,3.094,0.413,4.641,0.413c12.416,0,23.142-8.823,25.504-20.978
			c1.373-7.058-0.175-14.168-4.36-20.021c-4.201-5.874-10.461-9.653-17.625-10.64c-10.023-1.382-24.47-3.218-34.18-3.218
			c-34,0-59.289,9.728-75.164,28.915c-24.533,29.646-19.471,73.306-16.156,90.701c0.118,0.616-0.04,1.223-0.442,1.709
			c-0.408,0.494-0.985,0.765-1.626,0.765h-12.583c-13.873,0-25.16,11.287-25.16,25.16c0,13.873,11.287,25.16,25.16,25.16h23.061
			c0.875,0,1.687,0.565,1.979,1.376c4.834,13.425,2.077,26.72-8.429,40.644c-8.92,11.824-21.451,21.138-30.389,26.869
			c-7.36,4.716-11.755,12.749-11.755,21.489c0,13.263,10.497,22.526,25.526,22.526h148.637c17.75,0,30.147-11.163,30.146-27.146
			C357.154,350.371,343.912,337.568,327.007,337.568z M327.008,378.861H178.371c-3.931,0-10.526-0.977-10.526-7.526
			c0-3.603,1.812-6.915,4.849-8.861c9.972-6.393,24.012-16.867,34.27-30.463c13.602-18.03,17.158-36.453,10.567-54.758
			c-2.431-6.757-8.898-11.296-16.092-11.296h-23.061c-5.602,0-10.16-4.558-10.16-10.16s4.557-10.16,10.16-10.16h12.583
			c5.118,0,9.923-2.262,13.184-6.203c3.255-3.934,4.574-9.065,3.619-14.078c-8.757-45.959,6.159-70.09,12.979-78.331
			c12.889-15.579,34.291-23.478,63.607-23.478c9.804,0,26.61,2.316,32.131,3.077c3.04,0.419,5.695,2.02,7.473,4.506
			c1.763,2.466,2.415,5.46,1.837,8.434c-0.995,5.122-5.529,8.84-10.78,8.84c-0.663,0-1.336-0.061-1.999-0.179
			c-5.529-0.989-19.338-3.289-28.14-3.289c-22.556,0-38.853,6.778-48.438,20.146c-11.157,15.557-11.626,38.755-1.396,68.949
			c2.353,6.942,8.862,11.606,16.196,11.606h45.607c5.864,0,10.635,4.771,10.635,10.635s-4.771,10.635-10.635,10.635h-35.069
			c-4.835,0-9.465,2.058-12.705,5.647c-3.232,3.581-4.804,8.385-4.313,13.18c1.046,10.199,0.144,30.585-6.724,41.868
			c-3.251,5.344-3.351,10.808-0.296,16.24c3.069,5.463,8.642,8.725,14.909,8.725h74.365c8.635,0,15.147,6.082,15.147,14.147
			C342.155,372.586,338.176,378.861,327.008,378.861z"/>
	</g>
</g>
<g>
</g>
<g>
</g>
<g>
</g>
<g>
</g>
<g>
</g>
<g>
</g>
<g>
</g>
<g>
</g>
<g>
</g>
<g>
</g>
<g>
</g>
<g>
</g>
<g>
</g>
<g>
</g>
<g>
</g>
</svg>
