<?xml version="1.0" encoding="iso-8859-1"?>
<!-- Generator: Adobe Illustrator 19.0.0, SVG Export Plug-In . SVG Version: 6.00 Build 0)  -->
<svg version="1.1" id="Capa_1" xmlns="http://www.w3.org/2000/svg" xmlns:xlink="http://www.w3.org/1999/xlink" x="0px" y="0px"
	 viewBox="0 0 512 512" style="enable-background:new 0 0 512 512;" xml:space="preserve">
<g>
	<g>
		<path d="M398.505,113.495C360.441,75.43,309.832,54.467,256,54.467c-53.831,0-104.441,20.963-142.505,59.027
			c-78.578,78.578-78.578,206.433,0,285.011c38.064,38.064,88.674,59.027,142.505,59.027
			c53.832,0.001,104.441-20.962,142.505-59.026C477.082,319.928,477.082,192.073,398.505,113.495z M388.188,388.188
			C352.88,423.497,305.934,442.943,256,442.943c-49.934,0-96.88-19.446-132.188-54.755c-72.889-72.889-72.889-191.487,0-264.376
			C159.12,88.503,206.066,69.057,256,69.057s96.88,19.446,132.188,54.755C461.077,196.701,461.077,315.299,388.188,388.188z"/>
	</g>
</g>
<g>
	<g>
		<path d="M416.675,56.692c-3.135-2.53-7.727-2.041-10.258,1.094c-2.53,3.136-2.04,7.728,1.095,10.259
			C464.643,114.16,497.41,182.667,497.41,256c0,64.483-25.111,125.106-70.707,170.703C381.106,472.299,320.483,497.41,256,497.41
			c-40.426,0-80.421-10.186-115.659-29.456c-3.535-1.934-7.968-0.635-9.901,2.9c-1.933,3.535-0.635,7.968,2.9,9.901
			C170.719,501.196,213.134,512,256,512c68.38,0,132.667-26.629,181.019-74.981C485.371,388.667,512,324.38,512,256
			C512,178.234,477.255,105.59,416.675,56.692z"/>
	</g>
</g>
<g>
	<g>
		<path d="M376.928,30.307C339.998,10.48,298.182,0,256,0C187.62,0,123.333,26.629,74.981,74.981S0,187.62,0,256
			c0,76.948,34.149,149.107,93.69,197.978c1.357,1.114,2.995,1.657,4.624,1.657c2.109,0,4.201-0.91,5.643-2.667
			c2.557-3.115,2.104-7.711-1.01-10.267C46.795,396.612,14.591,328.562,14.591,256c0-64.483,25.111-125.106,70.707-170.703
			C130.894,39.701,191.517,14.59,256,14.59c39.782,0,79.211,9.88,114.026,28.571c3.55,1.907,7.973,0.574,9.878-2.976
			C381.81,36.635,380.477,32.213,376.928,30.307z"/>
	</g>
</g>
<g>
	<g>
		<path d="M256,21.585c-4.029,0-7.295,3.266-7.295,7.295v11.709c0,4.029,3.266,7.295,7.295,7.295s7.295-3.266,7.295-7.295V28.88
			C263.295,24.851,260.029,21.585,256,21.585z"/>
	</g>
</g>
<g>
	<g>
		<path d="M256,464.116c-4.029,0-7.295,3.265-7.295,7.295v11.709c0,4.029,3.266,7.295,7.295,7.295s7.295-3.266,7.295-7.295v-11.709
			C263.295,467.382,260.029,464.116,256,464.116z"/>
	</g>
</g>
<g>
	<g>
		<path d="M483.12,248.705h-11.709c-4.029,0-7.295,3.266-7.295,7.295s3.266,7.295,7.295,7.295h11.709
			c4.029,0,7.295-3.266,7.295-7.295C490.415,251.971,487.149,248.705,483.12,248.705z"/>
	</g>
</g>
<g>
	<g>
		<path d="M40.589,248.705H28.88c-4.029,0-7.295,3.266-7.295,7.295s3.266,7.295,7.295,7.295h11.709c4.029,0,7.295-3.266,7.295-7.295
			S44.618,248.705,40.589,248.705z"/>
	</g>
</g>
<g>
	<g>
		<path d="M421.756,90.243c-2.849-2.848-7.468-2.848-10.317,0l-8.279,8.279c-2.849,2.85-2.849,7.468,0,10.318
			c1.425,1.424,3.292,2.136,5.159,2.136s3.734-0.712,5.158-2.136l8.279-8.279C424.605,97.711,424.605,93.093,421.756,90.243z"/>
	</g>
</g>
<g>
	<g>
		<path d="M108.839,403.16c-2.848-2.848-7.467-2.848-10.316,0l-8.279,8.279c-2.849,2.85-2.849,7.468,0,10.318
			c1.424,1.424,3.291,2.136,5.158,2.136c1.867,0,3.734-0.712,5.158-2.136l8.279-8.279
			C111.688,410.628,111.688,406.01,108.839,403.16z"/>
	</g>
</g>
<g>
	<g>
		<path d="M421.755,411.439l-8.279-8.279c-2.848-2.848-7.467-2.848-10.316,0c-2.849,2.85-2.849,7.468,0,10.318l8.279,8.279
			c1.424,1.424,3.291,2.136,5.158,2.136s3.734-0.712,5.158-2.136C424.604,418.907,424.604,414.289,421.755,411.439z"/>
	</g>
</g>
<g>
	<g>
		<path d="M108.839,98.522l-8.279-8.279c-2.848-2.847-7.468-2.847-10.316,0c-2.849,2.85-2.849,7.468,0,10.318l8.279,8.279
			c1.424,1.424,3.291,2.136,5.158,2.136c1.867,0,3.734-0.712,5.158-2.136C111.688,105.99,111.688,101.372,108.839,98.522z"/>
	</g>
</g>
<g>
	<g>
		<path d="M350.174,41.333c-3.689-1.615-7.992,0.061-9.611,3.751l-4.704,10.722c-1.619,3.689,0.06,7.992,3.75,9.611
			c0.954,0.418,1.948,0.616,2.927,0.616c2.808,0,5.484-1.63,6.684-4.367l4.704-10.722C355.543,47.255,353.864,42.952,350.174,41.333
			z"/>
	</g>
</g>
<g>
	<g>
		<path d="M172.39,446.582c-3.689-1.616-7.992,0.061-9.611,3.751l-4.704,10.722c-1.619,3.689,0.06,7.992,3.75,9.611
			c0.954,0.418,1.948,0.616,2.927,0.616c2.808,0,5.484-1.63,6.684-4.367l4.704-10.722
			C177.759,452.504,176.08,448.201,172.39,446.582z"/>
	</g>
</g>
<g>
	<g>
		<path d="M466.917,340.563l-10.722-4.704c-3.692-1.617-7.992,0.06-9.612,3.749c-1.619,3.689,0.06,7.992,3.749,9.612l10.722,4.705
			c0.954,0.418,1.949,0.616,2.928,0.616c2.807,0,5.484-1.63,6.684-4.366C472.285,346.486,470.606,342.183,466.917,340.563z"/>
	</g>
</g>
<g>
	<g>
		<path d="M61.668,162.779l-10.722-4.705c-3.691-1.616-7.992,0.06-9.612,3.749c-1.619,3.689,0.06,7.992,3.749,9.612l10.722,4.705
			c0.955,0.419,1.949,0.617,2.928,0.617c2.807,0,5.484-1.63,6.684-4.366C67.036,168.702,65.357,164.399,61.668,162.779z"/>
	</g>
</g>
<g>
	<g>
		<path d="M474.383,170.8c-1.464-3.753-5.694-5.607-9.447-4.145l-10.908,4.255c-3.753,1.465-5.609,5.695-4.145,9.447
			c1.125,2.883,3.88,4.646,6.798,4.646c0.882,0,1.779-0.161,2.649-0.501l10.908-4.255
			C473.991,178.782,475.848,174.552,474.383,170.8z"/>
	</g>
</g>
<g>
	<g>
		<path d="M62.116,331.642c-1.464-3.753-5.695-5.606-9.447-4.145l-10.908,4.255c-3.753,1.465-5.61,5.695-4.145,9.448
			c1.125,2.882,3.88,4.645,6.798,4.645c0.881,0,1.779-0.161,2.649-0.501l10.908-4.255C61.724,339.624,63.581,335.394,62.116,331.642
			z"/>
	</g>
</g>
<g>
	<g>
		<path d="M345.345,464.936l-4.256-10.908c-1.464-3.754-5.693-5.608-9.448-4.145c-3.753,1.465-5.609,5.695-4.144,9.448l4.256,10.908
			c1.124,2.883,3.88,4.646,6.798,4.646c0.882,0,1.779-0.161,2.65-0.501C344.954,472.919,346.81,468.689,345.345,464.936z"/>
	</g>
</g>
<g>
	<g>
		<path d="M184.504,52.669l-4.256-10.908c-1.465-3.753-5.693-5.605-9.448-4.145c-3.753,1.465-5.609,5.695-4.144,9.447l4.256,10.908
			c1.124,2.883,3.88,4.646,6.798,4.646c0.881,0,1.779-0.161,2.65-0.501C184.113,60.651,185.969,56.421,184.504,52.669z"/>
	</g>
</g>
<g>
	<g>
		<g>
			<path d="M246.556,151.325c-1.837-1.421-4.226-1.912-6.475-1.326c-21.149,5.495-32.796,18.952-32.796,37.892
				c0,10.392,3.25,19.241,9.661,26.303c5.045,5.557,11.834,10.023,22.012,14.482c0.964,0.422,1.988,0.63,3.009,0.63
				c1.436,0,2.865-0.412,4.105-1.223c2.119-1.384,3.396-3.746,3.396-6.277v-64.548C249.468,154.936,248.392,152.745,246.556,151.325
				z M234.467,209.416c-8.719-5.705-12.182-12.168-12.182-21.525c0-3.633,0.001-13.403,12.182-19.846V209.416z"/>
			<path d="M275.973,270.511c-2.322-1.053-5.018-0.854-7.161,0.525c-2.143,1.381-3.437,3.756-3.437,6.305v79.864
				c0,2.284,1.04,4.443,2.827,5.866c1.341,1.069,2.992,1.634,4.673,1.634c0.559,0,1.122-0.062,1.677-0.189
				c23.943-5.493,37.129-21.491,37.129-45.047C311.681,290.431,292.598,278.051,275.973,270.511z M280.375,346.835v-57.026
				c10.084,6.498,16.306,15.082,16.306,29.66C296.681,332.724,291.327,341.748,280.375,346.835z"/>
			<path d="M325.566,253.764c-12.797-11.9-29.067-19.459-45.191-25.632v-64.991c10.254,1.841,17.234,5.332,23.066,8.248
				c5.406,2.704,10.075,5.039,15.444,5.039c15.793,0,24.528-17.477,24.528-29.558c0-8.273-4.618-19.801-26.617-27.734
				c-10.176-3.67-23.171-6.223-36.496-7.224c-0.944-11.796-10.845-21.107-22.88-21.107c-12.657,0-22.954,10.297-22.954,22.954v0.865
				c-41.971,9.116-65.881,36.944-65.881,77.137c0,51.145,39.181,68.455,65.881,78.349v77.988
				c-12.681-3.99-20.876-10.957-27.697-16.757c-6.61-5.619-12.318-10.472-19.849-10.472c-14.015,0-25.301,16.171-25.301,29.56
				c0,21.543,28.988,46.668,72.869,52.106c0.525,12.195,10.611,21.956,22.933,21.956c12.657,0,22.954-10.297,22.953-22.954v-0.341
				c20.005-3.964,36.707-12.706,48.582-25.485c14.215-15.298,21.423-35.652,21.423-60.499
				C350.379,289.389,342.263,269.288,325.566,253.764z M271.817,387.441c-3.695,0.527-6.441,3.692-6.441,7.425v6.671
				c0,4.386-3.568,7.954-7.954,7.954s-7.954-3.568-7.954-7.954v-5.799c0-3.928-3.032-7.191-6.95-7.479
				c-18.719-1.377-36.177-7.007-49.159-15.854c-10.169-6.929-16.739-15.555-16.739-21.976c0-6.259,5.872-14.56,10.301-14.56
				c2.017,0,6.143,3.508,10.132,6.897c9.162,7.789,21.709,18.456,43.645,22.221c2.181,0.378,4.413-0.233,6.103-1.657
				s2.666-3.523,2.666-5.734v-92.73c0-3.153-1.974-5.971-4.937-7.049c-32.117-11.68-60.945-25.521-60.945-66.059
				c0-18.804,5.982-33.899,17.78-44.867c10.04-9.332,24.505-15.789,41.833-18.672c3.617-0.602,6.269-3.731,6.269-7.398v-7.064
				c0-4.386,3.568-7.954,7.954-7.954c4.386,0,7.954,3.568,7.954,7.954v5.263c0,4.048,3.213,7.365,7.258,7.496
				c30.237,0.976,55.781,10.297,55.781,20.353c0,4.447-3.599,14.558-9.528,14.558c-1.827,0-5.028-1.601-8.735-3.455
				c-7.976-3.989-18.899-9.452-36.707-10.806c-2.08-0.158-4.135,0.559-5.667,1.978c-1.532,1.42-2.402,3.413-2.402,5.501v78.683
				c0,3.141,1.958,5.95,4.905,7.037c15.112,5.572,32.303,12.511,45.072,24.383c13.477,12.531,20.028,29.038,20.028,50.464
				C335.38,355.945,312.807,381.596,271.817,387.441z"/>
		</g>
	</g>
</g>
<g>
</g>
<g>
</g>
<g>
</g>
<g>
</g>
<g>
</g>
<g>
</g>
<g>
</g>
<g>
</g>
<g>
</g>
<g>
</g>
<g>
</g>
<g>
</g>
<g>
</g>
<g>
</g>
<g>
</g>
</svg>
