<?xml version="1.0" encoding="iso-8859-1"?>
<!-- Generator: Adobe Illustrator 19.0.0, SVG Export Plug-In . SVG Version: 6.00 Build 0)  -->
<svg version="1.1" id="Capa_1" xmlns="http://www.w3.org/2000/svg" xmlns:xlink="http://www.w3.org/1999/xlink" x="0px" y="0px"
	 viewBox="0 0 512 512" style="enable-background:new 0 0 512 512;" xml:space="preserve">
<g>
	<g>
		<path d="M398.505,113.495C360.441,75.43,309.832,54.467,256,54.467c-53.831,0-104.441,20.963-142.505,59.027
			c-78.578,78.578-78.578,206.433,0,285.011c38.064,38.064,88.674,59.027,142.505,59.027
			c53.832,0.001,104.441-20.962,142.505-59.026C477.082,319.928,477.082,192.073,398.505,113.495z M388.188,388.188
			C352.88,423.497,305.934,442.943,256,442.943c-49.934,0-96.88-19.446-132.188-54.755c-72.889-72.889-72.889-191.487,0-264.376
			C159.12,88.503,206.066,69.057,256,69.057s96.88,19.446,132.188,54.755C461.077,196.701,461.077,315.299,388.188,388.188z"/>
	</g>
</g>
<g>
	<g>
		<path d="M416.675,56.692c-3.134-2.53-7.728-2.041-10.258,1.094c-2.53,3.136-2.04,7.728,1.095,10.259
			C464.643,114.16,497.41,182.667,497.41,256c0,64.483-25.111,125.106-70.707,170.703C381.106,472.299,320.483,497.41,256,497.41
			c-40.426,0-80.421-10.186-115.659-29.456c-3.535-1.934-7.968-0.635-9.901,2.9c-1.933,3.535-0.635,7.968,2.9,9.901
			C170.719,501.196,213.134,512,256,512c68.38,0,132.667-26.629,181.019-74.981C485.371,388.667,512,324.38,512,256
			C512,178.234,477.255,105.59,416.675,56.692z"/>
	</g>
</g>
<g>
	<g>
		<path d="M376.928,30.307C339.998,10.48,298.182,0,256,0C187.62,0,123.333,26.629,74.981,74.981S0,187.62,0,256
			c0,76.948,34.149,149.107,93.69,197.978c1.357,1.114,2.995,1.657,4.624,1.657c2.109,0,4.201-0.91,5.643-2.667
			c2.557-3.115,2.104-7.711-1.01-10.267C46.795,396.612,14.591,328.562,14.591,256c0-64.483,25.111-125.106,70.707-170.703
			C130.894,39.701,191.517,14.59,256,14.59c39.782,0,79.211,9.88,114.026,28.571c3.55,1.907,7.972,0.574,9.878-2.976
			S380.477,32.213,376.928,30.307z"/>
	</g>
</g>
<g>
	<g>
		<path d="M256,21.585c-4.029,0-7.295,3.266-7.295,7.295v11.709c0,4.029,3.266,7.295,7.295,7.295s7.295-3.266,7.295-7.295V28.88
			C263.295,24.851,260.029,21.585,256,21.585z"/>
	</g>
</g>
<g>
	<g>
		<path d="M256,464.116c-4.029,0-7.295,3.265-7.295,7.295v11.709c0,4.029,3.266,7.295,7.295,7.295s7.295-3.266,7.295-7.295v-11.709
			C263.295,467.382,260.029,464.116,256,464.116z"/>
	</g>
</g>
<g>
	<g>
		<path d="M483.12,248.705h-11.709c-4.029,0-7.295,3.266-7.295,7.295s3.266,7.295,7.295,7.295h11.709
			c4.029,0,7.295-3.266,7.295-7.295C490.415,251.971,487.149,248.705,483.12,248.705z"/>
	</g>
</g>
<g>
	<g>
		<path d="M40.589,248.705H28.88c-4.029,0-7.295,3.266-7.295,7.295s3.266,7.295,7.295,7.295h11.709c4.029,0,7.295-3.266,7.295-7.295
			S44.618,248.705,40.589,248.705z"/>
	</g>
</g>
<g>
	<g>
		<path d="M421.756,90.243c-2.849-2.848-7.468-2.848-10.317,0l-8.279,8.279c-2.849,2.85-2.849,7.468,0,10.318
			c1.425,1.424,3.292,2.136,5.159,2.136s3.734-0.712,5.158-2.136l8.279-8.279C424.605,97.711,424.605,93.093,421.756,90.243z"/>
	</g>
</g>
<g>
	<g>
		<path d="M108.839,403.16c-2.848-2.848-7.467-2.848-10.316,0l-8.279,8.279c-2.849,2.85-2.849,7.468,0,10.318
			c1.424,1.424,3.291,2.136,5.158,2.136c1.867,0,3.734-0.712,5.158-2.136l8.279-8.279
			C111.688,410.628,111.688,406.01,108.839,403.16z"/>
	</g>
</g>
<g>
	<g>
		<path d="M421.755,411.439l-8.279-8.279c-2.848-2.848-7.467-2.848-10.316,0c-2.849,2.85-2.849,7.468,0,10.318l8.279,8.279
			c1.424,1.424,3.291,2.136,5.158,2.136s3.734-0.712,5.158-2.136C424.604,418.907,424.604,414.289,421.755,411.439z"/>
	</g>
</g>
<g>
	<g>
		<path d="M108.839,98.522l-8.279-8.279c-2.848-2.847-7.468-2.847-10.316,0c-2.849,2.85-2.849,7.468,0,10.318l8.279,8.279
			c1.424,1.424,3.291,2.136,5.158,2.136c1.867,0,3.734-0.712,5.158-2.136C111.688,105.99,111.688,101.372,108.839,98.522z"/>
	</g>
</g>
<g>
	<g>
		<path d="M350.174,41.333c-3.689-1.615-7.992,0.061-9.611,3.751l-4.704,10.722c-1.619,3.689,0.06,7.992,3.75,9.611
			c0.954,0.418,1.948,0.616,2.927,0.616c2.808,0,5.484-1.63,6.684-4.367l4.704-10.722C355.543,47.255,353.864,42.952,350.174,41.333
			z"/>
	</g>
</g>
<g>
	<g>
		<path d="M172.39,446.582c-3.688-1.616-7.993,0.061-9.611,3.751l-4.704,10.722c-1.619,3.689,0.06,7.992,3.75,9.611
			c0.954,0.418,1.948,0.616,2.927,0.616c2.808,0,5.484-1.63,6.684-4.367l4.704-10.722
			C177.759,452.504,176.08,448.201,172.39,446.582z"/>
	</g>
</g>
<g>
	<g>
		<path d="M466.917,340.563l-10.722-4.704c-3.69-1.617-7.993,0.06-9.612,3.749c-1.619,3.689,0.06,7.992,3.749,9.612l10.722,4.705
			c0.954,0.418,1.949,0.616,2.928,0.616c2.807,0,5.484-1.63,6.684-4.366C472.285,346.486,470.606,342.183,466.917,340.563z"/>
	</g>
</g>
<g>
	<g>
		<path d="M61.668,162.779l-10.722-4.705c-3.69-1.616-7.992,0.06-9.612,3.749c-1.619,3.689,0.06,7.992,3.749,9.612l10.722,4.705
			c0.955,0.419,1.949,0.617,2.928,0.617c2.807,0,5.484-1.63,6.684-4.366C67.036,168.702,65.357,164.399,61.668,162.779z"/>
	</g>
</g>
<g>
	<g>
		<path d="M474.383,170.8c-1.463-3.753-5.692-5.607-9.447-4.145l-10.908,4.255c-3.753,1.465-5.609,5.695-4.145,9.447
			c1.125,2.883,3.88,4.646,6.798,4.646c0.882,0,1.779-0.161,2.649-0.501l10.908-4.255
			C473.991,178.782,475.848,174.552,474.383,170.8z"/>
	</g>
</g>
<g>
	<g>
		<path d="M62.116,331.642c-1.464-3.753-5.695-5.606-9.447-4.145l-10.908,4.255c-3.753,1.465-5.61,5.695-4.145,9.448
			c1.125,2.882,3.88,4.645,6.798,4.645c0.881,0,1.779-0.161,2.649-0.501l10.908-4.255C61.724,339.624,63.581,335.394,62.116,331.642
			z"/>
	</g>
</g>
<g>
	<g>
		<path d="M345.345,464.936l-4.256-10.908c-1.464-3.754-5.692-5.608-9.448-4.145c-3.753,1.465-5.609,5.695-4.144,9.448l4.256,10.908
			c1.124,2.883,3.88,4.646,6.798,4.646c0.882,0,1.779-0.161,2.65-0.501C344.954,472.919,346.81,468.689,345.345,464.936z"/>
	</g>
</g>
<g>
	<g>
		<path d="M184.504,52.669l-4.256-10.908c-1.465-3.753-5.693-5.605-9.448-4.145c-3.753,1.465-5.609,5.695-4.144,9.447l4.256,10.908
			c1.124,2.883,3.88,4.646,6.798,4.646c0.881,0,1.779-0.161,2.65-0.501C184.113,60.651,185.969,56.421,184.504,52.669z"/>
	</g>
</g>
<g>
	<g>
		<path d="M327.718,378.301c-3.602-11.304-14.066-18.899-26.06-18.899l-0.68,0.002c-34.043,0-65.519-18.78-83.244-49.328h61.27
			c10.434,0,19.462-7.076,21.957-17.208c1.672-6.793,0.156-13.847-4.159-19.353c-4.316-5.506-10.802-8.664-17.798-8.664H203.69
			c-0.239-2.964-0.36-5.931-0.36-8.85c0-2.92,0.121-5.887,0.36-8.85h90.543c10.436,0,19.464-7.076,21.957-17.207
			c1.672-6.793,0.156-13.847-4.159-19.354c-4.315-5.506-10.802-8.664-17.798-8.664h-76.498
			c17.725-30.55,49.199-49.328,83.243-49.328h0.206c11.327,0,21.435-7.087,25.151-17.635l0.513-1.455
			c2.87-8.144,1.673-16.871-3.283-23.943c-4.952-7.066-12.738-11.167-21.36-11.251c-0.605-0.006-1.21-0.009-1.815-0.009
			c-35.855,0-69.106,10.283-96.158,29.737c-25.465,18.314-44.379,43.829-54.796,73.884h-17.059
			c-12.468,0-22.612,10.144-22.612,22.612c0,12.468,10.144,22.612,22.612,22.612h8.318c-0.153,2.962-0.231,5.927-0.231,8.85
			c0,2.922,0.078,5.888,0.231,8.85h-8.318c-12.468,0-22.612,10.144-22.612,22.612c0,12.468,10.144,22.612,22.612,22.612h17.059
			c10.418,30.058,29.33,55.571,54.796,73.884c27.052,19.454,60.303,29.737,96.158,29.737c0.579,0,1.158-0.003,1.74-0.006
			c8.695-0.08,16.609-4.169,21.711-11.219C328.95,395.409,330.364,386.6,327.718,378.301z M311.688,393.673
			c-2.28,3.152-5.815,4.979-9.695,5.014c-0.533,0.005-1.068,0.008-1.604,0.008c-32.693,0-62.916-9.307-87.4-26.915
			c-23.453-16.866-40.744-40.538-50.006-68.461c-1.64-4.932-6.232-8.245-11.427-8.245h-19.18c-4.197,0-7.612-3.415-7.612-7.612
			c0-4.197,3.415-7.612,7.612-7.612v-0.004h11.464c3.327,0,6.536-1.394,8.807-3.828c2.269-2.434,3.437-5.734,3.205-9.056
			c-0.257-3.661-0.387-7.352-0.387-10.966c0-3.615,0.131-7.304,0.388-10.968c0.231-3.321-0.937-6.62-3.207-9.055
			c-2.269-2.432-5.478-3.827-8.805-3.827h-11.462c-4.197,0-7.612-3.415-7.612-7.612s3.415-7.612,7.612-7.612h19.18
			c5.195,0,9.786-3.312,11.427-8.247c9.26-27.92,26.552-51.593,50.005-68.459c24.484-17.608,54.707-26.915,87.4-26.915
			c0.555,0,1.109,0.003,1.667,0.009c3.778,0.036,7.053,1.761,9.223,4.859c2.174,3.103,2.678,6.779,1.42,10.351l-0.513,1.455
			c-1.606,4.557-6.028,7.619-11.004,7.619h-0.206c-41.237,0-79.142,23.651-98.923,61.725c-1.956,3.767-1.808,8.182,0.397,11.81
			c2.205,3.628,6.054,5.794,10.298,5.794h81.482c2.355,0,4.539,1.063,5.991,2.916c1.453,1.854,1.963,4.229,1.4,6.517
			c-0.839,3.41-3.878,5.792-7.391,5.792H201c-6.187,0-11.338,4.64-11.984,10.794c-0.455,4.356-0.686,8.747-0.686,13.056
			c0,4.307,0.23,8.699,0.686,13.058c0.646,6.152,5.798,10.792,11.984,10.792h78.005c2.355,0,4.539,1.062,5.991,2.916
			c1.452,1.855,1.963,4.23,1.4,6.516c-0.84,3.411-3.88,5.793-7.392,5.793H212.75c-4.242,0-8.092,2.165-10.298,5.794
			c-2.204,3.627-2.354,8.041-0.398,11.81c19.781,38.074,57.687,61.725,98.944,61.725l0.68-0.002c5.415,0,10.136,3.396,11.747,8.453
			C314.609,386.569,313.976,390.512,311.688,393.673z"/>
	</g>
</g>
<g>
</g>
<g>
</g>
<g>
</g>
<g>
</g>
<g>
</g>
<g>
</g>
<g>
</g>
<g>
</g>
<g>
</g>
<g>
</g>
<g>
</g>
<g>
</g>
<g>
</g>
<g>
</g>
<g>
</g>
</svg>
