<?xml version="1.0" encoding="iso-8859-1"?>
<!-- Generator: Adobe Illustrator 19.0.0, SVG Export Plug-In . SVG Version: 6.00 Build 0)  -->
<svg version="1.1" id="Capa_1" xmlns="http://www.w3.org/2000/svg" xmlns:xlink="http://www.w3.org/1999/xlink" x="0px" y="0px"
	 viewBox="0 0 512.001 512.001" style="enable-background:new 0 0 512.001 512.001;" xml:space="preserve">
<g>
	<g>
		<path d="M396.51,175.386c-5.36-44.699-25.056-85.189-56.96-117.094c-77.725-77.724-204.19-77.722-281.916,0
			C25.809,90.12,6.125,130.507,0.711,175.087c-0.484,3.996,2.361,7.628,6.357,8.113c4.005,0.486,7.629-2.361,8.114-6.356
			C20.198,135.53,38.443,98.1,67.943,68.599c72.038-72.04,189.258-72.042,261.3,0c29.572,29.572,47.828,67.099,52.796,108.523
			c0.443,3.702,3.589,6.421,7.226,6.421c0.289,0,0.583-0.018,0.877-0.053C394.139,183.011,396.99,179.382,396.51,175.386z"/>
	</g>
</g>
<g>
	<g>
		<path d="M505.629,448.695l-88.907-88.907c-6.506-6.505-16.481-7.438-24.006-2.838l-36.108-36.108
			c21.92-28.327,35.603-61.705,39.916-97.834c0.477-3.997-2.376-7.623-6.373-8.101c-3.989-0.474-7.623,2.377-8.1,6.373
			c-4.231,35.447-18.199,68.036-40.655,95.242c-0.062,0.069-0.129,0.133-0.189,0.205c-2.793,3.383-5.708,6.669-8.698,9.817
			c-0.082,0.086-0.161,0.173-0.243,0.259c-0.96,1.007-1.928,1.998-2.902,2.974c-0.041,0.041-0.08,0.082-0.12,0.123
			c-1.066,1.066-2.144,2.114-3.229,3.148c-0.808,0.768-1.631,1.527-2.456,2.285c-0.265,0.243-0.526,0.492-0.791,0.733
			c-0.937,0.851-1.889,1.69-2.846,2.524c-0.172,0.15-0.341,0.303-0.513,0.452c-0.893,0.773-1.799,1.533-2.707,2.29
			C244.187,401.7,135.942,397.898,67.945,329.9c-29.474-29.474-47.715-66.869-52.75-108.143c-0.489-3.996-4.127-6.837-8.117-6.352
			c-3.995,0.487-6.839,4.122-6.351,8.117c5.434,44.537,25.113,84.886,56.911,116.684c38.863,38.862,89.91,58.293,140.957,58.293
			c42.943,0,85.884-13.755,121.572-41.256l36.126,36.126c-1.866,3.039-2.884,6.532-2.884,10.189c0,5.221,2.033,10.129,5.724,13.82
			l88.907,88.907c3.811,3.811,8.816,5.716,13.821,5.716s10.01-1.905,13.821-5.716l29.949-29.95
			C513.249,468.715,513.249,456.315,505.629,448.695z M331.423,347.886c0.036-0.032,0.07-0.065,0.106-0.097
			c1.215-1.088,2.418-2.196,3.612-3.319c0.161-0.151,0.326-0.299,0.486-0.45c1.321-1.251,2.63-2.52,3.924-3.814
			c1.246-1.246,2.466-2.51,3.675-3.782c0.164-0.173,0.326-0.347,0.49-0.521c1.191-1.262,2.363-2.536,3.517-3.822l34.778,34.777
			l-15.807,15.808L331.423,347.886z M495.322,466.028l-29.949,29.95c-1.936,1.937-5.09,1.937-7.026,0l-88.907-88.907
			c-0.939-0.939-1.456-2.186-1.456-3.514s0.517-2.575,1.456-3.513l1.918-1.918l26.114-26.114c0.001-0.001,0.003-0.003,0.004-0.005
			l1.913-1.913c0.968-0.968,2.24-1.453,3.513-1.453s2.545,0.484,3.513,1.453l88.907,88.907
			C497.259,460.939,497.259,464.091,495.322,466.028z"/>
	</g>
</g>
<g>
	<g>
		<path d="M316.813,81.03c-65.188-65.188-171.253-65.186-236.439,0c-65.186,65.186-65.186,171.252,0,236.439
			c32.594,32.593,75.407,48.89,118.219,48.89c42.813,0,85.626-16.296,118.22-48.89C381.999,252.283,381.999,146.217,316.813,81.03z
			 M306.506,307.162c-59.502,59.503-156.323,59.504-215.824,0c-59.503-59.503-59.503-156.322,0-215.825
			c29.751-29.752,68.832-44.627,107.912-44.627c39.081,0,78.162,14.875,107.913,44.627
			C366.009,150.84,366.009,247.658,306.506,307.162z"/>
	</g>
</g>
<g>
	<g>
		<path d="M212.295,187.327l-1.31-0.481v-56.313l2.143,0.153c11.544,0.825,18.642,4.377,23.826,6.971
			c2.951,1.476,5.281,2.642,7.225,2.642c6.63,0,9.438-9.169,9.438-12.817c0-6.015-7.265-9.877-13.36-12.057
			c-7.356-2.632-17.573-4.374-27.329-4.661l-1.941-0.057v-8.96c0-1.754-2.73-3.979-5.798-3.979c-3.421,0-5.539,2.065-5.539,3.979
			v9.339l-1.791,0.188c-14.312,1.507-47.599,9.04-47.599,46.361c0,31.976,25.533,41.055,48.06,49.065l1.33,0.473v64.662
			l-2.156-0.169c-17.249-1.353-26.46-9.189-33.186-14.911c-3.519-2.994-6.299-5.359-8.77-5.359c-5.034,0-9.957,7.339-9.957,12.817
			c0,11.348,20.296,28.161,52.101,28.674l1.968,0.032v10.026c0,1.914,2.118,3.979,5.539,3.979c3.068,0,5.797-2.225,5.796-3.978
			v-10.579l1.725-0.24c13.827-1.92,25.237-7.325,32.997-15.631c8.354-8.94,12.589-21.032,12.589-35.937
			C258.296,207.051,235.571,195.889,212.295,187.327z M201.21,183.402l-2.706-1.021c-13.833-5.22-26.249-11.238-26.249-27.346
			c0-13.399,9.235-21.636,26.707-23.819l2.248-0.281V183.402z M211.791,271.119l-2.364,0.438V211.27l2.788,1.195
			c11.91,5.104,24.087,12.773,24.087,30.952C236.302,258.354,227.597,268.192,211.791,271.119z"/>
	</g>
</g>
<g>
</g>
<g>
</g>
<g>
</g>
<g>
</g>
<g>
</g>
<g>
</g>
<g>
</g>
<g>
</g>
<g>
</g>
<g>
</g>
<g>
</g>
<g>
</g>
<g>
</g>
<g>
</g>
<g>
</g>
</svg>
