<?xml version="1.0" encoding="iso-8859-1"?>
<!-- Generator: Adobe Illustrator 19.0.0, SVG Export Plug-In . SVG Version: 6.00 Build 0)  -->
<svg version="1.1" id="Capa_1" xmlns="http://www.w3.org/2000/svg" xmlns:xlink="http://www.w3.org/1999/xlink" x="0px" y="0px"
	 viewBox="0 0 512.001 512.001" style="enable-background:new 0 0 512.001 512.001;" xml:space="preserve">
<g>
	<g>
		<path d="M504.713,153.963c-4.025,0-7.287,3.262-7.287,7.287v293.589c0,3.87-3.149,7.019-7.019,7.019H291.615
			c-4.025,0-7.287,3.262-7.287,7.287c0,4.024,3.262,7.287,7.287,7.287h198.793c11.906,0,21.592-9.686,21.592-21.592V161.25
			C512,157.226,508.738,153.963,504.713,153.963z"/>
	</g>
</g>
<g>
	<g>
		<path d="M490.408,6.352H21.592C9.686,6.352,0,16.038,0,27.944v426.894c0,11.906,9.686,21.592,21.592,21.592h19.046
			c4.025,0,7.287-3.262,7.287-7.287c0-4.024-3.262-7.287-7.287-7.287H21.592c-3.87,0-7.019-3.149-7.019-7.019V27.944
			c0-3.87,3.149-7.019,7.019-7.019h468.816c3.87,0,7.019,3.149,7.019,7.019v87.637c0,4.024,3.262,7.287,7.287,7.287
			c4.025,0,7.287-3.262,7.287-7.287V27.944C512,16.038,502.314,6.352,490.408,6.352z"/>
	</g>
</g>
<g>
	<g>
		<path d="M287.227,313.317c0-11.077-9.011-20.089-20.088-20.089h-2.775H60.667c-11.077,0-20.089,9.012-20.089,20.089
			c0,11.077,9.012,20.089,20.089,20.089H73.44L56.958,487.409c-0.494,4.616,0.935,9.052,4.026,12.491
			c3.283,3.653,8.157,5.749,13.372,5.749h183.541c5.215,0,10.089-2.095,13.372-5.749c3.09-3.438,4.52-7.874,4.026-12.491
			l-16.482-154.003h8.326C278.215,333.406,287.227,324.394,287.227,313.317z M60.667,318.833c-3.042,0-5.516-2.474-5.516-5.516
			c0-3.041,2.474-5.516,5.516-5.516H76.18l-1.181,11.032H60.667z M74.356,491.075c-1.086,0-2.009-0.334-2.533-0.917
			c-0.306-0.341-0.425-0.722-0.375-1.199l19.388-181.158h82.03l9.317,183.274H74.356z M196.774,491.075l-9.317-183.274h18.078
			l14.523,183.274H196.774z M260.805,488.96c0.05,0.476-0.068,0.857-0.375,1.198c-0.524,0.583-1.447,0.917-2.533,0.917h-23.22
			l-14.523-183.274h21.263L260.805,488.96z M257.253,318.833l-1.181-11.032h11.066c3.041,0,5.515,2.474,5.515,5.516
			s-2.474,5.516-5.515,5.516H257.253z"/>
	</g>
</g>
<g>
	<g>
		<path d="M376.002,293.228h-37.447c-7.812,0-14.168,6.356-14.168,14.168v37.447c0,7.812,6.356,14.167,14.168,14.167h37.447
			c7.812,0,14.168-6.355,14.168-14.167v-37.447C390.17,299.584,383.814,293.228,376.002,293.228z M375.597,344.438H338.96v-36.636
			h36.637V344.438z"/>
	</g>
</g>
<g>
	<g>
		<path d="M457.254,293.228h-37.447c-7.812,0-14.168,6.356-14.168,14.168v37.447c0,7.812,6.356,14.167,14.168,14.167h37.447
			c7.812,0,14.168-6.355,14.168-14.167v-37.447C471.422,299.584,465.066,293.228,457.254,293.228z M456.849,344.438h-36.637v-36.636
			h36.637V344.438z"/>
	</g>
</g>
<g>
	<g>
		<path d="M376.002,372.761h-37.447c-7.812,0-14.168,6.356-14.168,14.168v37.447c0,7.812,6.356,14.168,14.168,14.168h37.447
			c7.812,0,14.168-6.356,14.168-14.168v-37.447C390.17,379.116,383.814,372.761,376.002,372.761z M375.597,423.97H338.96v-36.637
			h36.637V423.97z"/>
	</g>
</g>
<g>
	<g>
		<path d="M457.254,372.761h-37.447c-7.812,0-14.168,6.356-14.168,14.168v37.447c0,7.812,6.356,14.168,14.168,14.168h37.447
			c7.812,0,14.168-6.356,14.168-14.168v-37.447C471.422,379.116,465.066,372.761,457.254,372.761z M456.849,423.97h-36.637v-36.637
			h36.637V423.97z"/>
	</g>
</g>
<g>
	<g>
		<path d="M471.422,68.538c0-11.568-9.412-20.98-20.98-20.98H61.558c-11.568,0-20.98,9.412-20.98,20.98V232.75
			c0,11.568,9.412,20.98,20.98,20.98h388.884c11.568,0,20.98-9.411,20.98-20.98L471.422,68.538L471.422,68.538z M456.849,232.75
			L456.849,232.75c0,3.533-2.874,6.407-6.407,6.407H61.558c-3.533,0-6.407-2.874-6.407-6.407V68.538
			c0-3.533,2.874-6.407,6.407-6.407h388.884c3.533,0,6.407,2.874,6.407,6.407V232.75z"/>
	</g>
</g>
<g>
	<g>
		<path d="M186.888,186.518l-22.131-72.192c-1.301-4.142-6.627-6.154-12.071-6.154c-5.444,0-10.769,2.012-12.071,6.154
			l-22.013,72.192c-0.118,0.473-0.236,0.947-0.236,1.302c0,4.378,6.745,7.574,11.836,7.574c2.958,0,5.325-0.947,6.035-3.432
			l4.023-14.793h24.971l4.023,14.793c0.71,2.485,3.077,3.432,6.036,3.432c5.089,0,11.835-3.195,11.835-7.574
			C187.125,187.465,187.007,186.991,186.888,186.518z M144.046,162.967l8.64-31.717l8.64,31.717H144.046z"/>
	</g>
</g>
<g>
	<g>
		<path d="M273.516,108.882H222.39c-3.906,0-5.562,4.26-5.562,8.166c0,4.497,2.012,8.402,5.562,8.402h16.333v64.263
			c0,3.787,4.616,5.681,9.231,5.681s9.23-1.894,9.23-5.681V125.45h16.332c3.551,0,5.563-3.905,5.563-8.402
			C279.079,113.142,277.422,108.882,273.516,108.882z"/>
	</g>
</g>
<g>
	<g>
		<path d="M384.403,108.882c-6.628,0-9.467,0.71-14.32,9.231l-12.189,21.303l-12.19-21.303c-4.851-8.521-7.692-9.231-14.319-9.231
			c-4.616,0-9.231,2.485-9.231,9.231v71.6c0,3.787,4.615,5.681,9.231,5.681c4.615,0,9.23-1.894,9.23-5.681V144.15l11.243,20.592
			c1.42,2.722,3.669,3.432,5.799,3.432c2.249,0,4.616-0.828,6.154-3.432l11.361-19.409v44.38c0,3.787,4.615,5.681,9.231,5.681
			c4.615,0,9.23-1.894,9.23-5.681v-71.6C393.633,111.367,389.136,108.882,384.403,108.882z"/>
	</g>
</g>
<g>
</g>
<g>
</g>
<g>
</g>
<g>
</g>
<g>
</g>
<g>
</g>
<g>
</g>
<g>
</g>
<g>
</g>
<g>
</g>
<g>
</g>
<g>
</g>
<g>
</g>
<g>
</g>
<g>
</g>
</svg>
