<?xml version="1.0" encoding="iso-8859-1"?>
<!-- Generator: Adobe Illustrator 19.0.0, SVG Export Plug-In . SVG Version: 6.00 Build 0)  -->
<svg version="1.1" id="Capa_1" xmlns="http://www.w3.org/2000/svg" xmlns:xlink="http://www.w3.org/1999/xlink" x="0px" y="0px"
	 viewBox="0 0 511.999 511.999" style="enable-background:new 0 0 511.999 511.999;" xml:space="preserve">
<g>
	<g>
		<path d="M457.398,285.981c-11.402-26.543-28.457-54.162-50.689-82.088c-2.512-3.156-7.109-3.679-10.265-1.165
			c-3.157,2.513-3.678,7.109-1.166,10.266c21.423,26.909,37.806,53.406,48.695,78.755c13.19,30.705,18.345,59.883,15.321,86.724
			c-3.128,27.765-15.412,51.218-36.513,69.709c-17.224,15.095-40.362,27.041-68.771,35.508
			c-49.139,14.645-97.347,13.686-97.829,13.674c-0.117-0.002-0.236-0.002-0.353,0c-0.486,0.005-48.695,0.969-97.832-13.674
			c-28.409-8.467-51.547-20.413-68.771-35.508c-21.1-18.49-33.384-41.944-36.512-69.709c-4.83-42.877,10.942-90.823,46.878-142.505
			c27.167-39.071,60.236-71.747,81.256-90.791H331.16c9.45,8.557,21.601,20.1,34.472,33.736c2.77,2.936,7.394,3.067,10.328,0.298
			c2.934-2.77,3.067-7.394,0.298-10.327c-10.198-10.804-19.953-20.321-28.331-28.139c5.638-4.152,9.305-10.833,9.305-18.356
			c0-12.565-10.223-22.788-22.788-22.788h-2.087c8.22-12.034,18.916-28.607,26.823-44.133
			c10.905-21.414,14.097-35.734,10.044-45.067c-2.406-5.54-7.359-9.126-13.947-10.098c-9.777-1.445-22.678,2.481-39.009,7.452
			c-18.44,5.611-39.341,11.972-60.265,11.972c-20.925,0-41.825-6.361-60.265-11.972c-16.331-4.97-29.233-8.896-39.011-7.452
			c-6.588,0.972-11.541,4.558-13.946,10.098c-4.053,9.333-0.861,23.653,10.044,45.067c7.908,15.527,18.604,32.1,26.823,44.133
			h-2.087c-12.565,0-22.788,10.223-22.788,22.788c0,7.52,3.663,14.199,9.297,18.351C113.46,187.934,27.326,283.66,38.193,380.108
			c6.35,56.361,46.446,97.054,115.955,117.68c50.296,14.924,98.042,14.263,101.855,14.185c0.437,0.009,1.449,0.026,2.977,0.026
			c11.81,0,54.346-0.997,98.877-14.211c69.509-20.625,109.605-61.318,115.956-117.68
			C477.124,350.715,471.602,319.046,457.398,285.981z M156.182,16.22c0.197-0.455,0.496-1.142,2.678-1.464
			c6.533-0.961,19.206,2.892,32.623,6.975c18.454,5.616,41.421,12.605,64.519,12.605c23.099,0,46.065-6.989,64.519-12.605
			c13.417-4.083,26.095-7.934,32.622-6.975c2.182,0.322,2.48,1.009,2.678,1.464c0.649,1.493,5.108,16.37-37.457,77.946
			c-1.204,1.742-2.222,3.562-3.059,5.434H196.7c-0.837-1.872-1.854-3.692-3.059-5.434C151.075,32.591,155.535,17.714,156.182,16.22z
			 M177.562,114.211h156.882c4.509,0,8.177,3.668,8.177,8.177c0,4.509-3.668,8.177-8.177,8.177H177.562
			c-4.509,0-8.177-3.668-8.177-8.177C169.385,117.879,173.052,114.211,177.562,114.211z"/>
	</g>
</g>
<g>
	<g>
		<path d="M340.012,233.931c-22.44-22.44-52.276-34.798-84.01-34.798c-31.735,0-61.57,12.358-84.01,34.798
			c-16.399,16.399-27.562,37.017-32.282,59.625c-0.824,3.95,1.709,7.82,5.658,8.644c3.948,0.825,7.82-1.708,8.644-5.659
			c4.137-19.818,13.927-37.896,28.311-52.28c40.627-40.625,106.729-40.626,147.356,0c40.626,40.626,40.626,106.729,0,147.356
			c-40.624,40.627-106.729,40.628-147.354,0.002c-14.036-14.036-23.725-31.645-28.018-50.922c-0.877-3.938-4.779-6.422-8.719-5.543
			c-3.938,0.877-6.42,4.781-5.543,8.719c4.898,21.991,15.945,42.074,31.948,58.077c23.161,23.161,53.586,34.742,84.009,34.742
			c30.425,0,60.848-11.58,84.01-34.742C386.334,355.627,386.334,280.254,340.012,233.931z"/>
	</g>
</g>
<g>
	<g>
		<path d="M263.794,312.021l-0.654-0.241v-40.655l1.071,0.076c8.412,0.601,13.595,3.194,17.379,5.087
			c2.229,1.116,3.99,1.997,5.535,1.997c4.877,0,7.428-6.457,7.428-9.918c0-4.708-5.524-7.672-10.159-9.33
			c-5.464-1.955-13.047-3.249-20.283-3.462l-0.971-0.028v-6.143c0-1.687-2.395-3.406-4.746-3.406c-2.813,0-4.555,1.768-4.555,3.406
			v6.455l-0.896,0.094c-10.673,1.124-35.498,6.747-35.498,34.633c0,23.897,18.982,30.646,35.729,36.601l0.665,0.237v46.8
			l-1.078-0.084c-12.557-0.984-19.277-6.701-24.183-10.875c-2.667-2.27-4.774-4.062-6.769-4.062c-4.023,0-7.811,5.587-7.811,9.918
			c0,8.553,15.137,21.22,38.857,21.603l0.984,0.016v6.921c0,1.637,1.742,3.405,4.555,3.405c2.35,0,4.746-1.718,4.746-3.404v-7.383
			l0.862-0.12c21.606-3.001,33.999-17.022,33.999-38.468C298.002,326.695,281.104,318.388,263.794,312.021z M254.989,308.89
			l-1.353-0.511c-10.414-3.93-19.035-8.125-19.035-19.707c0-9.601,6.661-15.507,19.264-17.082l1.124-0.14V308.89z M263.173,373.743
			l-1.182,0.219h0v-43.136l1.394,0.598c9.07,3.887,17.463,9.287,17.463,22.372C280.848,364.548,274.57,371.632,263.173,373.743z"/>
	</g>
</g>
<g>
</g>
<g>
</g>
<g>
</g>
<g>
</g>
<g>
</g>
<g>
</g>
<g>
</g>
<g>
</g>
<g>
</g>
<g>
</g>
<g>
</g>
<g>
</g>
<g>
</g>
<g>
</g>
<g>
</g>
</svg>
