<?xml version="1.0" encoding="iso-8859-1"?>
<!-- Generator: Adobe Illustrator 19.0.0, SVG Export Plug-In . SVG Version: 6.00 Build 0)  -->
<svg version="1.1" id="Capa_1" xmlns="http://www.w3.org/2000/svg" xmlns:xlink="http://www.w3.org/1999/xlink" x="0px" y="0px"
	 viewBox="0 0 512.001 512.001" style="enable-background:new 0 0 512.001 512.001;" xml:space="preserve">
<g>
	<g>
		<path d="M334.019,113.88H152.808c-8.525,0-15.462,6.936-15.462,15.462v98.612c0,8.526,6.936,15.462,15.462,15.462h181.211
			c8.526,0.001,15.462-6.935,15.462-15.462v-98.612C349.481,120.817,342.545,113.88,334.019,113.88z M334.768,227.954
			c0,0.413-0.336,0.749-0.749,0.749H152.808c-0.413,0.001-0.748-0.336-0.748-0.749v-98.612c0-0.413,0.335-0.748,0.748-0.748h181.211
			c0.413,0,0.749,0.335,0.749,0.748V227.954z"/>
	</g>
</g>
<g>
	<g>
		<path d="M192.983,337.36h-25.768c-7.73,0-14.02,6.29-14.02,14.02v25.768c0,7.73,6.29,14.02,14.02,14.02h25.768
			c7.73,0,14.02-6.29,14.02-14.02V351.38C207.003,343.65,200.713,337.36,192.983,337.36z M192.29,376.455h-24.381v-24.381h24.381
			V376.455z"/>
	</g>
</g>
<g>
	<g>
		<path d="M256.297,337.36h-25.768c-7.73,0-14.02,6.29-14.02,14.02v25.768c0,7.73,6.29,14.02,14.02,14.02h25.768
			c7.73,0,14.02-6.29,14.02-14.02V351.38C270.317,343.65,264.027,337.36,256.297,337.36z M255.603,376.455h-24.381v-24.381h24.381
			V376.455z"/>
	</g>
</g>
<g>
	<g>
		<path d="M319.611,337.36h-25.768c-7.73,0-14.02,6.29-14.02,14.02v25.768c0,7.73,6.29,14.02,14.02,14.02h25.768
			c7.73,0,14.02-6.29,14.02-14.02V351.38C333.631,343.65,327.341,337.36,319.611,337.36z M318.917,376.455h-24.381v-24.381h24.381
			V376.455z"/>
	</g>
</g>
<g>
	<g>
		<path d="M192.983,266.758h-25.768c-7.73,0-14.02,6.29-14.02,14.021v25.768c0,7.73,6.29,14.02,14.02,14.02h25.768
			c7.73,0,14.02-6.29,14.02-14.02v-25.768C207.003,273.048,200.713,266.758,192.983,266.758z M192.29,305.853h-24.381v-24.382
			h24.381V305.853z"/>
	</g>
</g>
<g>
	<g>
		<path d="M256.297,266.758h-25.768c-7.73,0-14.02,6.29-14.02,14.021v25.768c0,7.73,6.29,14.02,14.02,14.02h25.768
			c7.73,0,14.02-6.29,14.02-14.02v-25.768C270.317,273.048,264.027,266.758,256.297,266.758z M255.603,305.853h-24.381v-24.382
			h24.381V305.853z"/>
	</g>
</g>
<g>
	<g>
		<path d="M319.611,266.758h-25.768c-7.73,0-14.02,6.29-14.02,14.021v25.768c0,7.73,6.29,14.02,14.02,14.02h25.768
			c7.73,0,14.02-6.29,14.02-14.02v-25.768C333.631,273.048,327.341,266.758,319.611,266.758z M318.917,305.853h-24.381v-24.382
			h24.381V305.853z"/>
	</g>
</g>
<g>
	<g>
		<path d="M192.983,405.171h-25.768c-7.73,0-14.02,6.29-14.02,14.02v25.768c0,7.73,6.29,14.02,14.02,14.02h25.768
			c7.73,0,14.02-6.29,14.02-14.02v-25.768C207.003,411.46,200.714,405.171,192.983,405.171z M192.29,444.265h-24.381v-24.381h24.381
			V444.265z"/>
	</g>
</g>
<g>
	<g>
		<path d="M256.297,405.171h-25.768c-7.73,0-14.02,6.29-14.02,14.02v25.768c0,7.73,6.29,14.02,14.02,14.02h25.768
			c7.73,0,14.02-6.29,14.02-14.02v-25.768C270.317,411.46,264.027,405.171,256.297,405.171z M255.603,444.265h-24.381v-24.381
			h24.381V444.265z"/>
	</g>
</g>
<g>
	<g>
		<path d="M319.611,405.171h-25.768c-7.73,0-14.02,6.29-14.02,14.02v25.768c0,7.73,6.29,14.02,14.02,14.02h25.768
			c7.73,0,14.02-6.29,14.02-14.02v-25.768C333.631,411.46,327.341,405.171,319.611,405.171z M318.917,444.265h-24.381v-24.381
			h24.381V444.265z"/>
	</g>
</g>
<g>
	<g>
		<path d="M390.945,98.886h-10.707c-2.762-8.279-10.047-14.501-18.913-15.723V63.961c0-11.68-9.501-21.181-21.18-21.181h-10.039
			V16.371C330.106,7.344,322.762,0,313.735,0H173.091c-9.026,0-16.371,7.344-16.371,16.371V42.78h-10.039
			c-11.68,0-21.181,9.501-21.181,21.181v19.202c-11.343,1.563-20.109,11.313-20.109,23.08v187.049
			c0,18.657,2.221,37.314,6.603,55.454c4.107,17.007,6.19,34.502,6.19,52v8.003c0,4.063,3.293,7.357,7.357,7.357
			c4.064,0,7.357-3.293,7.357-7.357v-8.003c0-18.661-2.221-37.318-6.602-55.454c-4.107-17.009-6.191-34.506-6.191-52V106.243
			c0-4.737,3.854-8.59,8.59-8.59h229.436c4.737,0,8.59,3.854,8.59,8.59v187.048v0.001c0,1.856-0.036,3.712-0.083,5.567
			c0,0.009,0,0.016,0,0.025c0,0.002,0,0.004,0,0.005c-0.396,15.627-2.438,31.209-6.108,46.402
			c-4.38,18.136-6.602,36.793-6.602,55.454v86.924c0,5.303-4.313,9.616-9.616,9.616h-10.681v-3.994
			c0-12.089-9.835-21.924-21.924-21.924H175.119c-12.089,0-21.924,9.836-21.924,21.924v3.994h-10.681
			c-5.303,0-9.617-4.313-9.617-9.616V455.12c0-4.063-3.293-7.357-7.357-7.357c-4.064,0-7.357,3.293-7.357,7.357v32.551
			c0,13.415,10.914,24.33,24.331,24.33h201.797c13.415,0,24.33-10.914,24.33-24.33v-86.924c0-17.498,2.082-34.993,6.19-52
			c3.353-13.877,5.43-28.062,6.225-42.318h9.888c8.638,0,15.666-7.027,15.666-15.665V114.552
			C406.61,105.914,399.583,98.886,390.945,98.886z M156.721,82.939h-16.507V63.961c0-3.566,2.901-6.468,6.468-6.468h10.039V82.939z
			 M171.434,82.939V16.371c0-0.914,0.743-1.657,1.657-1.657h140.643c0.914,0,1.658,0.743,1.658,1.657v66.568H171.434z
			 M346.612,82.939h-16.506V57.493h10.039c3.566,0,6.467,2.901,6.467,6.468V82.939z M318.917,497.287H167.909v-3.994
			c0-3.976,3.235-7.211,7.21-7.211h136.588c3.975,0,7.21,3.235,7.21,7.211V497.287z M391.897,290.763
			c0,0.525-0.427,0.951-0.952,0.951h-9.51V113.6h9.51c0.525,0,0.952,0.427,0.952,0.952V290.763z"/>
	</g>
</g>
<g>
	<g>
		<path d="M291.967,57.696h-13.976c-4.063,0-7.357,3.293-7.357,7.357c0,4.064,3.293,7.357,7.357,7.357h13.977
			c4.063,0,7.357-3.293,7.357-7.357C299.325,60.989,296.031,57.696,291.967,57.696z"/>
	</g>
</g>
<g>
	<g>
		<path d="M231.746,57.696h-37.868c-4.063,0-7.357,3.293-7.357,7.357c0,4.064,3.293,7.357,7.357,7.357h37.868
			c4.063,0,7.357-3.293,7.357-7.357C239.103,60.989,235.809,57.696,231.746,57.696z"/>
	</g>
</g>
<g>
	<g>
		<path d="M291.967,25.957h-98.089c-4.063,0-7.357,3.293-7.357,7.357c0,4.064,3.293,7.357,7.357,7.357h98.089
			c4.063,0,7.357-3.293,7.357-7.357C299.324,29.25,296.031,25.957,291.967,25.957z"/>
	</g>
</g>
<g>
	<g>
		<path d="M245.581,171.807v-21.369c7.369,0.527,10.106,3.895,12.632,3.895c3.158,0,4.632-4,4.632-6
			c0-5.158-10.106-7.369-17.264-7.579v-2.842c0-1.263-1.579-2.421-3.158-2.421c-1.79,0-3.053,1.158-3.053,2.421v3.053
			c-10,1.052-20,6.315-20,19.579c0,13.474,10.526,17.264,20,20.632v24.737c-10.737-0.842-13.579-8.211-17.053-8.211
			c-2.632,0-4.842,3.473-4.842,6c0,5.157,8.842,12.21,21.895,12.421v3.264c0,1.263,1.263,2.421,3.053,2.421
			c1.579,0,3.158-1.158,3.158-2.421v-3.579c11.368-1.579,19.158-8.737,19.158-21.685
			C264.739,179.807,254.739,175.175,245.581,171.807z M240.002,169.806c-5.579-2.105-10.105-4.316-10.105-10.316
			c0-5.474,4.21-8.105,10.105-8.842V169.806z M244.95,205.702v-22.211c5.158,2.21,9.263,5.158,9.263,11.79
			C254.213,201.281,250.634,204.649,244.95,205.702z"/>
	</g>
</g>
<g>
</g>
<g>
</g>
<g>
</g>
<g>
</g>
<g>
</g>
<g>
</g>
<g>
</g>
<g>
</g>
<g>
</g>
<g>
</g>
<g>
</g>
<g>
</g>
<g>
</g>
<g>
</g>
<g>
</g>
</svg>
