<?xml version="1.0" encoding="iso-8859-1"?>
<!-- Generator: Adobe Illustrator 19.0.0, SVG Export Plug-In . SVG Version: 6.00 Build 0)  -->
<svg version="1.1" id="Capa_1" xmlns="http://www.w3.org/2000/svg" xmlns:xlink="http://www.w3.org/1999/xlink" x="0px" y="0px"
	 viewBox="0 0 512 512" style="enable-background:new 0 0 512 512;" xml:space="preserve">
<g>
	<g>
		<path d="M506.093,157.769c-3.81-3.81-8.875-5.907-14.262-5.907h-5.529c-4.074,0-7.376,3.302-7.376,7.376
			c0,4.074,3.302,7.376,7.376,7.376h5.529c1.446,0,2.806,0.563,3.829,1.586c1.023,1.023,1.587,2.384,1.587,3.831v244.483
			c0,2.986-2.43,5.416-5.416,5.416H86.919V166.614h279.56c4.074,0,7.376-3.302,7.376-7.376c0-4.074-3.302-7.376-7.376-7.376H20.169
			C9.048,151.862,0,160.91,0,172.031v244.483c0,11.121,9.048,20.168,20.169,20.168h471.663c11.121,0,20.168-9.047,20.168-20.168
			V172.031C512,166.644,509.902,161.579,506.093,157.769z M72.167,421.93L72.167,421.93H20.169c-2.987,0-5.416-2.429-5.416-5.416
			V172.031c0-2.987,2.43-5.416,5.416-5.416h51.998V421.93z"/>
	</g>
</g>
<g>
	<g>
		<path d="M473.177,373.823h-147.84c-4.074,0-7.376,3.302-7.376,7.376c0,4.074,3.302,7.376,7.376,7.376h147.84
			c4.074,0,7.376-3.302,7.376-7.376C480.553,377.125,477.251,373.823,473.177,373.823z"/>
	</g>
</g>
<g>
	<g>
		<path d="M242.502,373.823H107.186c-4.074,0-7.376,3.302-7.376,7.376c0,4.074,3.302,7.376,7.376,7.376h135.316
			c4.074,0,7.376-3.302,7.376-7.376C249.878,377.125,246.576,373.823,242.502,373.823z"/>
	</g>
</g>
<g>
	<g>
		<path d="M490.509,93.473c-0.689-3.572-2.728-6.663-5.742-8.702l-10.507-7.11c-3.013-2.039-6.641-2.781-10.213-2.094
			c-3.573,0.689-6.664,2.729-8.702,5.742l-12.96,19.152c-7.88-2.761-16.948-0.03-21.843,7.204L277.888,318.48
			c-0.036,0.053-0.06,0.114-0.095,0.168c-0.147,0.229-0.28,0.466-0.401,0.712c-0.045,0.091-0.091,0.18-0.132,0.272
			c-0.143,0.324-0.272,0.655-0.368,1.001c-0.001,0.002-0.002,0.005-0.003,0.007l-19.313,69.534
			c-1.259,4.531,0.512,9.347,4.407,11.983c1.857,1.257,3.994,1.882,6.129,1.882c2.342,0,4.678-0.752,6.634-2.245l57.368-43.784
			c0.288-0.22,0.551-0.465,0.8-0.721c0.069-0.07,0.132-0.144,0.198-0.217c0.187-0.208,0.361-0.424,0.522-0.65
			c0.035-0.049,0.079-0.091,0.113-0.141l114.85-169.722c0-0.001,0.001-0.001,0.001-0.002l4.179-6.176l9.361,6.335l-59.978,88.635
			c-2.283,3.374-1.398,7.96,1.976,10.243c1.267,0.857,2.705,1.268,4.127,1.268c2.366,0,4.69-1.136,6.116-3.243l60.727-89.743
			c4.145-6.127,2.534-14.483-3.593-18.628l-10.468-7.084l15.36-22.7c4.776-7.059,4.104-16.219-1.035-22.501l13.044-19.277
			C490.454,100.673,491.197,97.045,490.509,93.473z M274.834,383.17l13.526-48.698l26.651,18.035L274.834,383.17z M325.665,341.904
			l-31.425-21.265l106.58-157.506l31.425,21.265L325.665,341.904z M445.332,165.06c0.01-0.015,0.021-0.031,0.031-0.046
			L445.332,165.06z M440.514,172.18l-31.425-21.265l6.169-9.119l31.426,21.265L440.514,172.18z M464.186,137.197l-9.235,13.647
			l-31.426-21.265l9.235-13.647c1.268-1.872,3.822-2.362,5.691-1.097l24.638,16.672C464.96,132.773,465.452,135.326,464.186,137.197
			z M463.597,114.038l-8.633-5.842l11.966-17.684l8.633,5.842L463.597,114.038z"/>
	</g>
</g>
<g>
	<g>
		<path d="M473.177,325.252h-104.77c-4.074,0-7.376,3.302-7.376,7.376c0,4.074,3.302,7.376,7.376,7.376h104.77
			c4.074,0,7.376-3.302,7.376-7.376C480.553,328.555,477.251,325.252,473.177,325.252z"/>
	</g>
</g>
<g>
	<g>
		<path d="M252.927,325.253H107.186c-4.074,0-7.376,3.302-7.376,7.376c0,4.074,3.302,7.376,7.376,7.376h145.741
			c4.074,0,7.377-3.303,7.377-7.376C260.304,328.555,257.001,325.253,252.927,325.253z"/>
	</g>
</g>
<g>
	<g>
		<path d="M144.398,233.262v-28.294c9.757,0.697,13.381,5.157,16.726,5.157c4.182,0,6.133-5.297,6.133-7.945
			c0-6.829-13.38-9.756-22.858-10.035v-3.763c0-1.673-2.09-3.206-4.181-3.206c-2.369,0-4.042,1.533-4.042,3.206v4.042
			c-13.241,1.394-26.482,8.363-26.482,25.925c0,17.841,13.938,22.859,26.482,27.319v32.754
			c-14.216-1.115-17.98-10.872-22.579-10.872c-3.484,0-6.411,4.6-6.411,7.945c0,6.829,11.708,16.168,28.991,16.447h-0.002v4.32
			c0,1.673,1.672,3.206,4.042,3.206c2.09,0,4.181-1.533,4.181-3.206v-4.739c15.053-2.09,25.367-11.568,25.367-28.712
			C169.765,243.855,156.524,237.722,144.398,233.262z M137.014,230.614c-7.388-2.787-13.381-5.715-13.381-13.659
			c0-7.248,5.575-10.733,13.381-11.708V230.614z M143.565,278.143v-29.409c6.829,2.927,12.265,6.829,12.265,15.61
			C155.83,272.289,151.092,276.749,143.565,278.143z"/>
	</g>
</g>
<g>
</g>
<g>
</g>
<g>
</g>
<g>
</g>
<g>
</g>
<g>
</g>
<g>
</g>
<g>
</g>
<g>
</g>
<g>
</g>
<g>
</g>
<g>
</g>
<g>
</g>
<g>
</g>
<g>
</g>
</svg>
