<?xml version="1.0" encoding="iso-8859-1"?>
<!-- Generator: Adobe Illustrator 19.0.0, SVG Export Plug-In . SVG Version: 6.00 Build 0)  -->
<svg version="1.1" id="Capa_1" xmlns="http://www.w3.org/2000/svg" xmlns:xlink="http://www.w3.org/1999/xlink" x="0px" y="0px"
	 viewBox="0 0 512.001 512.001" style="enable-background:new 0 0 512.001 512.001;" xml:space="preserve">
<g>
	<g>
		<path d="M488.521,181.794h-50.367l-25.461-99.848c-3.199-12.546-16.01-20.147-28.553-16.95l-58.049,14.802
			c-3.915,0.998-6.28,4.982-5.282,8.897c0.999,3.915,4.982,6.278,8.897,5.282l58.049-14.802c4.731-1.203,9.554,1.66,10.76,6.387
			l2.82,11.061L17.73,194.439l-2.82-11.06c-0.584-2.29-0.241-4.671,0.965-6.703c1.207-2.032,3.133-3.473,5.423-4.057l263.859-67.283
			c3.915-0.998,6.28-4.982,5.282-8.897c-0.999-3.915-4.98-6.278-8.897-5.282L17.682,158.44
			c-12.546,3.199-20.15,16.008-16.951,28.553l54.108,212.192c2.705,10.607,12.278,17.682,22.755,17.681
			c1.914,0,3.86-0.237,5.798-0.731l3.464-0.883v9.003c0,12.947,10.533,23.48,23.48,23.48h378.185c12.947,0,23.48-10.533,23.48-23.48
			V205.274C512.001,192.327,501.468,181.794,488.521,181.794z M86.857,400.152l-7.079,1.805c-4.727,1.206-9.554-1.66-10.76-6.387
			l-33.12-129.884l50.959-12.994V400.152z M86.857,205.273v32.319l-54.574,13.916l-10.937-42.892l70.687-18.025
			C88.799,194.616,86.857,199.721,86.857,205.273z M423.054,181.793h-58.157l54.606-13.924L423.054,181.793z M404.951,110.799
			l10.937,42.892l-110.207,28.103H126.536L404.951,110.799z M488.521,433.103H110.337c-4.879,0-8.849-3.969-8.849-8.848v-18.418
			V205.274c0-4.879,3.969-8.848,8.849-8.848h378.184c4.879,0,8.848,3.969,8.848,8.848v218.981h0
			C497.369,429.134,493.4,433.103,488.521,433.103z"/>
	</g>
</g>
<g>
	<g>
		<path d="M291.343,361.895H131.935c-4.04,0-7.316,3.275-7.316,7.316s3.276,7.316,7.316,7.316h159.408
			c4.04,0,7.316-3.275,7.316-7.316C298.659,365.171,295.384,361.895,291.343,361.895z"/>
	</g>
</g>
<g>
	<g>
		<path d="M413.257,233.249c-10.508,0-20.232,3.392-28.158,9.125c-8.167-5.917-17.964-9.125-28.188-9.125
			c-26.558,0-48.164,21.606-48.164,48.164c0.002,26.557,21.608,48.163,48.165,48.163c10.224,0,20.02-3.208,28.187-9.125
			c7.926,5.733,17.651,9.125,28.158,9.125c26.557,0,48.163-21.606,48.163-48.163C461.42,254.855,439.814,233.249,413.257,233.249z
			 M365.152,283.696c0.009,0.188,0.022,0.375,0.033,0.563c0.035,0.613,0.082,1.224,0.14,1.833c0.014,0.142,0.027,0.284,0.042,0.426
			c0.892,8.556,4.013,16.593,9.104,23.458c-5.24,3.234-11.285,4.967-17.559,4.967c-18.49,0-33.532-15.042-33.532-33.531
			c0.001-18.488,15.043-33.531,33.532-33.531c6.274,0,12.319,1.733,17.559,4.967c-5.09,6.865-8.212,14.902-9.104,23.458
			c-0.015,0.142-0.028,0.283-0.042,0.425c-0.058,0.609-0.104,1.22-0.14,1.833c-0.011,0.188-0.024,0.374-0.033,0.562
			c-0.035,0.759-0.058,1.52-0.058,2.285S365.117,282.937,365.152,283.696z M413.259,314.944c-9.155,0-17.461-3.691-23.518-9.659
			c-0.125-0.123-0.248-0.247-0.371-0.372c-0.279-0.284-0.556-0.571-0.825-0.865c-0.074-0.081-0.147-0.163-0.221-0.245
			c-0.316-0.352-0.628-0.708-0.929-1.073c-0.002-0.002-0.003-0.004-0.005-0.006c-4.785-5.798-7.663-13.226-7.663-21.313
			c-0.001-8.086,2.878-15.514,7.664-21.313c0.001-0.001,0.002-0.002,0.003-0.004c0.302-0.366,0.615-0.722,0.932-1.075
			c0.073-0.081,0.145-0.162,0.219-0.242c0.27-0.295,0.547-0.583,0.827-0.867c0.122-0.124,0.244-0.247,0.368-0.369
			c6.057-5.968,14.364-9.66,23.519-9.66c18.489,0,33.531,15.042,33.531,33.532C446.79,299.902,431.748,314.944,413.259,314.944z"/>
	</g>
</g>
<g>
	<g>
		<path d="M184.07,238.006h-32.086c-15.089,0-27.364,12.275-27.364,27.364v32.086c-0.001,15.089,12.275,27.364,27.364,27.364h32.086
			c15.088,0,27.364-12.275,27.364-27.364V265.37C211.434,250.282,199.159,238.006,184.07,238.006z M196.801,285.343h-15.607
			c-4.04,0-7.316,3.275-7.316,7.316s3.275,7.316,7.316,7.316h15.355c-1.173,5.818-6.322,10.214-12.48,10.214h-32.086
			c-6.159,0-11.308-4.395-12.48-10.214h15.355c4.04,0,7.316-3.275,7.316-7.316s-3.275-7.316-7.316-7.316h-15.607v-6.34h15.607
			c4.04,0,7.316-3.275,7.316-7.316c0-4.04-3.275-7.316-7.316-7.316h-15.557c0.512-6.554,5.998-11.734,12.682-11.734h32.086
			c6.684,0,12.169,5.18,12.682,11.734h-15.557c-4.04,0-7.316,3.275-7.316,7.316c0,4.04,3.275,7.316,7.316,7.316h15.607V285.343z"/>
	</g>
</g>
<g>
	<g>
		<path d="M463.12,394.085H208.387c-4.04,0-7.316,3.275-7.316,7.316s3.275,7.316,7.316,7.316H463.12c4.04,0,7.316-3.275,7.316-7.316
			S467.161,394.085,463.12,394.085z"/>
	</g>
</g>
<g>
	<g>
		<path d="M161.749,394.085h-29.813c-4.04,0-7.316,3.275-7.316,7.316s3.275,7.316,7.316,7.316h29.813
			c4.04,0,7.316-3.275,7.316-7.316S165.789,394.085,161.749,394.085z"/>
	</g>
</g>
<g>
</g>
<g>
</g>
<g>
</g>
<g>
</g>
<g>
</g>
<g>
</g>
<g>
</g>
<g>
</g>
<g>
</g>
<g>
</g>
<g>
</g>
<g>
</g>
<g>
</g>
<g>
</g>
<g>
</g>
</svg>
