<?xml version="1.0" encoding="iso-8859-1"?>
<!-- Generator: Adobe Illustrator 19.0.0, SVG Export Plug-In . SVG Version: 6.00 Build 0)  -->
<svg version="1.1" id="Capa_1" xmlns="http://www.w3.org/2000/svg" xmlns:xlink="http://www.w3.org/1999/xlink" x="0px" y="0px"
	 viewBox="0 0 512 512" style="enable-background:new 0 0 512 512;" xml:space="preserve">
<g>
	<g>
		<path d="M173.354,266.922H51.456c-4.033,0-7.303,3.27-7.303,7.303s3.27,7.303,7.303,7.303h121.898c4.033,0,7.303-3.27,7.303-7.303
			S177.387,266.922,173.354,266.922z"/>
	</g>
</g>
<g>
	<g>
		<path d="M487.066,273.609c-3.766-3.766-7.833-7.12-12.129-10.073h0.001V118.301c0-14.022-11.407-25.429-25.429-25.429h-54.494
			c-4.033,0-7.303,3.27-7.303,7.303c0,4.033,3.27,7.303,7.303,7.303h54.494c5.968,0,10.822,4.855,10.822,10.822v16.648H14.607V118.3
			c0-5.967,4.855-10.822,10.822-10.822h323.818c4.033,0,7.303-3.27,7.303-7.303c0-4.033-3.27-7.303-7.303-7.303H25.429
			C11.407,92.872,0,104.28,0,118.301v245.556c0,14.022,11.407,25.429,25.429,25.429h336.542c1.44,1.68,2.93,3.326,4.511,4.907
			c16.625,16.625,38.455,24.934,60.292,24.934c21.832,0,43.671-8.313,60.292-24.934
			C520.311,360.948,520.311,306.854,487.066,273.609z M14.607,149.556h445.725v45.909H14.607V149.556z M25.429,374.68
			c-5.968,0-10.822-4.855-10.822-10.822V210.071h445.725v45.415c0.001,0,0.001,0.001,0.001,0.001
			c-10.468-4.482-21.829-6.852-33.559-6.852c-22.776,0-44.188,8.869-60.292,24.974c-16.105,16.104-24.974,37.516-24.974,60.292
			c0,14.485,3.601,28.411,10.355,40.779H25.429z M476.738,383.865c-27.55,27.55-72.377,27.55-99.928,0
			c-13.346-13.346-20.696-31.09-20.696-49.964c0-18.874,7.35-36.618,20.696-49.964c13.346-13.346,31.09-20.696,49.964-20.696
			c18.874,0,36.618,7.35,49.964,20.696C504.288,311.488,504.288,356.315,476.738,383.865z"/>
	</g>
</g>
<g>
	<g>
		<path d="M267.974,315.851H123.14c-4.033,0-7.303,3.27-7.303,7.303s3.27,7.303,7.303,7.303h144.834c4.033,0,7.303-3.27,7.303-7.303
			S272.007,315.851,267.974,315.851z"/>
	</g>
</g>
<g>
	<g>
		<path d="M76.965,315.851H51.932c-4.033,0-7.303,3.27-7.303,7.303s3.27,7.303,7.303,7.303h25.033c4.033,0,7.303-3.27,7.303-7.303
			C84.269,319.121,80.999,315.851,76.965,315.851z"/>
	</g>
</g>
<g>
	<g>
		<path d="M459.773,319.557h-2.882v-7.889c0-16.606-13.511-30.117-30.117-30.117s-30.117,13.51-30.117,30.117v7.889h-2.882
			c-4.033,0-7.303,3.27-7.303,7.303v43.01c0,4.033,3.27,7.303,7.303,7.303h65.998c4.033,0,7.303-3.27,7.303-7.303v-43.01
			C467.076,322.827,463.806,319.557,459.773,319.557z M411.262,311.669L411.262,311.669c0.001-8.552,6.959-15.51,15.511-15.51
			s15.51,6.958,15.51,15.51v7.889h-31.021V311.669z M401.078,362.567v-28.403h2.882h45.628h2.882v28.403H401.078z"/>
	</g>
</g>
<g>
</g>
<g>
</g>
<g>
</g>
<g>
</g>
<g>
</g>
<g>
</g>
<g>
</g>
<g>
</g>
<g>
</g>
<g>
</g>
<g>
</g>
<g>
</g>
<g>
</g>
<g>
</g>
<g>
</g>
</svg>
