<?xml version="1.0" encoding="iso-8859-1"?>
<!-- Generator: Adobe Illustrator 19.0.0, SVG Export Plug-In . SVG Version: 6.00 Build 0)  -->
<svg version="1.1" id="Capa_1" xmlns="http://www.w3.org/2000/svg" xmlns:xlink="http://www.w3.org/1999/xlink" x="0px" y="0px"
	 viewBox="0 0 512.001 512.001" style="enable-background:new 0 0 512.001 512.001;" xml:space="preserve">
<g>
	<g>
		<path d="M510.455,424.903l-14.63-62.4c-0.92-3.925-4.855-6.356-8.774-5.441c-3.926,0.92-6.362,4.848-5.441,8.774l14.63,62.4
			c3.026,12.906,0.038,26.266-8.196,36.654s-20.559,16.346-33.816,16.346H57.773c-13.257,0-25.582-5.958-33.816-16.346
			c-8.234-10.388-11.222-23.749-8.196-36.654l14.644-62.459c0.92-3.925-1.515-7.854-5.441-8.774
			c-3.925-0.923-7.853,1.515-8.774,5.441L1.545,424.903c-4.05,17.273-0.052,35.154,10.969,49.057
			c11.021,13.904,27.517,21.878,45.259,21.878h396.454c17.742,0,34.238-7.974,45.259-21.878
			C510.507,460.057,514.505,442.176,510.455,424.903z"/>
	</g>
</g>
<g>
	<g>
		<path d="M485.135,316.907L470.363,253.9c4.231-2.279,7.817-5.627,10.417-9.821c3.919-6.319,5.142-13.786,3.444-21.025
			c-7.124-30.383-24.515-57.792-48.97-77.176c-20.511-16.258-45.383-26.386-71.283-29.231V93.881
			c0-42.854-34.864-77.719-77.718-77.719h-69.834c-42.854,0-77.719,34.864-77.719,77.719v24.117
			c-22.512,4.034-43.92,13.586-61.955,27.881c-24.455,19.385-41.846,46.793-48.969,77.176c-1.697,7.239-0.473,14.706,3.445,21.026
			c2.601,4.193,6.186,7.541,10.416,9.819l-14.82,63.209c-0.919,3.927,1.516,7.855,5.442,8.775c0.561,0.132,1.121,0.195,1.673,0.195
			c3.313-0.001,6.312-2.271,7.101-5.636l14.819-63.208c0.253-0.009,0.499-0.041,0.75-0.056c0.38-0.023,0.76-0.047,1.136-0.085
			c0.407-0.041,0.81-0.097,1.212-0.155c0.371-0.054,0.74-0.108,1.106-0.176c0.398-0.074,0.79-0.164,1.182-0.255
			c0.361-0.084,0.721-0.166,1.076-0.264c0.386-0.106,0.765-0.228,1.145-0.35c0.349-0.112,0.698-0.222,1.042-0.348
			c0.374-0.137,0.739-0.289,1.106-0.442c0.336-0.139,0.672-0.276,1.001-0.428c0.36-0.166,0.71-0.349,1.062-0.531
			c0.321-0.166,0.643-0.327,0.957-0.504c0.345-0.195,0.679-0.407,1.015-0.617c0.304-0.19,0.61-0.374,0.906-0.575
			c0.329-0.223,0.644-0.464,0.963-0.701c0.286-0.213,0.575-0.42,0.853-0.644c0.311-0.25,0.607-0.518,0.906-0.782
			c0.266-0.234,0.536-0.462,0.793-0.706c0.291-0.277,0.566-0.571,0.845-0.861c0.245-0.254,0.495-0.501,0.731-0.765
			c0.271-0.304,0.523-0.624,0.781-0.94c0.221-0.271,0.45-0.534,0.661-0.814c0.251-0.333,0.481-0.683,0.718-1.027
			c0.194-0.283,0.398-0.559,0.582-0.85c0.23-0.364,0.437-0.744,0.65-1.12c0.166-0.292,0.343-0.575,0.499-0.874
			c0.21-0.402,0.394-0.822,0.585-1.237c0.133-0.289,0.28-0.57,0.404-0.865c0.199-0.473,0.368-0.963,0.542-1.45
			c0.09-0.253,0.195-0.497,0.279-0.753c0.244-0.751,0.459-1.517,0.643-2.298c8.872-37.841,42.214-64.269,81.08-64.269H348.94
			c38.867,0,72.208,26.429,81.08,64.27c0.165,0.704,0.364,1.391,0.578,2.069c0.039,0.123,0.077,0.248,0.117,0.37
			c0.215,0.648,0.453,1.283,0.712,1.906c0.049,0.117,0.1,0.233,0.151,0.349c0.277,0.642,0.57,1.274,0.891,1.886
			c0.325,0.619,0.677,1.217,1.045,1.804c0.059,0.094,0.116,0.19,0.177,0.284c0.362,0.564,0.744,1.112,1.143,1.645
			c0.066,0.088,0.134,0.174,0.201,0.261c0.845,1.099,1.767,2.129,2.757,3.082c0.065,0.063,0.129,0.127,0.195,0.19
			c0.489,0.462,0.994,0.904,1.513,1.329c0.074,0.06,0.149,0.119,0.224,0.179c1.083,0.866,2.227,1.65,3.424,2.346
			c0.068,0.039,0.135,0.08,0.203,0.119c0.587,0.335,1.187,0.647,1.797,0.939c0.083,0.04,0.167,0.078,0.25,0.117
			c1.256,0.585,2.556,1.078,3.892,1.473c0.08,0.024,0.16,0.049,0.24,0.072c0.647,0.185,1.303,0.345,1.965,0.482
			c0.103,0.022,0.207,0.041,0.311,0.061c0.677,0.133,1.358,0.247,2.047,0.329c0.021,0.003,0.042,0.004,0.063,0.006
			c0.671,0.079,1.349,0.127,2.03,0.156c0.067,0.003,0.134,0.013,0.201,0.015l14.773,63.008c0.921,3.927,4.859,6.36,8.774,5.441
			C483.62,324.761,486.056,320.833,485.135,316.907z M153.3,93.881h0.001c0-34.803,28.315-63.117,63.117-63.117h69.834
			c34.803,0,63.116,28.315,63.116,63.117v21.939c-0.144-0.001-0.287-0.001-0.431-0.001H338.66V93.88
			c0-28.898-23.51-52.408-52.408-52.408h-69.835c-28.898,0-52.408,23.51-52.408,52.408v21.939h-0.948
			c-1.495,0-2.989,0.032-4.481,0.081c-0.213,0.007-0.425,0.012-0.638,0.02c-1.489,0.056-2.976,0.136-4.46,0.24
			c-0.061,0.004-0.121,0.005-0.182,0.01V93.881z M324.06,93.88v21.939H178.611V93.88c0-20.846,16.96-37.807,37.807-37.807h69.835
			C307.099,56.073,324.06,73.034,324.06,93.88z M468.372,236.385c-1.863,3.005-4.785,5.104-8.227,5.911
			c-5.774,1.35-11.568-1.316-14.431-6.174c-0.137-0.232-0.254-0.477-0.377-0.719c-0.075-0.148-0.16-0.288-0.23-0.44
			c-0.369-0.798-0.662-1.644-0.871-2.532c-10.427-44.475-49.614-75.538-95.296-75.538H163.061
			c-45.682,0-84.869,31.063-95.296,75.537c-0.706,3.009-2.382,5.564-4.652,7.366c-2.27,1.803-5.135,2.853-8.218,2.853
			c-1.014,0-2.036-0.119-3.038-0.354c-3.442-0.807-6.364-2.906-8.227-5.911c-1.863-3.003-2.444-6.554-1.638-9.996
			c6.375-27.19,21.938-51.718,43.824-69.065c17.651-13.991,38.911-22.909,61.128-25.837c0.003,0,0.007,0,0.01-0.001
			c1.314-0.173,2.631-0.324,3.95-0.455c0.064-0.006,0.128-0.012,0.192-0.018c2.547-0.249,5.099-0.417,7.641-0.508
			c0.225-0.008,0.451-0.015,0.677-0.022c1.219-0.037,2.437-0.061,3.649-0.061h8.249h160.05h17.578c1.108,0,2.238,0.02,3.377,0.052
			c0.177,0.005,0.354,0.011,0.531,0.017c1.115,0.037,2.237,0.085,3.366,0.151c25.384,1.506,49.99,10.843,69.971,26.682
			c21.885,17.347,37.449,41.875,43.825,69.065C470.817,229.83,470.235,233.381,468.372,236.385z"/>
	</g>
</g>
<g>
	<g>
		<path d="M326.757,256.994c-39.018-39.016-102.498-39.016-141.514-0.001c-18.9,18.9-29.308,44.028-29.308,70.756
			c0,26.729,10.408,51.857,29.308,70.757c19.508,19.507,45.132,29.26,70.757,29.26s51.249-9.754,70.757-29.26
			C365.771,359.491,365.771,296.009,326.757,256.994z M316.431,388.18c-33.322,33.323-87.539,33.323-120.862,0
			c-16.142-16.141-25.031-37.602-25.031-60.431c0-22.828,8.889-44.289,25.032-60.43c16.661-16.662,38.545-24.992,60.431-24.992
			s43.77,8.33,60.431,24.992C349.752,300.641,349.752,354.858,316.431,388.18z"/>
	</g>
</g>
<g>
	<g>
		<path d="M262.82,314.545v-32.683c11.27,0.805,15.456,5.957,19.32,5.957c4.83,0,7.084-6.118,7.084-9.177
			c0-7.889-15.456-11.27-26.404-11.592v-4.347c0-1.932-2.415-3.703-4.83-3.703c-2.737,0-4.669,1.771-4.669,3.703v4.669
			c-15.294,1.61-30.589,9.66-30.589,29.946c0,20.608,16.099,26.404,30.589,31.556v37.834c-16.422-1.288-20.769-12.558-26.082-12.558
			c-4.025,0-7.406,5.313-7.406,9.177c0,7.889,13.523,18.676,33.487,18.998h0.001v4.992c0,1.932,1.932,3.703,4.669,3.703
			c2.415,0,4.83-1.771,4.83-3.703v-5.474c17.388-2.415,29.302-13.363,29.302-33.166C292.122,326.781,276.827,319.697,262.82,314.545
			z M254.286,311.485c-8.533-3.219-15.456-6.601-15.456-15.777c0-8.372,6.44-12.397,15.456-13.524V311.485z M261.853,366.386
			v-33.971c7.889,3.381,14.167,7.889,14.168,18.032C276.021,359.624,270.547,364.776,261.853,366.386z"/>
	</g>
</g>
<g>
</g>
<g>
</g>
<g>
</g>
<g>
</g>
<g>
</g>
<g>
</g>
<g>
</g>
<g>
</g>
<g>
</g>
<g>
</g>
<g>
</g>
<g>
</g>
<g>
</g>
<g>
</g>
<g>
</g>
</svg>
