<?xml version="1.0" encoding="iso-8859-1"?>
<!-- Generator: Adobe Illustrator 19.0.0, SVG Export Plug-In . SVG Version: 6.00 Build 0)  -->
<svg version="1.1" id="Capa_1" xmlns="http://www.w3.org/2000/svg" xmlns:xlink="http://www.w3.org/1999/xlink" x="0px" y="0px"
	 viewBox="0 0 512 512" style="enable-background:new 0 0 512 512;" xml:space="preserve">
<g>
	<g>
		<path d="M398.506,113.495c-78.578-78.576-206.433-78.576-285.011,0c-78.577,78.578-78.577,206.433,0,285.011
			c39.289,39.288,90.898,58.932,142.506,58.932c51.608,0,103.216-19.644,142.505-58.932
			C477.083,319.928,477.083,192.073,398.506,113.495z M388.188,388.188C352.88,423.497,305.934,442.943,256,442.943
			c-49.934,0-96.88-19.446-132.188-54.755C88.503,352.88,69.057,305.934,69.057,256c0-49.934,19.446-96.88,54.755-132.188
			C159.12,88.503,206.066,69.057,256,69.057s96.88,19.446,132.188,54.755c35.309,35.308,54.755,82.254,54.755,132.188
			S423.497,352.88,388.188,388.188z"/>
	</g>
</g>
<g>
	<g>
		<path d="M416.675,56.692c-3.137-2.532-7.73-2.04-10.259,1.094c-2.53,3.136-2.04,7.728,1.094,10.259
			c57.133,46.114,89.9,114.621,89.9,187.955c0,64.483-25.111,125.106-70.707,170.703C381.106,472.299,320.483,497.41,256,497.41
			c-40.426,0-80.421-10.186-115.658-29.456c-3.537-1.936-7.969-0.635-9.901,2.9c-1.933,3.535-0.635,7.968,2.9,9.901
			C170.72,501.196,213.135,512,256,512c68.38,0,132.667-26.629,181.019-74.981C485.371,388.667,512,324.38,512,256
			C512,178.235,477.255,105.59,416.675,56.692z"/>
	</g>
</g>
<g>
	<g>
		<path d="M376.928,30.307C339.999,10.48,298.182,0,256,0C187.62,0,123.333,26.629,74.981,74.981S0,187.62,0,256
			c0,76.947,34.149,149.107,93.691,197.978c1.356,1.114,2.995,1.657,4.624,1.657c2.108,0,4.2-0.91,5.642-2.667
			c2.557-3.115,2.105-7.711-1.009-10.267C46.795,396.612,14.59,328.562,14.59,256c0-64.483,25.111-125.106,70.707-170.703
			C130.894,39.701,191.517,14.59,256,14.59c39.782,0,79.212,9.88,114.026,28.571c3.552,1.908,7.973,0.574,9.878-2.976
			C381.81,36.635,380.478,32.213,376.928,30.307z"/>
	</g>
</g>
<g>
	<g>
		<path d="M256,21.585c-4.029,0-7.295,3.266-7.295,7.295v11.709c0,4.029,3.266,7.295,7.295,7.295s7.295-3.266,7.295-7.295V28.88
			C263.295,24.851,260.029,21.585,256,21.585z"/>
	</g>
</g>
<g>
	<g>
		<path d="M256,464.116c-4.029,0-7.295,3.265-7.295,7.295v11.709c0,4.029,3.266,7.295,7.295,7.295s7.295-3.266,7.295-7.295v-11.709
			C263.295,467.382,260.029,464.116,256,464.116z"/>
	</g>
</g>
<g>
	<g>
		<path d="M483.12,248.705h-11.709c-4.029,0-7.295,3.266-7.295,7.295s3.266,7.295,7.295,7.295h11.709
			c4.029,0,7.295-3.266,7.295-7.295C490.415,251.971,487.149,248.705,483.12,248.705z"/>
	</g>
</g>
<g>
	<g>
		<path d="M40.589,248.705H28.88c-4.029,0-7.295,3.266-7.295,7.295s3.266,7.295,7.295,7.295h11.709c4.03,0,7.295-3.266,7.295-7.295
			S44.618,248.705,40.589,248.705z"/>
	</g>
</g>
<g>
	<g>
		<path d="M421.757,90.243c-2.85-2.848-7.468-2.848-10.318,0l-8.279,8.279c-2.849,2.85-2.849,7.468,0,10.318
			c1.425,1.424,3.292,2.136,5.159,2.136c1.866,0,3.734-0.712,5.159-2.136l8.279-8.279C424.606,97.711,424.606,93.093,421.757,90.243
			z"/>
	</g>
</g>
<g>
	<g>
		<path d="M108.84,403.16c-2.85-2.848-7.468-2.848-10.318,0l-8.279,8.279c-2.849,2.85-2.849,7.468,0,10.318
			c1.425,1.424,3.292,2.136,5.159,2.136c1.867,0,3.734-0.712,5.159-2.136l8.279-8.279C111.689,410.628,111.689,406.01,108.84,403.16
			z"/>
	</g>
</g>
<g>
	<g>
		<path d="M421.757,411.439l-8.279-8.279c-2.85-2.848-7.468-2.848-10.318,0c-2.849,2.85-2.849,7.468,0,10.318l8.279,8.279
			c1.425,1.424,3.292,2.136,5.159,2.136c1.866,0,3.734-0.712,5.159-2.136C424.606,418.907,424.606,414.289,421.757,411.439z"/>
	</g>
</g>
<g>
	<g>
		<path d="M108.84,98.522l-8.279-8.279c-2.85-2.847-7.468-2.847-10.318,0c-2.849,2.85-2.849,7.468,0,10.318l8.279,8.279
			c1.425,1.424,3.292,2.136,5.159,2.136c1.867,0,3.734-0.712,5.159-2.136C111.689,105.99,111.689,101.372,108.84,98.522z"/>
	</g>
</g>
<g>
	<g>
		<path d="M350.176,41.333c-3.688-1.615-7.993,0.061-9.612,3.75l-4.705,10.722c-1.619,3.689,0.06,7.992,3.749,9.612
			c0.954,0.418,1.948,0.616,2.928,0.616c2.807,0,5.484-1.63,6.684-4.366l4.705-10.722C355.544,47.256,353.865,42.953,350.176,41.333
			z"/>
	</g>
</g>
<g>
	<g>
		<path d="M172.392,446.582c-3.687-1.615-7.993,0.06-9.612,3.75l-4.705,10.722c-1.619,3.689,0.06,7.992,3.749,9.612
			c0.954,0.418,1.948,0.616,2.928,0.616c2.807,0,5.484-1.63,6.684-4.366l4.705-10.722
			C177.76,452.505,176.081,448.202,172.392,446.582z"/>
	</g>
</g>
<g>
	<g>
		<path d="M466.917,340.563l-10.722-4.704c-3.689-1.618-7.992,0.059-9.612,3.749c-1.619,3.689,0.06,7.992,3.749,9.612l10.722,4.705
			c0.954,0.418,1.948,0.616,2.928,0.616c2.807,0,5.484-1.63,6.684-4.366C472.285,346.486,470.606,342.183,466.917,340.563z"/>
	</g>
</g>
<g>
	<g>
		<path d="M61.668,162.779l-10.722-4.705c-3.686-1.616-7.992,0.06-9.612,3.749c-1.619,3.689,0.06,7.992,3.749,9.612l10.722,4.705
			c0.954,0.419,1.949,0.617,2.928,0.617c2.808,0,5.484-1.63,6.684-4.366C67.036,168.702,65.357,164.399,61.668,162.779z"/>
	</g>
</g>
<g>
	<g>
		<path d="M474.383,170.8c-1.464-3.752-5.693-5.606-9.447-4.145l-10.908,4.255c-3.754,1.465-5.609,5.695-4.145,9.447
			c1.125,2.883,3.88,4.646,6.798,4.646c0.882,0,1.778-0.161,2.649-0.501l10.908-4.255
			C473.992,178.782,475.847,174.552,474.383,170.8z"/>
	</g>
</g>
<g>
	<g>
		<path d="M62.116,331.642c-1.465-3.754-5.693-5.606-9.447-4.145l-10.908,4.255c-3.754,1.465-5.609,5.695-4.145,9.448
			c1.125,2.882,3.88,4.645,6.798,4.645c0.881,0,1.778-0.161,2.649-0.501l10.908-4.255C61.725,339.624,63.58,335.394,62.116,331.642z
			"/>
	</g>
</g>
<g>
	<g>
		<path d="M345.344,464.936l-4.255-10.908c-1.464-3.754-5.692-5.608-9.447-4.145c-3.754,1.465-5.609,5.695-4.145,9.448l4.255,10.908
			c1.125,2.883,3.88,4.646,6.798,4.646c0.881,0,1.778-0.161,2.649-0.501C344.953,472.919,346.808,468.689,345.344,464.936z"/>
	</g>
</g>
<g>
	<g>
		<path d="M184.503,52.669l-4.255-10.908c-1.465-3.753-5.693-5.607-9.447-4.145c-3.754,1.465-5.609,5.695-4.145,9.447l4.255,10.908
			c1.125,2.883,3.88,4.646,6.798,4.646c0.881,0,1.778-0.161,2.649-0.501C184.112,60.651,185.967,56.421,184.503,52.669z"/>
	</g>
</g>
<g>
	<g>
		<path d="M334.477,298.715H283.81v-8.742h50.667c13.614,0,24.689-11.075,24.689-24.689s-11.075-24.689-24.689-24.689h-48.621
			l59.376-95.255c5.187-8.322,5.443-18.41,0.684-26.984c-4.76-8.573-13.455-13.692-23.261-13.692
			c-9.246,0-17.686,4.684-22.577,12.53L256,187.908l-44.079-70.711c-4.89-7.846-13.331-12.531-22.577-12.531
			c-9.806,0-18.501,5.119-23.261,13.692c-4.758,8.574-4.503,18.662,0.685,26.985l59.375,95.254h-48.621
			c-13.614,0-24.689,11.075-24.689,24.689c0,13.614,11.075,24.689,24.689,24.689h50.668v8.742h-50.667
			c-13.614,0-24.69,11.075-24.69,24.689c0,13.614,11.076,24.689,24.69,24.689h50.667v46.021c0,15.334,12.476,27.81,27.81,27.81
			c15.334,0,27.81-12.476,27.81-27.812v-46.021h50.667c13.614,0,24.69-11.075,24.69-24.689
			C359.167,309.79,348.091,298.715,334.477,298.715z M334.477,333.095h-54.604c-6.1,0-11.063,4.963-11.063,11.063v49.958
			c0,7.064-5.746,12.81-12.81,12.81c-7.064,0-12.81-5.747-12.81-12.81v-49.958c0-6.1-4.963-11.063-11.063-11.063h-54.604
			c-5.343,0-9.69-4.347-9.69-9.689s4.346-9.689,9.69-9.689h54.604c6.1,0,11.063-4.963,11.063-11.063v-16.617
			c0-6.1-4.963-11.063-11.063-11.063h-54.605c-5.342,0-9.689-4.347-9.689-9.689s4.346-9.689,9.689-9.689h54.605
			c6.1,0,11.063-4.963,11.063-11.063v-1.782c0-2.071-0.579-4.095-1.676-5.853l-62.017-99.491c-2.263-3.631-2.375-8.032-0.299-11.771
			c2.077-3.741,5.869-5.973,10.146-5.973c4.034,0,7.714,2.043,9.847,5.466l47.42,76.073c2.035,3.264,5.544,5.211,9.389,5.211
			c3.845,0,7.355-1.947,9.388-5.21l47.421-76.075c2.133-3.422,5.814-5.465,9.847-5.465c4.278,0,8.07,2.233,10.146,5.973
			s1.964,8.14-0.298,11.77l-62.018,99.492c-1.097,1.758-1.676,3.783-1.676,5.853v1.782c0,6.1,4.963,11.063,11.063,11.063h54.605
			c5.342,0,9.689,4.347,9.689,9.689s-4.346,9.689-9.689,9.689h-54.605c-6.1,0-11.063,4.963-11.063,11.063v16.617
			c0,6.1,4.963,11.063,11.063,11.063h54.604c5.343,0,9.69,4.347,9.69,9.689S339.821,333.095,334.477,333.095z"/>
	</g>
</g>
<g>
</g>
<g>
</g>
<g>
</g>
<g>
</g>
<g>
</g>
<g>
</g>
<g>
</g>
<g>
</g>
<g>
</g>
<g>
</g>
<g>
</g>
<g>
</g>
<g>
</g>
<g>
</g>
<g>
</g>
</svg>
