<?xml version="1.0" encoding="iso-8859-1"?>
<!-- Generator: Adobe Illustrator 19.0.0, SVG Export Plug-In . SVG Version: 6.00 Build 0)  -->
<svg version="1.1" id="Capa_1" xmlns="http://www.w3.org/2000/svg" xmlns:xlink="http://www.w3.org/1999/xlink" x="0px" y="0px"
	 viewBox="0 0 511.999 511.999" style="enable-background:new 0 0 511.999 511.999;" xml:space="preserve">
<g>
	<g>
		<path d="M486.087,120.265h-41.204c-4.029,0-7.294,3.266-7.294,7.294c0,4.028,3.265,7.294,7.294,7.294h41.204
			c6.245,0,11.326,5.081,11.326,11.326v92.683c0,30.918-25.154,56.071-56.071,56.071h-16.453v-12.02
			c0-6.238-4.441-11.458-10.327-12.665c-0.841-0.172-1.711-0.263-2.602-0.263h-4.089v-35.569c0-6.291-5.118-11.409-11.41-11.409
			h-33.586c-6.291,0-11.409,5.118-11.409,11.409v35.569h-4.09c-0.891,0-1.761,0.091-2.602,0.263
			c-5.886,1.207-10.326,6.427-10.326,12.665v12.02H177.553v-12.02c0-6.238-4.44-11.458-10.326-12.665
			c-0.841-0.172-1.711-0.263-2.602-0.263h-4.09v-35.569c0-6.291-5.118-11.409-11.409-11.409H115.54
			c-6.291,0-11.409,5.118-11.409,11.409v35.569h-4.09c-0.891,0-1.761,0.091-2.602,0.263c-5.886,1.207-10.326,6.427-10.326,12.665
			v12.02H70.659c-30.918,0-56.071-25.154-56.071-56.071v-92.683c0-6.245,5.081-11.326,11.326-11.326h372.719
			c4.029,0,7.294-3.266,7.294-7.294c0-4.028-3.265-7.294-7.294-7.294h-35.496V87.861c0-22.195-18.057-40.251-40.252-40.251h-6.556
			c-1.776-4.714-6.321-8.083-11.649-8.083h-97.36c-5.328,0-9.872,3.369-11.648,8.083h-6.556c-22.195,0-40.251,18.057-40.251,40.251
			v32.405H25.913C11.625,120.265,0,131.89,0,146.179v92.683v112.539c0,4.028,3.266,7.294,7.294,7.294s7.294-3.266,7.294-7.294
			v-69.613c12.926,16.845,33.246,27.733,56.071,27.733h16.453v5.561c0,7.128,5.8,12.928,12.928,12.928h4.09v18.776
			c0,15.551,12.651,28.202,28.202,28.202c15.551,0,28.202-12.651,28.202-28.202V328.01h4.09c7.129,0,12.929-5.8,12.929-12.928
			v-5.561h156.895v5.561c0,7.128,5.8,12.928,12.928,12.928h4.09v18.776c0,15.551,12.652,28.202,28.202,28.202
			s28.202-12.651,28.202-28.202V328.01h4.089c7.129,0,12.929-5.8,12.929-12.928v-5.561h16.453c22.825,0,43.145-10.888,56.071-27.733
			V446.56c0,6.245-5.081,11.326-11.326,11.326H25.913c-6.245,0-11.326-5.081-11.326-11.326v-48.909c0-4.028-3.266-7.294-7.294-7.294
			c-4.028,0-7.293,3.266-7.293,7.294v48.909c0,14.289,11.625,25.913,25.913,25.913h460.173c14.289,0,25.913-11.625,25.913-25.913
			V238.862v-92.683C512,131.89,500.376,120.265,486.087,120.265z M322.885,62.197c14.151,0,25.665,11.513,25.665,25.664v32.405
			h-12.643V87.861c0-7.181-5.842-13.022-13.021-13.022h-5.749V62.197H322.885z M209.452,54.112h93.097V82.88h-93.097V54.112z
			 M195.687,89.426c1.787,4.693,6.321,8.042,11.633,8.042h97.359c5.312,0,9.846-3.349,11.633-8.042h5.005v30.839H190.681V89.426
			H195.687z M163.452,87.861c0-14.151,11.513-25.664,25.664-25.664h5.749v12.642h-5.749c-7.18,0-13.022,5.842-13.022,13.022v32.405
			h-12.642V87.861z M145.947,237.594v32.391h-27.23c0,0,0-32.391,0-32.391H145.947z M145.947,346.786
			c0,7.507-6.107,13.615-13.615,13.615c-7.507,0-13.615-6.107-13.615-13.615V328.01h27.23V346.786z M162.965,302.227v11.195h-9.725
			h-41.817h-9.725v-11.195v-17.655h9.725h41.817h9.725V302.227z M366.054,237.594h27.23v32.391h-27.23V237.594z M393.283,346.786
			c0,7.507-6.107,13.615-13.615,13.615c-7.507,0-13.615-6.107-13.615-13.615V328.01h27.23V346.786z M410.302,302.227
			L410.302,302.227l0,11.195h-9.725H358.76h-9.725v-11.195v-17.655h9.725h41.817h9.725V302.227z"/>
	</g>
</g>
<g>
</g>
<g>
</g>
<g>
</g>
<g>
</g>
<g>
</g>
<g>
</g>
<g>
</g>
<g>
</g>
<g>
</g>
<g>
</g>
<g>
</g>
<g>
</g>
<g>
</g>
<g>
</g>
<g>
</g>
</svg>
