<?xml version="1.0" encoding="iso-8859-1"?>
<!-- Generator: Adobe Illustrator 19.0.0, SVG Export Plug-In . SVG Version: 6.00 Build 0)  -->
<svg version="1.1" id="Capa_1" xmlns="http://www.w3.org/2000/svg" xmlns:xlink="http://www.w3.org/1999/xlink" x="0px" y="0px"
	 viewBox="0 0 512.001 512.001" style="enable-background:new 0 0 512.001 512.001;" xml:space="preserve">
<g>
	<g>
		<path d="M221.716,109.298h-25.26v-25.26c0-4.024-3.262-7.287-7.287-7.287c-4.024,0-7.287,3.262-7.287,7.287v25.26h-25.26
			c-4.024,0-7.287,3.262-7.287,7.287c0,4.025,3.262,7.287,7.287,7.287h25.26v25.26c0,4.024,3.262,7.287,7.287,7.287
			c4.024,0,7.287-3.262,7.287-7.287v-25.26h25.26c4.024,0,7.287-3.262,7.287-7.287C229.003,112.56,225.74,109.298,221.716,109.298z"
			/>
	</g>
</g>
<g>
	<g>
		<path d="M394.564,37.89H117.436c-11.988,0-21.74,9.752-21.74,21.74v113.909c0,11.988,9.752,21.74,21.74,21.74h277.127
			c11.988,0,21.74-9.752,21.74-21.74V59.63h0.001C416.304,47.642,406.552,37.89,394.564,37.89z M394.564,180.706H117.436
			c-3.952,0-7.167-3.215-7.167-7.167V59.63c0-3.952,3.215-7.167,7.167-7.167h277.127c3.952,0,7.167,3.215,7.167,7.167v113.909h0.001
			C401.731,177.491,398.516,180.706,394.564,180.706z"/>
	</g>
</g>
<g>
	<g>
		<path d="M440.695,146.088c-4.024,0-7.287,3.262-7.287,7.287v323.597c0,11.279-9.176,20.456-20.456,20.456H99.047
			c-11.279,0-20.456-9.176-20.456-20.456v-69.624c0-4.024-3.262-7.287-7.287-7.287c-4.024,0-7.287,3.262-7.287,7.287v69.624
			c0,19.315,15.714,35.029,35.029,35.029h313.906c19.315,0,35.029-15.714,35.029-35.029V153.374
			C447.982,149.35,444.72,146.088,440.695,146.088z"/>
	</g>
</g>
<g>
	<g>
		<path d="M412.953,0H99.047C79.732,0,64.018,15.714,64.018,35.029v326.274c0,4.024,3.262,7.287,7.287,7.287
			c4.024,0,7.287-3.262,7.287-7.287V35.029c0-11.279,9.176-20.456,20.456-20.456h313.906c11.279,0,20.456,9.176,20.456,20.456
			v72.301c0,4.024,3.262,7.287,7.287,7.287c4.024,0,7.287-3.262,7.287-7.287V35.029C447.982,15.714,432.268,0,412.953,0z"/>
	</g>
</g>
<g>
	<g>
		<path d="M145.726,215.358h-33.672c-9.02,0-16.358,7.338-16.358,16.358v33.672c0,9.02,7.338,16.358,16.358,16.358h33.672
			c9.02,0,16.358-7.338,16.358-16.358v-33.672C162.084,222.696,154.746,215.358,145.726,215.358z M147.511,265.387
			c0,0.984-0.801,1.785-1.785,1.785h-33.672c-0.984,0-1.785-0.801-1.785-1.785v-33.672c0-0.984,0.801-1.785,1.785-1.785h33.672
			c0.984,0,1.785,0.801,1.785,1.785V265.387z"/>
	</g>
</g>
<g>
	<g>
		<path d="M230.466,215.357h-33.672c-9.02,0-16.358,7.338-16.358,16.358v33.672c0,9.02,7.338,16.358,16.358,16.358h33.672
			c9.02,0,16.358-7.338,16.358-16.358v-33.672C246.824,222.695,239.486,215.357,230.466,215.357z M232.251,265.388
			c0,0.984-0.801,1.785-1.785,1.785h-33.672c-0.984,0-1.785-0.801-1.785-1.785v-33.672c0-0.984,0.801-1.785,1.785-1.785h33.672
			c0.984,0,1.785,0.801,1.785,1.785V265.388z"/>
	</g>
</g>
<g>
	<g>
		<path d="M315.206,215.357h-33.672c-9.02,0-16.358,7.338-16.358,16.358v33.672c0,9.02,7.338,16.358,16.358,16.358h33.672
			c9.02,0,16.358-7.338,16.358-16.358v-33.672C331.564,222.695,324.226,215.357,315.206,215.357z M316.991,265.388
			c0,0.984-0.801,1.785-1.785,1.785h-33.672c-0.984,0-1.785-0.801-1.785-1.785v-33.672c0-0.984,0.801-1.785,1.785-1.785h33.672
			c0.984,0,1.785,0.801,1.785,1.785V265.388z"/>
	</g>
</g>
<g>
	<g>
		<path d="M399.946,215.357h-33.672c-9.02,0-16.358,7.338-16.358,16.358v33.672c0,9.02,7.338,16.358,16.358,16.358h33.672
			c9.02,0,16.358-7.338,16.358-16.358v-33.672C416.304,222.695,408.966,215.357,399.946,215.357z M401.731,265.388
			c0,0.984-0.801,1.785-1.785,1.785h-33.672c-0.984,0-1.785-0.801-1.785-1.785v-33.672c0-0.984,0.801-1.785,1.785-1.785h33.672
			c0.984,0,1.785,0.801,1.785,1.785V265.388z"/>
	</g>
</g>
<g>
	<g>
		<path d="M145.726,301.824h-33.672c-9.02,0-16.358,7.338-16.358,16.358v33.672c0,9.02,7.338,16.358,16.358,16.358h33.672
			c9.02,0,16.358-7.338,16.358-16.358v-33.672C162.084,309.162,154.746,301.824,145.726,301.824z M147.511,351.854
			c0,0.984-0.801,1.785-1.785,1.785h-33.672c-0.984,0-1.785-0.801-1.785-1.785v-33.672c0-0.984,0.801-1.785,1.785-1.785h33.672
			c0.984,0,1.785,0.801,1.785,1.785V351.854z"/>
	</g>
</g>
<g>
	<g>
		<path d="M230.466,301.824h-33.672c-9.02,0-16.358,7.338-16.358,16.358v33.672c0,9.02,7.338,16.358,16.358,16.358h33.672
			c9.02,0,16.358-7.338,16.358-16.358v-33.672C246.824,309.162,239.486,301.824,230.466,301.824z M232.251,351.854
			c0,0.984-0.801,1.785-1.785,1.785h-33.672c-0.984,0-1.785-0.801-1.785-1.785v-33.672c0-0.984,0.801-1.785,1.785-1.785h33.672
			c0.984,0,1.785,0.801,1.785,1.785V351.854z"/>
	</g>
</g>
<g>
	<g>
		<path d="M315.206,301.824h-33.672c-9.02,0-16.358,7.338-16.358,16.358v33.672c0,9.02,7.338,16.358,16.358,16.358h33.672
			c9.02,0,16.358-7.338,16.358-16.358v-33.672C331.564,309.162,324.226,301.824,315.206,301.824z M316.991,351.854
			c0,0.984-0.801,1.785-1.785,1.785h-33.672c-0.984,0-1.785-0.801-1.785-1.785v-33.672c0-0.984,0.801-1.785,1.785-1.785h33.672
			c0.984,0,1.785,0.801,1.785,1.785V351.854z"/>
	</g>
</g>
<g>
	<g>
		<path d="M145.726,388.291h-33.672c-9.02,0-16.358,7.338-16.358,16.358v33.672c0,9.02,7.338,16.358,16.358,16.358h33.672
			c9.02,0,16.358-7.338,16.358-16.358v-33.672C162.084,395.629,154.746,388.291,145.726,388.291z M147.511,438.321
			c0,0.984-0.801,1.785-1.785,1.785h-33.672c-0.984,0-1.785-0.801-1.785-1.785v-33.672c0-0.984,0.801-1.785,1.785-1.785h33.672
			c0.984,0,1.785,0.801,1.785,1.785V438.321z"/>
	</g>
</g>
<g>
	<g>
		<path d="M230.466,388.291h-33.672c-9.02,0-16.358,7.338-16.358,16.358v33.672c0,9.02,7.338,16.358,16.358,16.358h33.672
			c9.02,0,16.358-7.338,16.358-16.358v-33.672C246.824,395.629,239.486,388.291,230.466,388.291z M232.251,438.321
			c0,0.984-0.801,1.785-1.785,1.785h-33.672c-0.984,0-1.785-0.801-1.785-1.785v-33.672c0-0.984,0.801-1.785,1.785-1.785h33.672
			c0.984,0,1.785,0.801,1.785,1.785V438.321z"/>
	</g>
</g>
<g>
	<g>
		<path d="M315.206,388.291h-33.672c-9.02,0-16.358,7.338-16.358,16.358v33.672c0,9.02,7.338,16.358,16.358,16.358h33.672
			c9.02,0,16.358-7.338,16.358-16.358v-33.672C331.564,395.629,324.226,388.291,315.206,388.291z M316.991,438.321
			c0,0.984-0.801,1.785-1.785,1.785h-33.672c-0.984,0-1.785-0.801-1.785-1.785v-33.672c0-0.984,0.801-1.785,1.785-1.785h33.672
			c0.984,0,1.785,0.801,1.785,1.785V438.321z"/>
	</g>
</g>
<g>
	<g>
		<path d="M399.945,301.824h-33.672c-9.02,0-16.358,7.338-16.358,16.358v120.139c0,9.02,7.338,16.358,16.358,16.358h33.672
			c9.02,0,16.358-7.338,16.358-16.358V318.182C416.304,309.163,408.965,301.824,399.945,301.824z M401.731,438.321
			c0,0.984-0.801,1.785-1.785,1.785h-33.672c-0.984,0-1.785-0.801-1.785-1.785V318.182c0-0.984,0.801-1.785,1.785-1.785h33.672
			c0.984,0,1.785,0.801,1.785,1.785V438.321z"/>
	</g>
</g>
<g>
	<g>
		<path d="M325.698,109.932V87.226c7.83,0.559,10.738,4.138,13.422,4.138c3.356,0,4.922-4.25,4.922-6.375
			c0-5.48-10.738-7.829-18.344-8.053v-3.02c0-1.343-1.677-2.573-3.355-2.573c-1.902,0-3.244,1.231-3.244,2.573v3.244
			c-10.626,1.118-21.252,6.711-21.252,20.804c0,14.317,11.186,18.344,21.252,21.923v26.285c-11.409-0.894-14.429-8.724-18.12-8.724
			c-2.796,0-5.145,3.691-5.145,6.376c0,5.481,9.395,12.975,23.265,13.199v3.466c0,1.343,1.342,2.573,3.244,2.573
			c1.677,0,3.355-1.231,3.355-2.573v-3.803c12.08-1.677,20.357-9.283,20.357-23.041
			C346.055,118.433,335.429,113.511,325.698,109.932z M319.77,107.808c-5.928-2.237-10.738-4.586-10.738-10.961
			c0-5.816,4.474-8.612,10.738-9.395V107.808z M325.027,145.95v-23.601c5.481,2.349,9.843,5.481,9.843,12.528
			C334.87,141.252,331.067,144.832,325.027,145.95z"/>
	</g>
</g>
<g>
</g>
<g>
</g>
<g>
</g>
<g>
</g>
<g>
</g>
<g>
</g>
<g>
</g>
<g>
</g>
<g>
</g>
<g>
</g>
<g>
</g>
<g>
</g>
<g>
</g>
<g>
</g>
<g>
</g>
</svg>
