<?xml version="1.0" encoding="iso-8859-1"?>
<!-- Generator: Adobe Illustrator 19.0.0, SVG Export Plug-In . SVG Version: 6.00 Build 0)  -->
<svg version="1.1" id="Capa_1" xmlns="http://www.w3.org/2000/svg" xmlns:xlink="http://www.w3.org/1999/xlink" x="0px" y="0px"
	 viewBox="0 0 512 512" style="enable-background:new 0 0 512 512;" xml:space="preserve">
<g>
	<g>
		<path d="M504.713,154.34c-4.025,0-7.287,3.262-7.287,7.287v293.212c0,3.87-3.149,7.019-7.019,7.019H288.71
			c-4.025,0-7.287,3.262-7.287,7.287c0,4.024,3.262,7.287,7.287,7.287h201.698c11.906,0,21.592-9.686,21.592-21.592V161.626
			C512,157.602,508.738,154.34,504.713,154.34z"/>
	</g>
</g>
<g>
	<g>
		<path d="M490.408,6.352H21.592C9.686,6.352,0,16.038,0,27.944v426.894c0,11.906,9.686,21.592,21.592,21.592h15.083
			c4.025,0,7.287-3.262,7.287-7.287c0-4.024-3.262-7.287-7.287-7.287H21.592c-3.87,0-7.019-3.149-7.019-7.019V27.944
			c0-3.87,3.149-7.019,7.019-7.019h468.816c3.87,0,7.019,3.149,7.019,7.019v87.261c0,4.024,3.262,7.287,7.287,7.287
			c4.025,0,7.286-3.262,7.286-7.286V27.944C512,16.038,502.314,6.352,490.408,6.352z"/>
	</g>
</g>
<g>
	<g>
		<path d="M376.002,293.228h-37.447c-7.812,0-14.168,6.356-14.168,14.168v37.447c0,7.812,6.356,14.167,14.168,14.167h37.447
			c7.812,0,14.168-6.355,14.168-14.167v-37.447C390.17,299.584,383.814,293.228,376.002,293.228z M375.597,344.438H338.96v-36.636
			h36.637V344.438z"/>
	</g>
</g>
<g>
	<g>
		<path d="M457.254,293.228h-37.447c-7.812,0-14.168,6.356-14.168,14.168v37.447c0,7.812,6.356,14.167,14.168,14.167h37.447
			c7.812,0,14.168-6.355,14.168-14.167v-37.447C471.422,299.584,465.066,293.228,457.254,293.228z M456.849,344.438h-36.637v-36.636
			h36.637V344.438z"/>
	</g>
</g>
<g>
	<g>
		<path d="M376.002,372.761h-37.447c-7.812,0-14.168,6.356-14.168,14.168v37.447c0,7.812,6.356,14.168,14.168,14.168h37.447
			c7.812,0,14.168-6.356,14.168-14.168v-37.447C390.17,379.116,383.814,372.761,376.002,372.761z M375.597,423.97H338.96v-36.637
			h36.637V423.97z"/>
	</g>
</g>
<g>
	<g>
		<path d="M457.254,372.761h-37.447c-7.812,0-14.168,6.356-14.168,14.168v37.447c0,7.812,6.356,14.168,14.168,14.168h37.447
			c7.812,0,14.168-6.356,14.168-14.168v-37.447C471.422,379.116,465.066,372.761,457.254,372.761z M456.849,423.97h-36.637v-36.637
			h36.637V423.97z"/>
	</g>
</g>
<g>
	<g>
		<path d="M471.422,68.538c0-11.568-9.412-20.98-20.98-20.98H61.558c-11.568,0-20.98,9.412-20.98,20.98V232.75
			c0,11.568,9.412,20.98,20.98,20.98h388.884c11.568,0,20.98-9.411,20.98-20.98L471.422,68.538L471.422,68.538z M456.849,232.75
			L456.849,232.75c0,3.533-2.874,6.407-6.407,6.407H61.558c-3.533,0-6.407-2.874-6.407-6.407V68.538
			c0-3.533,2.874-6.407,6.407-6.407h388.884c3.533,0,6.407,2.874,6.407,6.407V232.75z"/>
	</g>
</g>
<g>
	<g>
		<path d="M287.227,313.317c0-11.077-9.011-20.089-20.088-20.089H60.667c-11.077,0-20.089,9.012-20.089,20.089
			c0,11.077,9.012,20.089,20.089,20.089h10.549l-13.037,121.82l-3.445,32.185c-0.115,1.081-0.116,2.15-0.023,3.201
			c0.006,0.071,0.003,0.143,0.01,0.213c0.013,0.124,0.041,0.244,0.057,0.367c0.4,3.216,1.751,6.224,3.983,8.707l0.001,0.001
			c0.005,0.006,0.012,0.011,0.017,0.017c2.832,3.142,6.844,5.12,11.234,5.606c0.699,0.077,1.405,0.125,2.12,0.125h183.542
			c5.214,0,10.088-2.095,13.371-5.749c3.09-3.438,4.52-7.874,4.026-12.491L256.59,333.405h10.55
			C278.215,333.406,287.227,324.394,287.227,313.317z M60.667,318.833c-3.042,0-5.516-2.474-5.516-5.516
			c0-3.041,2.474-5.516,5.516-5.516h13.289l-1.181,11.032H60.667z M102.954,491.075H72.132c-1.086,0-2.009-0.334-2.532-0.917
			c-0.307-0.341-0.426-0.723-0.376-1.198l3.769-35.205c17.028,3.05,29.991,17.971,29.991,35.862
			C102.983,490.104,102.973,490.59,102.954,491.075z M117.519,491.075c0.014-0.486,0.037-0.972,0.037-1.457
			c0-25.405-18.672-46.526-43.011-50.375l14.067-131.442h150.581l14.067,131.442c-24.339,3.849-43.01,24.97-43.01,50.374
			c0,0.487,0.022,0.972,0.036,1.458H117.519z M258.581,488.96c0.05,0.476-0.068,0.857-0.375,1.198
			c-0.524,0.583-1.447,0.917-2.532,0.917h-30.823c-0.019-0.486-0.028-0.972-0.028-1.457c0-17.89,12.964-32.811,29.99-35.862
			L258.581,488.96z M255.03,318.833l-1.181-11.032h13.29c3.041,0,5.515,2.474,5.515,5.516s-2.474,5.516-5.515,5.516H255.03z"/>
	</g>
</g>
<g>
	<g>
		<path d="M232.813,376.104c-2.191-29.886-32.46-53.296-68.911-53.296s-66.72,23.41-68.911,53.296
			c-1.004,13.687,3.978,27.18,14.028,37.993c13.09,14.085,33.094,22.163,54.883,22.163s41.793-8.078,54.883-22.163
			C228.835,403.284,233.817,389.791,232.813,376.104z M208.111,404.176c-10.343,11.128-26.455,17.51-44.209,17.51
			c-17.754,0-33.866-6.382-44.209-17.51c-7.366-7.926-10.882-17.265-10.169-27.007c1.637-22.312,25.522-39.789,54.378-39.789
			c28.856,0,52.741,17.477,54.378,39.789C218.993,386.911,215.477,396.25,208.111,404.176z"/>
	</g>
</g>
<g>
	<g>
		<path d="M202.976,376.73h-2.928c-1.01-9.591-6.058-19.183-18.78-19.183c-12.923,0-16.558,10.096-19.789,19.183h-23.727
			c0.807-10.298,7.875-13.024,7.875-16.356c0-2.524-3.332-4.644-5.755-4.644c-4.947,0-11.712,8.481-11.914,21.001v-0.001h-3.13
			c-1.211,0-2.322,1.212-2.322,2.928c0,1.515,1.11,3.029,2.322,3.029h3.433c1.514,10.905,8.38,18.376,20.799,18.376
			c13.731,0,18.174-9.592,21.405-18.376h20.496c-0.505,7.068-3.736,9.693-3.736,12.116c0,3.029,3.837,4.443,5.755,4.443
			c4.948,0,7.068-9.693,7.27-16.559h2.726c1.211,0,2.322-1.515,2.322-3.029C205.298,377.942,204.188,376.73,202.976,376.73z
			 M147.95,390.968c-5.755,0-8.986-3.433-9.996-8.885h21.304C157.138,387.03,154.311,390.968,147.95,390.968z M172.383,377.337
			c2.02-5.351,4.14-9.692,9.895-9.693c5.25,0,7.774,4.039,8.481,9.693H172.383z"/>
	</g>
</g>
<g>
	<g>
		<path d="M186.888,186.518l-22.131-72.192c-1.301-4.142-6.627-6.154-12.071-6.154c-5.444,0-10.769,2.012-12.071,6.154
			l-22.013,72.192c-0.118,0.473-0.236,0.947-0.236,1.302c0,4.378,6.745,7.574,11.836,7.574c2.958,0,5.325-0.947,6.035-3.432
			l4.023-14.793h24.971l4.023,14.793c0.71,2.485,3.077,3.432,6.036,3.432c5.089,0,11.835-3.195,11.835-7.574
			C187.125,187.465,187.007,186.991,186.888,186.518z M144.046,162.967l8.64-31.717l8.64,31.717H144.046z"/>
	</g>
</g>
<g>
	<g>
		<path d="M273.516,108.882H222.39c-3.906,0-5.562,4.26-5.562,8.166c0,4.497,2.012,8.402,5.562,8.402h16.333v64.263
			c0,3.787,4.616,5.681,9.231,5.681s9.23-1.894,9.23-5.681V125.45h16.332c3.551,0,5.563-3.905,5.563-8.402
			C279.079,113.142,277.422,108.882,273.516,108.882z"/>
	</g>
</g>
<g>
	<g>
		<path d="M384.403,108.882c-6.628,0-9.467,0.71-14.32,9.231l-12.189,21.303l-12.19-21.303c-4.851-8.521-7.692-9.231-14.319-9.231
			c-4.616,0-9.231,2.485-9.231,9.231v71.6c0,3.787,4.615,5.681,9.231,5.681c4.615,0,9.23-1.894,9.23-5.681V144.15l11.243,20.592
			c1.42,2.722,3.669,3.432,5.799,3.432c2.249,0,4.616-0.828,6.154-3.432l11.361-19.409v44.38c0,3.787,4.615,5.681,9.231,5.681
			c4.615,0,9.23-1.894,9.23-5.681v-71.6C393.633,111.367,389.136,108.882,384.403,108.882z"/>
	</g>
</g>
<g>
</g>
<g>
</g>
<g>
</g>
<g>
</g>
<g>
</g>
<g>
</g>
<g>
</g>
<g>
</g>
<g>
</g>
<g>
</g>
<g>
</g>
<g>
</g>
<g>
</g>
<g>
</g>
<g>
</g>
</svg>
