<?xml version="1.0" encoding="iso-8859-1"?>
<!-- Generator: Adobe Illustrator 19.0.0, SVG Export Plug-In . SVG Version: 6.00 Build 0)  -->
<svg version="1.1" id="Capa_1" xmlns="http://www.w3.org/2000/svg" xmlns:xlink="http://www.w3.org/1999/xlink" x="0px" y="0px"
	 viewBox="0 0 511.999 511.999" style="enable-background:new 0 0 511.999 511.999;" xml:space="preserve">
<g>
	<g>
		<path d="M429.596,73.081H25.659C11.51,73.081,0,84.591,0,98.74v202.175c0,14.148,11.51,25.659,25.659,25.659H41.14
			c4.025,0,7.287-3.262,7.287-7.286c0-4.024-3.262-7.287-7.287-7.287H25.659c-6.113,0-11.086-4.973-11.086-11.086V98.74
			c0-6.113,4.974-11.086,11.086-11.086h403.937c6.113,0,11.085,4.973,11.085,11.086v70.821c0,4.024,3.262,7.286,7.287,7.286
			c4.025,0,7.286-3.262,7.286-7.286V98.74C455.254,84.591,443.744,73.081,429.596,73.081z"/>
	</g>
</g>
<g>
	<g>
		<path d="M426.464,128.047c-11.621-5.119-20.78-14.37-25.787-26.048c-2.131-4.968-7.022-8.178-12.46-8.178H67.038
			c-5.438,0-10.329,3.21-12.461,8.179c-5.006,11.677-14.164,20.927-25.787,26.047c-4.891,2.155-8.051,7.024-8.051,12.405v118.752
			c0,5.381,3.16,10.25,8.051,12.405c2.831,1.247,5.564,2.77,8.121,4.527c1.261,0.866,2.697,1.282,4.119,1.281
			c2.32,0,4.6-1.105,6.012-3.161c2.279-3.317,1.437-7.853-1.88-10.132c-3.11-2.137-6.421-4.006-9.851-5.563V141.094
			c14.491-6.571,25.947-18.143,32.376-32.701h319.88c6.431,14.558,17.887,26.13,32.376,32.701v28.527
			c0,4.024,3.262,7.286,7.286,7.286c4.024,0,7.286-3.262,7.286-7.286v-29.169C434.515,135.07,431.355,130.201,426.464,128.047z"/>
	</g>
</g>
<g>
	<g>
		<path d="M302.623,166.893c-13.077-29.74-42.515-48.956-74.995-48.956c-32.456,0-61.883,19.194-74.972,48.901
			c-1.622,3.683,0.047,7.983,3.73,9.606c3.686,1.623,7.984-0.048,9.606-3.73c10.761-24.423,34.954-40.203,61.636-40.203
			c26.702,0,50.903,15.798,61.655,40.248c1.2,2.729,3.871,4.355,6.674,4.355c0.979,0,1.975-0.199,2.929-0.618
			C302.57,174.877,304.244,170.578,302.623,166.893z"/>
	</g>
</g>
<g>
	<g>
		<path d="M486.341,185.425H232.513v-18.591c9.416,0.673,12.914,4.977,16.142,4.977c4.036,0,5.919-5.111,5.919-7.667
			c0-6.591-12.914-9.416-22.061-9.685v-3.632c0-1.614-2.018-3.094-4.035-3.094c-2.287,0-3.901,1.48-3.901,3.094v3.901
			c-12.779,1.345-25.558,8.071-25.558,25.02c0,2.067,0.202,3.947,0.564,5.677H82.403c-14.148,0-25.658,11.51-25.658,25.659V413.26
			c0,14.148,11.51,25.659,25.658,25.659H486.34c14.149,0,25.659-11.51,25.659-25.659V211.085
			C512,196.937,500.49,185.425,486.341,185.425z M225.384,167.104v18.321h-10.54c-1.49-1.794-2.374-4.039-2.374-7.022
			C212.471,171.409,217.851,168.046,225.384,167.104z M486.341,424.346H82.403c-6.113,0-11.085-4.973-11.085-11.086V211.085
			c0-6.113,4.972-11.086,11.085-11.086H486.34c6.113,0,11.086,4.973,11.086,11.086V413.26h0.001
			C497.427,419.372,492.453,424.346,486.341,424.346z"/>
	</g>
</g>
<g>
	<g>
		<path d="M483.21,240.391c-11.622-5.12-20.781-14.37-25.788-26.048c-2.131-4.968-7.022-8.178-12.46-8.178H123.783
			c-5.438,0-10.329,3.21-12.461,8.179c-5.006,11.677-14.163,20.927-25.786,26.047c-4.891,2.155-8.051,7.024-8.051,12.405v118.752
			c0,5.381,3.16,10.25,8.051,12.405c11.623,5.12,20.781,14.37,25.787,26.048c2.131,4.968,7.022,8.178,12.46,8.178h321.179
			c5.438,0,10.329-3.21,12.461-8.179c5.006-11.677,14.164-20.927,25.787-26.047c4.891-2.155,8.051-7.024,8.051-12.405V252.797
			C491.261,247.414,488.101,242.546,483.21,240.391z M476.688,370.906c-14.491,6.571-25.947,18.143-32.376,32.701h-319.88
			c-6.429-14.557-17.886-26.13-32.376-32.701V253.438c14.49-6.571,25.947-18.143,32.376-32.701h319.88
			c6.429,14.557,17.886,26.13,32.376,32.701V370.906z"/>
	</g>
</g>
<g>
	<g>
		<path d="M284.372,230.283c-45.154,0-81.889,36.735-81.889,81.889s36.735,81.889,81.889,81.889c45.155,0,81.89-36.735,81.89-81.889
			C366.262,267.018,329.527,230.283,284.372,230.283z M284.372,379.489c-37.119,0-67.316-30.198-67.316-67.316
			c0-37.119,30.197-67.316,67.316-67.316s67.317,30.198,67.317,67.316S321.49,379.489,284.372,379.489z"/>
	</g>
</g>
<g>
	<g>
		<path d="M289.079,303.428v-27.307c9.416,0.672,12.913,4.977,16.142,4.977c4.036,0,5.919-5.111,5.919-7.667
			c0-6.591-12.914-9.416-22.061-9.685v-3.632c0-1.614-2.018-3.094-4.035-3.094c-2.287,0-3.901,1.479-3.901,3.094v3.901
			c-12.779,1.345-25.558,8.071-25.558,25.02c0,17.218,13.452,22.061,25.558,26.365v31.611
			c-13.721-1.076-17.353-10.492-21.792-10.492c-3.363,0-6.188,4.439-6.188,7.668c0,6.591,11.299,15.604,27.979,15.873v4.17
			c0,1.614,1.614,3.094,3.901,3.094c2.018,0,4.035-1.479,4.035-3.094v-4.573c14.528-2.018,24.482-11.165,24.482-27.71
			C313.561,313.651,300.782,307.732,289.079,303.428z M281.95,300.872c-7.13-2.69-12.914-5.515-12.914-13.182
			c0-6.995,5.38-10.358,12.914-11.299V300.872z M288.272,346.742v-28.383c6.591,2.825,11.837,6.591,11.837,15.066
			C300.11,341.094,295.536,345.398,288.272,346.742z"/>
	</g>
</g>
<g>
</g>
<g>
</g>
<g>
</g>
<g>
</g>
<g>
</g>
<g>
</g>
<g>
</g>
<g>
</g>
<g>
</g>
<g>
</g>
<g>
</g>
<g>
</g>
<g>
</g>
<g>
</g>
<g>
</g>
</svg>
