<?xml version="1.0" ?><!DOCTYPE svg  PUBLIC '-//W3C//DTD SVG 1.0//EN'  'http://www.w3.org/TR/2001/REC-SVG-20010904/DTD/svg10.dtd'><svg height="128px" style="shape-rendering:geometricPrecision; text-rendering:geometricPrecision; image-rendering:optimizeQuality; fill-rule:evenodd; clip-rule:evenodd" version="1.0" viewBox="0 0 22639 27081" width="107px" xml:space="preserve" xmlns="http://www.w3.org/2000/svg" xmlns:xlink="http://www.w3.org/1999/xlink"><defs><style type="text/css">
   <![CDATA[
    .fil0 {fill:#E6C131}
   ]]>
  </style></defs><g id="Layer_x0020_1"><path class="fil0" d="M0 0l18830 0 0 9463c-560,0 -1037,352 -1223,847 -226,-186 -507,-289 -795,-297l0 -7995 -14794 0 0 23045 14794 0 0 -696c297,-14 587,-124 834,-328l1184 -973 0 4015 -18830 0 0 -27081zm4145 14946l6083 0 0 1056 -6083 0 0 -1056zm0 -10371l10843 0 0 1057 -10843 0 0 -1057zm0 5185l10843 0 0 1057 -10843 0 0 -1057zm0 -2592l10843 0 0 1056 -10843 0 0 -1056zm0 5185l9362 0 0 1056 -9362 0 0 -1056zm17037 166c367,-61 750,106 947,448 197,341 150,756 -86,1043 348,131 596,467 596,861 0,395 -248,731 -596,861 236,288 283,703 86,1044 -197,341 -580,509 -947,448 61,367 -106,750 -447,947 -342,197 -757,150 -1044,-86 -131,348 -467,596 -861,596 -394,0 -730,-248 -861,-596 -288,236 -703,283 -1044,86 -341,-197 -508,-580 -448,-947 -367,61 -749,-107 -946,-448 -197,-341 -151,-756 85,-1044 -348,-130 -596,-466 -596,-861 0,-394 248,-730 596,-861 -236,-287 -282,-702 -85,-1043 197,-342 579,-509 946,-448 -60,-367 107,-750 448,-947 341,-197 756,-150 1044,86 131,-348 467,-596 861,-596 394,0 730,248 861,596 287,-236 702,-283 1044,-86 341,197 508,580 447,947zm-2352 396c1080,0 1956,876 1956,1956 0,1081 -876,1956 -1956,1956 -1080,0 -1956,-875 -1956,-1956 0,-1080 876,-1956 1956,-1956zm2089 6412l0 3611 -2089 -1719 -2089 1719 0 -3611c282,93 580,123 870,91 346,254 770,400 1219,400 449,0 873,-146 1218,-400 291,32 588,2 871,-91z"/></g></svg>