<svg id="svg" version="1.1" width="400" height="300" xmlns="http://www.w3.org/2000/svg" xmlns:xlink="http://www.w3.org/1999/xlink" style="display: block;"><g id="svgg"><path id="path0" d="M44.445 53.918 C 38.713 57.206,33.490 63.172,29.930 70.500 L 27.500 75.500 27.500 150.000 L 27.500 224.500 29.921 229.500 C 43.178 256.882,74.327 255.777,85.750 227.519 C 87.897 222.208,88.001 220.661,88.018 193.727 L 88.036 165.500 91.066 171.000 C 97.540 182.751,106.387 188.409,117.397 187.838 L 123.915 187.500 126.003 194.000 C 127.830 199.689,130.293 204.250,136.000 212.510 C 136.825 213.704,138.705 216.440,140.177 218.590 C 141.650 220.741,144.682 224.975,146.915 228.000 C 149.149 231.025,151.389 234.400,151.894 235.500 C 158.640 250.201,181.410 253.556,195.248 241.888 L 200.000 237.881 204.752 241.888 C 218.590 253.556,241.360 250.201,248.106 235.500 C 248.611 234.400,250.851 231.025,253.085 228.000 C 255.318 224.975,258.350 220.741,259.823 218.590 C 261.295 216.440,263.175 213.704,264.000 212.510 C 269.707 204.250,272.170 199.689,273.997 194.000 L 276.085 187.500 282.603 187.838 C 293.613 188.409,302.460 182.751,308.934 171.000 L 311.964 165.500 311.982 193.727 C 311.999 220.661,312.103 222.208,314.250 227.519 C 325.682 255.799,356.812 256.903,370.079 229.500 L 372.500 224.500 372.500 150.000 L 372.500 75.500 370.079 70.500 C 366.503 63.112,360.364 56.218,354.896 53.447 L 350.066 51.000 293.783 51.022 C 241.419 51.042,237.221 51.171,233.500 52.872 C 229.283 54.799,221.850 61.652,219.747 65.554 C 218.635 67.614,214.304 73.986,204.486 88.000 C 199.698 94.835,200.651 95.506,186.931 75.634 C 168.246 48.572,176.238 50.998,105.782 51.009 L 49.500 51.019 44.445 53.918 M161.203 69.068 C 163.321 70.052,168.387 75.863,172.000 81.453 C 176.893 89.023,185.507 101.176,186.654 102.128 C 187.394 102.742,188.010 103.752,188.022 104.372 C 188.034 104.993,188.924 106.625,190.000 108.000 C 191.815 110.320,191.955 112.188,191.945 134.000 L 191.934 157.500 189.217 162.151 C 187.723 164.709,184.363 169.793,181.750 173.449 C 176.094 181.363,176.113 180.110,181.544 187.500 C 195.103 205.946,196.156 220.084,184.643 229.081 C 176.610 235.358,168.976 232.254,159.846 219.000 C 145.427 198.069,143.532 195.338,141.575 192.666 C 139.831 190.285,139.500 188.366,139.500 180.646 C 139.500 170.594,139.164 171.370,150.212 155.895 C 160.781 141.091,160.000 142.799,160.000 134.479 C 160.000 126.573,157.535 121.295,149.620 112.250 L 147.651 110.000 110.826 110.000 L 74.000 110.000 74.000 161.841 C 74.000 217.144,73.808 219.615,69.040 225.676 C 60.894 236.032,48.986 233.674,42.894 220.500 C 41.153 216.737,41.043 212.563,41.022 149.929 L 41.000 83.359 43.750 77.930 C 45.348 74.776,47.923 71.559,49.898 70.251 L 53.296 68.000 106.101 68.000 C 141.430 68.000,159.666 68.353,161.203 69.068 M350.102 70.251 C 352.077 71.559,354.652 74.776,356.250 77.930 L 359.000 83.359 359.000 150.065 L 359.000 216.772 356.201 222.129 C 350.062 233.881,338.673 235.481,330.960 225.676 C 326.192 219.615,326.000 217.144,326.000 161.841 L 326.000 110.000 289.174 110.000 L 252.349 110.000 250.380 112.250 C 239.034 125.216,236.536 137.283,243.250 146.696 C 245.037 149.202,247.175 152.257,248.000 153.484 C 248.825 154.712,251.975 159.268,255.000 163.608 L 260.500 171.500 260.500 180.666 C 260.500 188.366,260.168 190.286,258.425 192.666 C 256.138 195.788,246.370 209.868,244.000 213.457 C 231.556 232.304,224.433 236.206,215.419 229.115 C 203.885 220.043,204.916 205.920,218.456 187.500 C 223.887 180.110,223.906 181.363,218.250 173.449 C 215.637 169.793,212.277 164.709,210.783 162.151 L 208.066 157.500 208.055 134.000 C 208.045 112.188,208.185 110.320,210.000 108.000 C 211.076 106.625,211.966 104.993,211.978 104.372 C 211.990 103.752,212.606 102.742,213.346 102.128 C 214.493 101.176,223.107 89.023,228.000 81.453 C 231.389 76.209,236.625 70.065,238.500 69.131 C 239.747 68.510,260.488 68.110,293.602 68.068 L 346.704 68.000 350.102 70.251 M127.186 133.959 C 135.106 142.884,135.106 156.116,127.186 165.041 C 117.024 176.491,100.590 166.888,100.590 149.500 C 100.590 132.112,117.024 122.509,127.186 133.959 M291.524 132.155 C 302.286 141.604,302.229 157.446,291.398 166.955 C 281.382 175.750,267.011 165.464,267.011 149.500 C 267.011 133.378,281.356 123.228,291.524 132.155 M202.487 178.620 C 204.135 181.135,204.119 181.325,202.102 183.343 L 200.000 185.444 197.898 183.343 C 195.820 181.265,197.328 176.000,200.000 176.000 C 200.423 176.000,201.543 177.179,202.487 178.620 " stroke="none" fill="#000000" fill-rule="evenodd"></path></g></svg>