<?xml version='1.0' encoding='iso-8859-1'?>
<!DOCTYPE svg PUBLIC '-//W3C//DTD SVG 1.1//EN' 'http://www.w3.org/Graphics/SVG/1.1/DTD/svg11.dtd'>
<svg version="1.1" xmlns="http://www.w3.org/2000/svg" viewBox="0 0 448.479 448.479" xmlns:xlink="http://www.w3.org/1999/xlink" enable-background="new 0 0 448.479 448.479">
  <g>
    <path d="m440.979,60.742h-433.479c-4.142,0-7.5,3.358-7.5,7.5v311.994c0,4.142 3.358,7.5 7.5,7.5h433.479c4.143,0 7.5-3.358 7.5-7.5v-311.994c0-4.142-3.358-7.5-7.5-7.5zm-7.5,15v32.007h-418.479v-32.007h418.479zm-418.479,296.994v-249.987h418.479v249.987h-418.479z"/>
    <path d="m39.292,99.248c1.97,0 3.9-0.8 5.3-2.2 1.39-1.4 2.19-3.33 2.19-5.3 0-1.98-0.8-3.91-2.19-5.31-1.4-1.39-3.33-2.19-5.3-2.19-1.98,0-3.91,0.8-5.31,2.19-1.39,1.4-2.2,3.33-2.2,5.31 0,1.97 0.81,3.9 2.2,5.3 1.4,1.4 3.33,2.2 5.31,2.2z"/>
    <path d="m64.922,99.248c1.98,0 3.91-0.8 5.31-2.2 1.39-1.4 2.19-3.33 2.19-5.3 0-1.98-0.8-3.91-2.19-5.31-1.4-1.39-3.33-2.19-5.31-2.19-1.97,0-3.9,0.8-5.3,2.19-1.4,1.4-2.2,3.34-2.2,5.31 0,1.97 0.8,3.9 2.2,5.3 1.4,1.4 3.33,2.2 5.3,2.2z"/>
    <path d="m90.562,99.248c1.98,0 3.91-0.8 5.31-2.2 1.39-1.4 2.19-3.33 2.19-5.3 0-1.98-0.8-3.91-2.19-5.31-1.4-1.39-3.33-2.19-5.31-2.19-1.97,0-3.9,0.8-5.3,2.19-1.4,1.4-2.2,3.33-2.2,5.31 0,1.97 0.8,3.9 2.2,5.3 1.4,1.4 3.33,2.2 5.3,2.2z"/>
    <path d="m275.843,225.606h-9.402v-39.658c0-23.27-18.932-42.201-42.201-42.201-23.27,0-42.201,18.931-42.201,42.201v19.296c0,4.142 3.358,7.5 7.5,7.5s7.5-3.358 7.5-7.5v-19.296c0-14.999 12.203-27.201 27.201-27.201 14.999,0 27.201,12.203 27.201,27.201v39.658h-78.805c-4.142,0-7.5,3.358-7.5,7.5v103.208c0,4.142 3.358,7.5 7.5,7.5h103.208c4.143,0 7.5-3.358 7.5-7.5v-103.208c-0.001-4.142-3.359-7.5-7.501-7.5zm-7.5,103.208h-88.208v-88.208h88.208v88.208z"/>
  </g>
</svg>
