<?xml version='1.0' encoding='iso-8859-1'?>
<!DOCTYPE svg PUBLIC '-//W3C//DTD SVG 1.1//EN' 'http://www.w3.org/Graphics/SVG/1.1/DTD/svg11.dtd'>
<svg version="1.1" xmlns="http://www.w3.org/2000/svg" viewBox="0 0 453.71 453.71" xmlns:xlink="http://www.w3.org/1999/xlink" enable-background="new 0 0 453.71 453.71">
  <g>
    <path d="m322.48,192.022h-279.25c-20.884,0-37.875,16.991-37.875,37.875v153.25c0,20.884 16.991,37.875 37.875,37.875h17.436l-5.938,23.339c-0.713,2.805 0.251,5.771 2.478,7.62 1.373,1.14 3.074,1.729 4.792,1.729 1.07,0 2.146-0.229 3.154-0.696l68.983-31.992h188.345c20.885,0 37.875-16.991 37.875-37.875v-153.25c0-20.885-16.99-37.875-37.875-37.875zm22.875,191.125c0,12.613-10.262,22.875-22.875,22.875h-190c-1.09,0-2.167,0.238-3.155,0.696l-56.169,26.049 4.426-17.396c0.571-2.243 0.073-4.625-1.348-6.453s-3.606-2.896-5.921-2.896h-27.083c-12.613,0-22.875-10.262-22.875-22.875v-153.25c0-12.613 10.262-22.875 22.875-22.875h279.25c12.613,0 22.875,10.262 22.875,22.875v153.25z"/>
    <path d="m303.855,236.022h-242c-4.142,0-7.5,3.358-7.5,7.5s3.358,7.5 7.5,7.5h242c4.143,0 7.5-3.358 7.5-7.5s-3.358-7.5-7.5-7.5z"/>
    <path d="m303.855,277.355h-242c-4.142,0-7.5,3.358-7.5,7.5s3.358,7.5 7.5,7.5h242c4.143,0 7.5-3.358 7.5-7.5s-3.358-7.5-7.5-7.5z"/>
    <path d="m303.855,318.688h-242c-4.142,0-7.5,3.358-7.5,7.5s3.358,7.5 7.5,7.5h242c4.143,0 7.5-3.358 7.5-7.5s-3.358-7.5-7.5-7.5z"/>
    <path d="m303.855,360.022h-242c-4.142,0-7.5,3.358-7.5,7.5s3.358,7.5 7.5,7.5h242c4.143,0 7.5-3.358 7.5-7.5s-3.358-7.5-7.5-7.5z"/>
    <path d="m410.48,0h-126c-20.885,0-37.875,16.991-37.875,37.875v89.901c0,20.884 16.99,37.875 37.875,37.875h32.179l60.244,27.939c1.004,0.466 2.081,0.696 3.155,0.696 1.391,0 2.775-0.387 3.989-1.149 2.151-1.351 3.473-3.7 3.51-6.24l.313-21.246h22.609c20.885,0 37.875-16.991 37.875-37.875v-89.901c0.001-20.884-16.989-37.875-37.874-37.875zm22.875,127.776c0,12.613-10.262,22.875-22.875,22.875h-30c-4.099,0-7.438,3.291-7.499,7.39l-.252,17.08-51.261-23.773c-0.988-0.458-2.065-0.696-3.155-0.696h-33.833c-12.613,0-22.875-10.262-22.875-22.875v-89.902c0-12.613 10.262-22.875 22.875-22.875h126c12.613,0 22.875,10.262 22.875,22.875v89.901z"/>
    <path d="m347.48,32.577c-17.946,0-32.546,14.6-32.546,32.546 0,4.142 3.357,7.5 7.5,7.5s7.5-3.358 7.5-7.5c0-9.675 7.871-17.546 17.546-17.546s17.546,7.871 17.546,17.546c0,6.096-3.087,11.658-8.272,14.899-11.444,6.571-18.285,18.729-17.858,31.745 0.133,4.056 3.463,7.254 7.491,7.254 0.083,0 0.167-0.001 0.251-0.004 4.14-0.136 7.386-3.602 7.25-7.742-0.245-7.468 3.729-14.467 10.396-18.28 0.113-0.066 0.224-0.131 0.319-0.19 9.658-5.983 15.424-16.332 15.424-27.683-0.001-17.945-14.601-32.545-32.547-32.545z"/>
    <path d="m346.427,126.504c-1.979,0-3.909,0.8-5.31,2.19-1.39,1.4-2.19,3.33-2.19,5.31 0,1.97 0.801,3.9 2.19,5.3 1.4,1.4 3.34,2.2 5.31,2.2 1.971,0 3.91-0.8 5.301-2.2 1.399-1.4 2.199-3.33 2.199-5.3 0-1.98-0.8-3.91-2.199-5.31-1.391-1.391-3.33-2.19-5.301-2.19z"/>
  </g>
</svg>
