<?xml version='1.0' encoding='iso-8859-1'?>
<!DOCTYPE svg PUBLIC '-//W3C//DTD SVG 1.1//EN' 'http://www.w3.org/Graphics/SVG/1.1/DTD/svg11.dtd'>
<svg version="1.1" xmlns="http://www.w3.org/2000/svg" viewBox="0 0 395 395" xmlns:xlink="http://www.w3.org/1999/xlink" enable-background="new 0 0 395 395">
  <g>
    <path d="m43.503,56.519c-1.98,0-3.91,0.8-5.31,2.2-1.39,1.39-2.19,3.33-2.19,5.3 0,1.97 0.8,3.91 2.19,5.3 1.4,1.4 3.33,2.2 5.31,2.2 1.97,0 3.9-0.8 5.3-2.2 1.4-1.39 2.2-3.33 2.2-5.3 0-1.97-0.8-3.91-2.2-5.3-1.4-1.4-3.33-2.2-5.3-2.2z"/>
    <path d="m72.803,58.719c-1.4-1.4-3.33-2.2-5.3-2.2-1.98,0-3.91,0.8-5.31,2.2-1.39,1.39-2.19,3.33-2.19,5.3 0,1.97 0.8,3.91 2.19,5.3 1.4,1.4 3.33,2.2 5.31,2.2 1.97,0 3.9-0.8 5.3-2.2 1.4-1.39 2.2-3.33 2.2-5.3 0-1.97-0.8-3.91-2.2-5.3z"/>
    <path d="m43.503,189.999c-1.98,0-3.91,0.8-5.31,2.2-1.39,1.39-2.19,3.33-2.19,5.3 0,1.97 0.8,3.91 2.19,5.3 1.4,1.4 3.33,2.2 5.31,2.2 1.97,0 3.9-0.8 5.3-2.2 1.4-1.39 2.2-3.33 2.2-5.3 0-1.97-0.8-3.91-2.2-5.3-1.4-1.4-3.33-2.2-5.3-2.2z"/>
    <path d="m72.803,192.199c-1.4-1.4-3.33-2.2-5.3-2.2-1.98,0-3.91,0.8-5.31,2.2-1.39,1.39-2.19,3.33-2.19,5.3 0,1.98 0.8,3.91 2.19,5.3 1.4,1.4 3.33,2.2 5.31,2.2 1.97,0 3.9-0.8 5.3-2.2 1.4-1.39 2.2-3.32 2.2-5.3 0-1.97-0.8-3.91-2.2-5.3z"/>
    <path d="m43.503,323.479c-1.98,0-3.91,0.8-5.31,2.2-1.39,1.39-2.19,3.33-2.19,5.3 0,1.98 0.8,3.91 2.19,5.3 1.4,1.4 3.33,2.2 5.31,2.2 1.97,0 3.9-0.8 5.3-2.2 1.4-1.39 2.2-3.33 2.2-5.3 0-1.97-0.8-3.9-2.2-5.3-1.4-1.4-3.33-2.2-5.3-2.2z"/>
    <path d="m72.803,325.679c-1.4-1.4-3.33-2.2-5.3-2.2-1.98,0-3.91,0.8-5.31,2.2-1.39,1.4-2.19,3.33-2.19,5.3 0,1.97 0.8,3.91 2.19,5.3 1.4,1.4 3.33,2.2 5.31,2.2 1.97,0 3.9-0.8 5.3-2.2 1.4-1.39 2.2-3.32 2.2-5.3 0-1.97-0.8-3.91-2.2-5.3z"/>
    <path d="M387.5,123.038c4.143,0,7.5-3.358,7.5-7.5V12.5c0-4.142-3.357-7.5-7.5-7.5H7.5C3.358,5,0,8.358,0,12.5v103.038   c0,4.142,3.358,7.5,7.5,7.5h21.87v15.443H7.5c-4.142,0-7.5,3.358-7.5,7.5v103.038c0,4.142,3.358,7.5,7.5,7.5h21.87v15.443H7.5   c-4.142,0-7.5,3.358-7.5,7.5V382.5c0,4.142,3.358,7.5,7.5,7.5h380c4.143,0,7.5-3.358,7.5-7.5V279.462c0-4.142-3.357-7.5-7.5-7.5   h-21.87v-15.443h21.87c4.143,0,7.5-3.358,7.5-7.5V145.981c0-4.142-3.357-7.5-7.5-7.5h-21.87v-15.443H387.5z M380,108.038h-39.166   V20H380V108.038z M286.823,108.038V20h39.011v88.038H286.823z M15,20h256.823v88.038H15V20z M15,153.481h256.823v88.038H15V153.481   z M286.823,241.519v-88.038h39.011v88.038H286.823z M15,286.962h256.823V375H15V286.962z M325.834,286.962V375h-39.011v-88.038   H325.834z M380,375h-39.166v-88.038H380V375z M350.63,271.962H44.37v-15.443h306.26V271.962z M380,241.519h-39.166v-88.038H380   V241.519z M350.63,138.481H44.37v-15.443h306.26V138.481z"/>
  </g>
</svg>
