<?xml version='1.0' encoding='iso-8859-1'?>
<!DOCTYPE svg PUBLIC '-//W3C//DTD SVG 1.1//EN' 'http://www.w3.org/Graphics/SVG/1.1/DTD/svg11.dtd'>
<svg version="1.1" xmlns="http://www.w3.org/2000/svg" viewBox="0 0 448.769 448.769" xmlns:xlink="http://www.w3.org/1999/xlink" enable-background="new 0 0 448.769 448.769">
  <path d="m410.053,131.995h-92.345c3.745-10.537 5.643-21.599 5.643-33.021 5.68434e-14-54.575-44.395-98.974-98.965-98.974-54.575,0-98.974,44.399-98.974,98.974 0,11.422 1.897,22.484 5.643,33.021h-92.34c-17.81,0-32.298,14.489-32.298,32.299v224.32c0,17.81 14.489,32.299 32.298,32.299h105.013l-11.944,12.856h-18.05c-4.142,0-7.5,3.358-7.5,7.5s3.358,7.5 7.5,7.5h221.3c4.142,0 7.5-3.358 7.5-7.5s-3.358-7.5-7.5-7.5h-18.05l-11.944-12.856h105.013c17.81,0 32.298-14.489 32.298-32.299v-224.32c0.001-17.81-14.488-32.299-32.298-32.299zm-388.636,248.332v-207.746h59.876c-1.286,7.825-1.947,15.771-1.947,23.728 0,79.977 65.066,145.043 145.043,145.043 79.97,0 145.03-65.066 145.03-145.043 0-7.957-0.661-15.903-1.947-23.728h59.88v207.746h-405.935zm210.471-175.077c2.508,1.002 4.812,2.504 6.776,4.473 3.814,3.814 5.915,8.889 5.915,14.29s-2.101,10.476-5.921,14.296c-1.961,1.966-4.262,3.466-6.77,4.467v-37.526zm-15-17.883c-2.512-1.003-4.821-2.505-6.79-4.474-2.86-2.86-4.756-6.429-5.526-10.313h12.316v14.787zm-27.475-14.786c0.882,7.901 4.378,15.218 10.079,20.919 4.843,4.843 10.854,8.092 17.396,9.504v39.772c-2.512-1.003-4.821-2.505-6.79-4.474-3.814-3.814-5.915-8.889-5.915-14.29 0-4.142-3.358-7.5-7.5-7.5s-7.5,3.358-7.5,7.5c0,9.407 3.661,18.249 10.308,24.896 4.843,4.843 10.854,8.092 17.396,9.504v6.131c0,4.142 3.358,7.5 7.5,7.5s7.5-3.358 7.5-7.5v-6.13c6.546-1.412 12.553-4.662 17.383-9.504 6.647-6.647 10.308-15.489 10.308-24.896s-3.661-18.249-10.301-24.889c-4.834-4.848-10.843-8.099-17.39-9.511v-17.032h83.315c2.012,7.722 3.047,15.678 3.047,23.728 0,51.755-42.106,93.861-93.861,93.861-51.763,0-93.875-42.106-93.875-93.861 0-8.05 1.035-16.005 3.047-23.728h55.853zm34.975,132.588c60.026,0 108.861-48.835 108.861-108.861 0-8.021-0.892-15.964-2.62-23.728h21.615c1.436,7.803 2.174,15.758 2.174,23.728 0,71.706-58.332,130.043-130.03,130.043-71.706,0-130.043-58.337-130.043-130.043 0-7.97 0.738-15.924 2.174-23.728h21.615c-1.728,7.764-2.62,15.706-2.62,23.728 0,60.026 48.841,108.861 108.874,108.861zm-83.976-206.195c0-46.304 37.67-83.974 83.974-83.974 46.298,0 83.965,37.67 83.965,83.974 0,11.523-2.27,22.609-6.747,33.021h-9.96c5.027-10.191 7.653-21.394 7.653-33.021 0-41.311-33.605-74.919-74.911-74.919-41.311,0-74.92,33.609-74.92,74.919 0,11.629 2.627,22.832 7.656,33.021h-9.963c-4.477-10.412-6.747-21.497-6.747-33.021zm77.474-8.443c-3.262-2.13-5.426-5.806-5.426-9.984s2.164-7.854 5.426-9.984v19.968zm13,36.843v-19.962c3.259,2.13 5.421,5.805 5.421,9.981s-2.161,7.851-5.421,9.981zm0-34.038v-22.771c3.259,2.13 5.421,5.805 5.421,9.981 0,3.59 2.91,6.5 6.5,6.5s6.5-2.91 6.5-6.5c0-11.493-7.822-21.189-18.421-24.057v-2.904c0-3.59-2.91-6.5-6.5-6.5s-6.5,2.91-6.5,6.5v2.903c-10.601,2.866-18.426,12.564-18.426,24.059s7.825,21.192 18.426,24.059v22.772c-3.262-2.13-5.426-5.806-5.426-9.984 0-3.59-2.91-6.5-6.5-6.5s-6.5,2.91-6.5,6.5c0,5.451 1.764,10.495 4.744,14.602h-29.804c-6.504-9.785-9.935-21.123-9.935-33.021 0-33.04 26.88-59.919 59.92-59.919 33.035,0 59.911,26.88 59.911,59.919 0,11.894-3.428,23.232-9.928,33.021h-29.806c2.98-4.107 4.744-9.151 4.744-14.602 0.001-11.494-7.821-21.19-18.42-24.058zm-192.171,53.659h371.338c7.159,0 13.316,4.372 15.942,10.586h-403.222c2.626-6.214 8.783-10.586 15.942-10.586zm257.794,286.774h-144.25l11.944-12.856h120.361l11.945,12.856zm113.544-27.856h-371.338c-7.159,0-13.316-4.372-15.942-10.586h403.222c-2.626,6.214-8.782,10.586-15.942,10.586z"/>
</svg>
