<?xml version='1.0' encoding='iso-8859-1'?>
<!DOCTYPE svg PUBLIC '-//W3C//DTD SVG 1.1//EN' 'http://www.w3.org/Graphics/SVG/1.1/DTD/svg11.dtd'>
<svg version="1.1" xmlns="http://www.w3.org/2000/svg" viewBox="0 0 447 447" xmlns:xlink="http://www.w3.org/1999/xlink" enable-background="new 0 0 447 447">
  <g>
    <path d="m304.697,238.619c0-44.772-36.425-81.197-81.197-81.197s-81.197,36.425-81.197,81.197 36.425,81.197 81.197,81.197 81.197-36.425 81.197-81.197zm-147.394,0c0-36.501 29.696-66.197 66.197-66.197s66.197,29.696 66.197,66.197-29.696,66.197-66.197,66.197-66.197-29.696-66.197-66.197z"/>
    <path d="m231,284.773c0-4.142-3.358-7.5-7.5-7.5-21.314,0-38.654-17.34-38.654-38.654 0-4.142-3.358-7.5-7.5-7.5s-7.5,3.358-7.5,7.5c0,29.585 24.069,53.654 53.654,53.654 4.142,0 7.5-3.358 7.5-7.5z"/>
    <path d="m223.5,199.965c21.314,0 38.654,17.34 38.654,38.654 0,4.142 3.358,7.5 7.5,7.5s7.5-3.358 7.5-7.5c0-29.585-24.069-53.654-53.654-53.654-4.142,0-7.5,3.358-7.5,7.5s3.358,7.5 7.5,7.5z"/>
    <path d="M439.5,90.392H130.772V67.654c0-4.142-3.358-7.5-7.5-7.5H40.363c-4.142,0-7.5,3.358-7.5,7.5v22.738H7.5   c-4.142,0-7.5,3.358-7.5,7.5v281.454c0,4.142,3.358,7.5,7.5,7.5h432c4.142,0,7.5-3.358,7.5-7.5V97.892   C447,93.75,443.642,90.392,439.5,90.392z M47.863,75.154h67.909v15.238H47.863V75.154z M432,105.392v23.183h-19.774v-8.558   c0-4.142-3.358-7.5-7.5-7.5H337.09c-4.142,0-7.5,3.358-7.5,7.5v8.558h-67.571c-12.064-4.235-25.025-6.547-38.518-6.547   s-26.454,2.312-38.518,6.547H15v-23.183H432z M121.909,238.619c0-56.017,45.573-101.591,101.591-101.591   s101.591,45.573,101.591,101.591S279.518,340.21,223.5,340.21S121.909,294.636,121.909,238.619z M156.045,333.666H15V143.575   h141.041c-29.715,21.152-49.132,55.873-49.132,95.044C106.909,277.792,126.328,312.515,156.045,333.666z M340.091,238.619   c0-39.171-19.417-73.892-49.132-95.044h38.631v30.987c0,4.142,3.358,7.5,7.5,7.5h67.636c4.142,0,7.5-3.358,7.5-7.5v-30.987H432   v190.091H290.955C320.672,312.515,340.091,277.792,340.091,238.619z M344.59,167.063v-39.545h52.636v39.545H344.59z M15,371.846   v-23.18h169.991c12.062,4.233,25.02,6.544,38.509,6.544s26.448-2.311,38.509-6.544H432v23.18H15z"/>
    <path d="m68.172,171.426c-13.76,0-24.955,11.195-24.955,24.955s11.194,24.955 24.955,24.955c13.76,0 24.954-11.195 24.954-24.955s-11.194-24.955-24.954-24.955zm0,34.909c-5.489,0-9.955-4.466-9.955-9.955s4.466-9.955 9.955-9.955 9.954,4.466 9.954,9.955-4.465,9.955-9.954,9.955z"/>
  </g>
</svg>
