<?xml version='1.0' encoding='iso-8859-1'?>
<!DOCTYPE svg PUBLIC '-//W3C//DTD SVG 1.1//EN' 'http://www.w3.org/Graphics/SVG/1.1/DTD/svg11.dtd'>
<svg version="1.1" xmlns="http://www.w3.org/2000/svg" viewBox="0 0 437.501 437.501" xmlns:xlink="http://www.w3.org/1999/xlink" enable-background="new 0 0 437.501 437.501">
  <g>
    <path d="m219.626,170.276c-39.977,0-72.5,32.523-72.5,72.5s32.523,72.5 72.5,72.5 72.5-32.523 72.5-72.5-32.523-72.5-72.5-72.5zm0,130c-31.706,0-57.5-25.794-57.5-57.5s25.794-57.5 57.5-57.5 57.5,25.794 57.5,57.5-25.794,57.5-57.5,57.5z"/>
    <path d="m219.626,198.064c-24.654,0-44.712,20.058-44.712,44.712 0,24.655 20.058,44.713 44.712,44.713s44.713-20.058 44.713-44.713c0-24.654-20.058-44.712-44.713-44.712zm0,15c2.157,0 4.26,0.237 6.288,0.676l-28.658,48.559c-4.566-5.226-7.342-12.054-7.342-19.522-2.84217e-14-16.384 13.329-29.713 29.712-29.713zm0,59.425c-3.49,0-6.838-0.61-9.952-1.72l29.639-50.221c6.143,5.448 10.026,13.391 10.026,22.228-2.84217e-14,16.384-13.329,29.713-29.713,29.713z"/>
    <path d="m356.848,289.825c-12.93-22.344-25.719-38.829-29.873-44.003-2.862-17.926-6.7-35.904-11.521-53.894-17.877-66.714-48.366-130.241-90.619-188.815-1.411-1.955-3.674-3.113-6.084-3.113s-4.673,1.158-6.082,3.112c-42.255,58.574-72.744,122.101-90.621,188.815-4.821,17.991-8.659,35.969-11.521,53.896-4.156,5.175-16.943,21.658-29.872,44.001-20.921,36.151-31.528,68.77-31.528,96.952 0,4.142 3.357,7.5 7.5,7.5 26.272,0 52.902-2.6 58.709-3.202 5.477,1.065 10.961,2.043 16.449,2.938l-3.382,30.62c-0.218,1.977 0.358,3.96 1.602,5.513 1.244,1.552 3.054,2.547 5.031,2.765 27.733,3.061 55.663,4.59 83.593,4.59 27.929,0 55.858-1.53 83.592-4.59 1.978-0.218 3.787-1.213 5.031-2.766s1.819-3.536 1.601-5.513l-3.381-30.578c5.571-0.906 11.137-1.898 16.697-2.979 5.807,0.602 32.437,3.202 58.709,3.202 4.143,0 7.5-3.358 7.5-7.5-0.003-28.181-10.61-60.8-31.53-96.951zm-138.097-269.35c17.277,24.842 32.402,50.562 45.322,77.017-14.102,6.605-29.633,10.075-45.327,10.075-15.692,0-31.219-3.469-45.319-10.072 12.921-26.456 28.046-52.178 45.324-77.02zm-112.199,256.297c-3.263,33.681-3.023,67.1 0.726,100.001-9.247,0.828-25.788,2.104-42.863,2.427 2.818-37.766 25.711-77.988 42.137-102.428zm186.562,142.015c-49.465,4.953-99.51,4.953-148.975,0l2.492-22.553c23.987,3.238 48.053,4.858 72.121,4.858 23.984,0 47.968-1.609 71.872-4.825l2.49,22.52zm21.972-41.628c-63.952,11.908-128.721,11.907-192.671,0-7.021-59.176-2.276-120.156 14.121-181.349 7.747-28.91 17.932-57.212 30.481-84.754 16.099,7.546 33.823,11.51 51.729,11.51 17.909,0 35.636-3.965 51.736-11.513 12.55,27.543 22.735,55.846 30.482,84.757 16.399,61.193 21.144,122.173 14.122,181.349zm15.138-.386c3.749-32.911 3.989-66.339 0.723-100.029 16.427,24.422 39.326,64.636 42.142,102.456-17.065-0.322-33.614-1.599-42.865-2.427z"/>
  </g>
</svg>
